<svg width="20" height="21" viewBox="0 0 20 21" fill="none" xmlns="http://www.w3.org/2000/svg">
<path fill-rule="evenodd" clip-rule="evenodd" d="M4.22381 0.0680184C4.02631 0.160448 3.86346 0.347421 3.80869 0.544597C3.78605 0.626106 3.76744 0.874818 3.76732 1.09722L3.76708 1.50158L2.97989 1.51936C2.0988 1.53921 1.8691 1.58775 1.37562 1.85827C0.978156 2.07617 0.509589 2.57037 0.305239 2.98724C-0.0264174 3.66382 0.000526368 2.95906 0.000526368 10.9562C0.000526368 18.9387 -0.0251819 18.2509 0.297666 18.9098C0.594526 19.5158 1.17007 20.0164 1.84921 20.2596L2.1927 20.3825H9.82545H17.4582L17.7771 20.2703C18.6726 19.9551 19.3337 19.2438 19.5804 18.3299C19.6459 18.0874 19.6504 17.6149 19.6504 10.9562C19.6504 2.95679 19.6775 3.6643 19.3444 2.98465C19.1103 2.50687 18.6356 2.03364 18.1557 1.79948C17.6883 1.57141 17.3458 1.50991 16.5431 1.50991H15.8838L15.8836 1.10137C15.8833 0.616102 15.8406 0.438257 15.6805 0.255908C15.3349 -0.137687 14.6757 -0.0546238 14.4503 0.410914C14.3829 0.550137 14.3692 0.657275 14.3692 1.04421V1.50991H9.8286H5.28801L5.27486 0.998616C5.26298 0.53547 5.2527 0.474169 5.16569 0.347341C4.94774 0.0296753 4.55471 -0.0868686 4.22381 0.0680184ZM3.77417 3.49283C3.79219 4.03777 3.85293 4.20629 4.09419 4.38106C4.38436 4.59127 4.75364 4.57062 5.02906 4.32881C5.24281 4.14112 5.28167 4.01114 5.28167 3.48414V3.0245H9.82545H14.3692V3.48414C14.3692 4.01114 14.4081 4.14112 14.6219 4.32881C14.9029 4.57553 15.2893 4.58788 15.5885 4.35966C15.7998 4.19851 15.8593 4.01951 15.8767 3.49283L15.8922 3.0245H16.5243C17.0632 3.0245 17.1884 3.0365 17.374 3.10597C17.6482 3.20857 17.8932 3.44369 18.0301 3.73576L18.1358 3.96116L18.1488 5.18679L18.1618 6.41241H9.82545H1.48909L1.50272 5.18679C1.51456 4.11665 1.52532 3.94095 1.5873 3.80173C1.70042 3.54776 1.84793 3.35791 2.02139 3.24312C2.30693 3.05416 2.42782 3.03032 3.11521 3.02729L3.75867 3.0245L3.77417 3.49283ZM18.1466 12.9391L18.1358 17.9512L18.0316 18.1704C17.9068 18.4331 17.6919 18.6546 17.4423 18.7776L17.2589 18.8679H9.82545H2.39199L2.20757 18.7771C1.9526 18.6515 1.74227 18.4355 1.61919 18.1731L1.51512 17.9512L1.50428 12.9391L1.4934 7.927H9.82545H18.1575L18.1466 12.9391Z" fill="#353535"/>
<rect x="3.70703" y="9.96484" width="2.31175" height="2.31175" rx="1" fill="#353535"/>
<rect x="3.70703" y="13.5518" width="2.31175" height="2.31175" rx="1" fill="#353535"/>
<rect x="7.01367" y="9.96484" width="2.31175" height="2.31175" rx="1" fill="#353535"/>
<rect x="7.01367" y="13.5518" width="2.31175" height="2.31175" rx="1" fill="#353535"/>
<rect x="10.3242" y="9.96484" width="2.31175" height="2.31175" rx="1" fill="#353535"/>
<rect x="10.3242" y="13.5518" width="2.31175" height="2.31175" rx="1" fill="#353535"/>
<rect x="13.6309" y="9.96484" width="2.31175" height="2.31175" rx="1" fill="#353535"/>
<rect x="13.6309" y="13.5518" width="2.31175" height="2.31175" rx="1" fill="#353535"/>
</svg>
