<svg width="26" height="20" viewBox="0 0 26 20" fill="none" xmlns="http://www.w3.org/2000/svg">
<path fill-rule="evenodd" clip-rule="evenodd" d="M9.71438 2.27542C9.97087 1.89067 10.4027 1.65958 10.8651 1.65958H15.1349C15.5973 1.65958 16.0291 1.89067 16.2856 2.27542L17.513 4.11655C17.8721 4.65519 18.4767 4.97873 19.124 4.97873H22.9574C23.7212 4.97873 24.3404 5.59791 24.3404 6.3617V16.3191C24.3404 17.0829 23.7212 17.7021 22.9574 17.7021H8.05202H3.04255C2.27876 17.7021 1.65957 17.0829 1.65957 16.3191V6.3617C1.65957 5.59791 2.27876 4.97873 3.04255 4.97873H6.87597C7.52333 4.97873 8.12786 4.65519 8.48696 4.11655L9.71438 2.27542ZM10.8651 0C9.8478 0 8.89782 0.508413 8.33353 1.35485L7.10611 3.19598C7.05481 3.27293 6.96845 3.31915 6.87597 3.31915H3.04255C1.3622 3.31915 0 4.68135 0 6.3617V16.3191C0 17.9995 1.3622 19.3617 3.04255 19.3617H8.05202H22.9574C24.6378 19.3617 26 17.9995 26 16.3191V6.3617C26 4.68135 24.6378 3.31915 22.9574 3.31915H19.124C19.0316 3.31915 18.9452 3.27293 18.8939 3.19598L17.6665 1.35485C17.1022 0.508414 16.1522 0 15.1349 0H10.8651ZM16.8723 10.7872C16.8723 12.9259 15.1386 14.6596 13 14.6596C10.8614 14.6596 9.12766 12.9259 9.12766 10.7872C9.12766 8.6486 10.8614 6.9149 13 6.9149C15.1386 6.9149 16.8723 8.6486 16.8723 10.7872ZM18.5319 10.7872C18.5319 13.8424 16.0552 16.3191 13 16.3191C9.94481 16.3191 7.46809 13.8424 7.46809 10.7872C7.46809 7.73204 9.94481 5.25532 13 5.25532C16.0552 5.25532 18.5319 7.73204 18.5319 10.7872Z" fill="#353535"/>
</svg>
