<svg width="111" height="111" viewBox="0 0 111 111" fill="none" xmlns="http://www.w3.org/2000/svg">
<rect x="0.312988" y="60.8281" width="85.2007" height="58.7997" transform="rotate(-45.05 0.312988 60.8281)" fill="white"/>
<rect x="6.2251" y="67.665" width="86.378" height="10.6057" transform="rotate(-45.05 6.2251 67.665)" fill="#A6A4A4"/>
<rect x="21.9575" y="49.9336" width="84.7807" height="57.3337" fill="white"/>
<path fill-rule="evenodd" clip-rule="evenodd" d="M58.8406 0.82148C58.2186 0.989121 57.2974 1.33108 56.7936 1.58168C56.1582 1.89778 47.5508 10.3662 28.7005 29.221C-0.996251 58.9249 0.653435 57.1332 0.117114 60.2645C-0.182613 62.0148 0.0957822 63.9035 0.919979 65.7117C1.4132 66.7936 2.6272 68.1016 9.88379 75.3702L18.277 83.7775V92.9966C18.277 100.597 18.3365 102.477 18.6151 103.703C19.1708 106.145 21.0698 108.631 23.2166 109.727C25.439 110.86 23.6258 110.812 64.2082 110.812C91.2657 110.812 102.182 110.744 103.003 110.57C106.395 109.85 109.34 106.907 110.046 103.53C110.213 102.733 110.285 95.163 110.285 78.5257C110.285 52.4856 110.322 53.299 109.056 51.1391C107.739 48.8908 105.156 47.0427 102.848 46.6964C102.316 46.6167 101.882 46.5111 101.882 46.4615C101.882 46.412 102.086 45.7685 102.335 45.0314C102.99 43.0934 102.85 40.3536 101.996 38.4124C101.414 37.0892 100.422 36.0514 84.033 19.6265C72.2467 7.8139 66.3651 2.06629 65.6833 1.69524C63.5794 0.550196 61.0482 0.226981 58.8406 0.82148ZM63.6712 4.81986C64.1653 5.05688 64.6701 5.37191 64.7932 5.51994C64.9608 5.72206 59.7528 11.0394 43.9633 26.7875C32.3838 38.3365 22.462 48.125 21.9145 48.5398C21.3672 48.9546 20.6421 49.6818 20.3031 50.1559C19.9644 50.6299 16.4422 54.2867 12.4762 58.2819C4.64535 66.1709 5.08083 65.857 4.24348 64.2155C3.61473 62.9829 3.50936 61.5483 3.93751 60.0499L4.30188 58.7749L30.9516 32.0948C47.4114 15.6163 57.9309 5.24198 58.4633 4.96337C58.9374 4.71492 59.6161 4.4361 59.9717 4.34366C60.9066 4.10017 62.6335 4.32254 63.6712 4.81986ZM70.2626 10.995L72.7897 13.5285L56.3605 29.9569L39.9313 46.385H34.761H29.5904L48.5514 27.4231C58.9801 16.9941 67.5627 8.46119 67.6241 8.46119C67.6853 8.46119 68.8728 9.60128 70.2626 10.995ZM98.5469 39.8014C99.4605 41.6258 99.2097 44.099 97.9571 45.6188L97.3253 46.385H71.323H45.3204L60.4026 31.3017L75.4847 16.2186L86.7489 27.477C95.2587 35.9827 98.1437 38.9963 98.5469 39.8014ZM103.45 50.6672C104.016 50.9484 104.813 51.5681 105.22 52.0443C106.71 53.7851 106.636 52.2947 106.572 79.0424C106.517 102.092 106.497 103.196 106.113 103.917C105.553 104.97 104.514 106.026 103.498 106.576L102.636 107.042L64.721 107.098C22.6988 107.16 25.703 107.26 23.9363 105.747C23.4601 105.34 22.8404 104.543 22.5592 103.977L22.0479 102.948V78.6912V54.435L22.6971 53.1656C23.4431 51.7066 24.5827 50.787 26.179 50.355C27.0191 50.1276 34.4524 50.0815 64.8199 50.1147L102.421 50.1559L103.45 50.6672ZM27.6567 56.1422C25.8006 57.1933 25.5127 58.3129 25.6414 63.9787C25.7288 67.8396 25.8564 68.3737 26.9295 69.3727C27.8599 70.2391 28.4141 70.3029 35.015 70.3029C41.0378 70.3029 41.4246 70.279 42.1692 69.8605C42.6021 69.617 43.1973 69.0669 43.4914 68.6379C44.0105 67.8811 44.0286 67.7284 44.0978 63.532C44.1749 58.8363 44.057 58.0434 43.115 56.9237C42.0859 55.7009 41.7549 55.6501 34.8217 55.6539C28.68 55.6574 28.4893 55.6705 27.6567 56.1422ZM15.6437 70.6739L13.0022 73.3217L10.4158 70.7351L7.82923 68.1488L12.9991 62.9752L18.1693 57.8014L18.2272 62.9138L18.285 68.0262L15.6437 70.6739ZM40.4711 62.9767V66.6398H34.9764H29.4818V62.9767V59.3136H34.9764H40.4711V62.9767ZM18.277 76.0602V78.5852L16.9839 77.3056L15.6909 76.0259L16.9234 74.7805C17.6011 74.0955 18.1831 73.535 18.2165 73.535C18.2497 73.535 18.277 74.6712 18.277 76.0602Z" fill="#353535"/>
<rect x="26.0728" y="79.6094" width="4.95595" height="7.75715" rx="2.47798" fill="#353535"/>
<rect x="48.9131" y="90.8135" width="4.09405" height="22.8405" rx="2.04702" transform="rotate(90 48.9131 90.8135)" fill="#353535"/>
<rect x="65.5044" y="97.709" width="4.09405" height="39.4322" rx="2.04702" transform="rotate(90 65.5044 97.709)" fill="#353535"/>
<rect x="60.5488" y="79.6094" width="4.95595" height="7.75715" rx="2.47798" fill="#353535"/>
<rect x="43.3105" y="79.6094" width="4.95595" height="7.75715" rx="2.47798" fill="#353535"/>
<rect x="77.7871" y="79.6094" width="4.95595" height="7.75715" rx="2.47798" fill="#353535"/>
<rect x="34.6919" y="79.6094" width="4.95595" height="7.75715" rx="2.47798" fill="#353535"/>
<rect x="69.1675" y="79.6094" width="4.95595" height="7.75715" rx="2.47798" fill="#353535"/>
<rect x="51.9297" y="79.6094" width="4.95595" height="7.75715" rx="2.47798" fill="#353535"/>
<rect x="86.4058" y="79.6094" width="4.95595" height="7.75715" rx="2.47798" fill="#353535"/>
</svg>
