<svg width="25" height="25" viewBox="0 0 25 25" fill="none" xmlns="http://www.w3.org/2000/svg">
<ellipse cx="12.5555" cy="12.5001" rx="11.5252" ry="11.4679" fill="white"/>
<path d="M23.7083 9.91565C24.2452 9.79186 24.785 10.1265 24.8656 10.6716C25.2147 13.0325 24.8814 15.4517 23.8944 17.6399C22.7702 20.1321 20.8599 22.187 18.4562 23.4897C16.0525 24.7925 13.288 25.2712 10.5862 24.8526C7.88443 24.434 5.39439 23.1412 3.4976 21.1722C1.60081 19.2032 0.401877 16.6666 0.0845054 13.951C-0.232867 11.2355 0.348822 8.49079 1.74045 6.13745C3.13208 3.7841 5.25689 1.95191 7.78934 0.921587C10.0128 0.0169687 12.4429 -0.225704 14.7891 0.211366C15.3307 0.31227 15.645 0.864175 15.5012 1.39606C15.3574 1.92795 14.81 2.23757 14.2669 2.14489C12.3439 1.81675 10.3603 2.02963 8.54125 2.76972C6.41303 3.63559 4.62738 5.17533 3.45788 7.15303C2.28838 9.13074 1.79954 11.4373 2.06626 13.7194C2.33297 16.0015 3.34053 18.1332 4.93456 19.7879C6.52858 21.4427 8.62117 22.5291 10.8917 22.8809C13.1622 23.2327 15.4855 22.8303 17.5055 21.7355C19.5255 20.6407 21.1309 18.9138 22.0756 16.8194C22.8831 15.0293 23.17 13.055 22.9139 11.1211C22.8416 10.5749 23.1714 10.0394 23.7083 9.91565Z" fill="#353535"/>
<rect x="20.6904" y="1.31543" width="2.28588" height="17.5498" rx="1.14294" transform="rotate(34.8367 20.6904 1.31543)" fill="#353535"/>
<rect x="6.99609" y="8.94141" width="2.28588" height="9.48448" rx="1.14294" transform="rotate(-30 6.99609 8.94141)" fill="#353535"/>
</svg>
