<svg width="24" height="30" viewBox="0 0 24 30" fill="none" xmlns="http://www.w3.org/2000/svg">
<path fill-rule="evenodd" clip-rule="evenodd" d="M8.36791 0.0573327C7.92669 0.145125 7.31957 0.47971 6.98397 0.820097C6.42338 1.38876 6.17283 2.11296 6.17012 3.17286L6.16896 3.62706L4.42106 3.62823C2.45434 3.62952 2.02178 3.67283 1.49874 3.92068C1.02972 4.14291 0.47236 4.70331 0.257469 5.16858C-0.224721 6.21284 -0.018035 7.42066 0.78028 8.22392C1.05613 8.50148 1.7082 8.90165 1.88466 8.90165C1.93124 8.90165 1.95296 11.3721 1.96429 17.9417L1.97977 26.9818L2.13717 27.4506C2.35524 28.1 2.66466 28.6021 3.10745 29.025C3.56144 29.4587 4.04455 29.7289 4.64329 29.8843C5.07555 29.9964 5.30738 30 12.0049 30C18.7025 30 18.9343 29.9964 19.3666 29.8843C20.7721 29.5196 21.78 28.3366 22 26.7933C22.035 26.5477 22.0571 23.0521 22.0578 17.6532L22.059 8.91073L22.2757 8.83899C23.1027 8.56518 23.8213 7.67126 23.9707 6.73039C24.1279 5.74035 23.6401 4.63603 22.8055 4.09286C22.1757 3.68297 22.0763 3.66773 19.8574 3.64095L17.8581 3.61686L17.8218 2.93122C17.7815 2.17156 17.663 1.73225 17.376 1.27863C16.9895 0.66772 16.2908 0.187381 15.5937 0.0532888C15.2117 -0.0202038 8.73956 -0.0165702 8.36791 0.0573327ZM15.6753 1.52642C16.1931 1.81459 16.3999 2.21898 16.4403 3.02282L16.4707 3.62706H12.0068H7.54296L7.56422 2.99704C7.58317 2.43734 7.60322 2.33636 7.74421 2.09244C7.83146 1.94147 7.9843 1.75909 8.0838 1.68724C8.47966 1.40136 8.46313 1.40247 12.0916 1.4163C15.1414 1.42796 15.5191 1.43957 15.6753 1.52642ZM21.9145 5.1891C22.209 5.34985 22.3753 5.53171 22.4963 5.82527C22.7188 6.36539 22.5356 7.01282 22.0653 7.34804L21.8179 7.52439L12.13 7.54162C5.36649 7.5537 2.37743 7.53998 2.22795 7.49614C1.65244 7.32736 1.2835 6.65291 1.42934 6.0362C1.53901 5.5725 1.90714 5.20697 2.38425 5.088C2.47959 5.06421 6.8609 5.04885 12.1205 5.05383L21.6834 5.06292L21.9145 5.1891ZM20.659 17.6047C20.6696 23.4825 20.6551 26.3502 20.6131 26.6301C20.4914 27.4405 20.0791 28.0392 19.4137 28.3715L19.0279 28.5641L12.1566 28.58C4.70199 28.5971 4.89874 28.6047 4.39309 28.281C3.91997 27.978 3.52787 27.3871 3.4026 26.7884C3.3562 26.5664 3.33765 23.9809 3.33765 17.7189V8.95984L11.9905 8.97473L20.6433 8.98956L20.659 17.6047ZM7.45253 11.0666C7.3591 11.1613 7.26607 11.3229 7.24584 11.4255C7.22562 11.5282 7.20904 14.6031 7.20904 18.2586C7.20904 25.3448 7.20089 25.1327 7.48281 25.3873C7.65725 25.5447 7.96737 25.5758 8.20814 25.4599C8.62099 25.2611 8.5958 25.7337 8.5958 18.1937C8.5958 10.8351 8.61204 11.2096 8.28297 10.9909C8.20288 10.9376 8.02197 10.8943 7.88 10.8943C7.67198 10.8943 7.5897 10.9274 7.45253 11.0666ZM11.5914 11.0264C11.5071 11.0988 11.4095 11.2156 11.3748 11.286C11.3301 11.3765 11.3116 13.4016 11.3116 18.1927C11.3116 25.7338 11.2864 25.2611 11.6992 25.4599C11.94 25.5758 12.2501 25.5447 12.4245 25.3873C12.7065 25.1327 12.6983 25.3448 12.6983 18.2586C12.6983 14.6031 12.6817 11.5282 12.6615 11.4255C12.6413 11.3229 12.5483 11.1613 12.4548 11.0666C12.2333 10.8419 11.8286 10.8231 11.5914 11.0264ZM15.6105 11.0935L15.4141 11.2928V18.1586C15.4141 24.0545 15.426 25.0476 15.4982 25.1893C15.5901 25.3696 15.8986 25.5459 16.1221 25.5459C16.3381 25.5459 16.6475 25.3044 16.7254 25.075C16.8161 24.8076 16.8312 11.7399 16.741 11.4108C16.6548 11.0958 16.3924 10.8943 16.0683 10.8943C15.8481 10.8943 15.776 10.9257 15.6105 11.0935Z" fill="#E31E24"/>
</svg>
