<svg width="89" height="89" viewBox="0 0 89 89" fill="none" xmlns="http://www.w3.org/2000/svg">
<path d="M0.961426 4.86621L3.96143 43.3662L1.46143 83.3662L5.96143 87.8662H82.4614L86.9614 84.8662L84.9614 43.8662L86.4614 3.86621L83.4614 1.86621L5.96143 1.36621L0.961426 4.86621Z" fill="white"/>
<path fill-rule="evenodd" clip-rule="evenodd" d="M4.66454 0.196138C2.83952 0.776897 1.30445 2.01942 0.590707 3.49348C-0.249056 5.22846 -0.258791 4.69481 0.985819 25.2945L2.14351 44.4531L0.985819 63.6118C-0.258791 84.2114 -0.249056 83.6778 0.590707 85.4128C1.14192 86.5512 2.34655 87.6857 3.66938 88.3124L4.83837 88.8662H44.0366H83.2349L84.2318 88.399C84.7802 88.142 85.5009 87.7242 85.8332 87.4707C86.7048 86.806 87.6263 85.3224 87.9614 84.0446C88.2366 82.9955 88.2316 82.6034 87.8644 76.5155C87.4531 69.6964 86.9614 64.8662 86.9614 64.8662C86.8914 64.8731 84.8019 65.0801 84.8019 65.0801C84.8019 65.0801 84.9041 70.7792 85.2551 76.576C85.6269 82.7193 85.6309 83.0376 85.3429 83.7913C84.9733 84.7592 83.772 85.9051 82.862 86.1578C81.919 86.4196 6.15425 86.4196 5.21123 86.1578C4.30298 85.9056 3.09992 84.7592 2.73175 83.7951C2.44093 83.0336 2.4651 82.4608 3.54787 64.427L4.66367 45.8438H12.4169C20.4076 45.8438 21.0955 45.7902 21.4426 45.1417C21.7162 44.6304 21.6397 43.9586 21.2651 43.584C20.9274 43.2462 20.6858 43.2363 12.8378 43.2363H4.75806L4.67828 42.8452C4.6343 42.6302 4.11194 34.2602 3.51745 24.2454C2.5913 8.64053 2.4684 5.93108 2.65752 5.29817C2.94764 4.32786 4.25518 3.01267 5.18603 2.75489C6.17372 2.48163 81.8995 2.48163 82.8872 2.75489C83.8181 3.01267 85.1256 4.32786 85.4157 5.29817C85.6048 5.93108 85.4819 8.64053 84.5558 24.2454C83.9613 34.2602 83.4389 42.6302 83.395 42.8452L83.3152 43.2363H54.5626H25.8099L25.4497 43.6944C24.9805 44.2906 24.995 44.6716 25.5088 45.2691L25.9284 45.7568L54.6704 45.8024L83.4123 45.8478L83.9759 55.2635C84.4178 62.6491 84.8019 65.0801 84.8019 65.0801L86.9614 64.8662C86.9614 64.8662 86.9776 61.6428 86.5419 54.6221L85.9271 44.7139L87.086 25.4243C88.3317 4.68681 88.3219 5.22759 87.4825 3.49348C86.9313 2.35508 85.7267 1.22051 84.4039 0.593856L83.2349 0.0400399L44.2974 0.00736021C13.1828 -0.018714 5.2201 0.0193544 4.66454 0.196138ZM7.64309 17.8701L7.18505 18.2303V22.8242C7.18505 27.1863 7.20261 27.4355 7.53271 27.7656C7.97145 28.2044 8.76289 28.212 9.29307 27.7827C9.64854 27.4948 9.70973 27.2699 9.76536 26.0444L9.82933 24.6367L10.6366 24.6329C13.8256 24.6178 15.4342 20.8803 13.2082 18.6577C12.3178 17.7686 11.4993 17.5098 9.57849 17.5098C8.34709 17.5098 8.02481 17.5697 7.64309 17.8701ZM18.4688 17.7681C18.0957 17.9711 17.7444 18.7309 16.4033 22.2372C15.5145 24.5608 14.7846 26.6893 14.7815 26.9671C14.7711 27.8532 15.8784 28.4036 16.7419 27.9414C16.9186 27.847 17.1988 27.414 17.3648 26.9792L17.6667 26.1888L19.2346 26.2384L20.8024 26.2881L20.9689 26.8096C21.3863 28.1159 22.6276 28.559 23.3384 27.6552C23.5365 27.4034 23.6987 27.0747 23.6987 26.925C23.6987 26.7753 22.9905 24.7716 22.1249 22.4724C20.5065 18.1736 20.1236 17.5018 19.2998 17.5167C19.09 17.5205 18.7161 17.6337 18.4688 17.7681ZM27.8706 17.714C27.0793 17.9388 26.1992 18.6143 25.8714 19.2484C25.5378 19.8936 25.5359 21.3804 25.8681 22.0225C26.2474 22.7561 26.8579 23.1658 28.4889 23.7813C30.0593 24.3741 30.3718 24.6058 30.2011 25.0508C29.9501 25.7047 28.4049 25.6246 27.4666 24.9089C26.4028 24.0977 25.0893 24.5105 25.0893 25.6562C25.0893 26.3729 25.6386 26.9702 26.8586 27.5798C29.398 28.8487 32.3995 27.7463 32.8431 25.3816C33.1421 23.7879 32.1504 22.5014 29.8696 21.524C28.2198 20.817 27.8381 20.3931 28.6645 20.1857C28.9826 20.1059 29.4208 20.194 30.0233 20.4589C31.3282 21.0329 31.5627 21.0534 32.0898 20.6387C33.1769 19.7836 32.3503 18.3426 30.449 17.778C29.4352 17.4769 28.7636 17.4602 27.8706 17.714ZM37.3543 17.7587C36.9775 17.8988 36.4768 18.1568 36.242 18.332C34.8329 19.3842 34.8315 21.9139 36.2397 22.9165C36.5168 23.1138 37.3788 23.523 38.155 23.8256C39.7493 24.4472 40.1543 24.8507 39.604 25.2691C39.073 25.6729 37.7599 25.4933 37.0837 24.9242C35.5427 23.6276 33.7761 25.3006 35.1915 26.7161C36.1876 27.7123 37.0002 28.0184 38.6599 28.0225C40.0022 28.026 40.222 27.9784 40.883 27.5414C42.0854 26.7465 42.6418 25.509 42.3931 24.1832C42.2038 23.174 41.2208 22.2914 39.4302 21.5236C37.8633 20.8518 37.6018 20.5822 38.1694 20.2243C38.4727 20.0329 38.7288 20.0991 40.5129 20.8299C41.0169 21.0362 41.1233 21.0232 41.5559 20.7016C42.0854 20.3081 42.2703 19.4977 41.9622 18.9218C41.6901 18.4137 40.0375 17.6739 38.9725 17.5835C38.3933 17.5343 37.7797 17.6009 37.3543 17.7587ZM44.6685 17.8701L44.2104 18.2303V22.8242C44.2104 27.1863 44.228 27.4355 44.5581 27.7656C45.0758 28.2833 46.0061 28.2292 46.4575 27.6552C46.748 27.286 46.8179 26.949 46.8179 25.917V24.6367L47.6436 24.6329C49.1331 24.6259 50.4926 23.7153 51.0674 22.3391C51.6061 21.0494 51.2908 19.66 50.2266 18.635C49.3255 17.7669 48.4977 17.5098 46.6039 17.5098C45.3725 17.5098 45.0502 17.5697 44.6685 17.8701ZM56.9868 17.742C54.7571 18.4822 53.3611 20.1839 53.1275 22.4465C52.925 24.4081 54.0681 26.5158 55.8637 27.4924C56.6013 27.8934 57.0828 28.0177 58.135 28.0785C59.3092 28.1465 59.5928 28.0997 60.4882 27.6905C62.4504 26.7939 63.5026 25.2795 63.6366 23.1592C63.8235 20.2011 61.7242 17.8063 58.7536 17.5896C58.115 17.5428 57.4012 17.6045 56.9868 17.742ZM66.3275 17.69C66.1111 17.7769 65.8567 18.0509 65.7625 18.2986C65.6671 18.5498 65.5913 20.6194 65.5913 22.9732C65.5913 26.9834 65.6096 27.2205 65.9517 27.6552C66.2155 27.9909 66.4711 28.1133 66.9077 28.1133C67.8255 28.1133 68.1979 27.6259 68.2027 26.4185L68.2066 25.4189L69.4352 26.7661C70.503 27.9368 70.7406 28.1133 71.2498 28.1133C71.6285 28.1133 71.9609 27.9789 72.19 27.7328C72.789 27.0898 72.6446 26.5127 71.5656 25.2411L70.587 24.0874L71.2405 23.5487C73.3637 21.7986 72.752 18.5861 70.1284 17.7076C69.4322 17.4745 66.8931 17.4627 66.3275 17.69ZM74.3618 17.9365C73.4452 18.8531 74.0859 20.1172 75.4672 20.1172H76.1948V23.7676C76.1948 27.1863 76.2169 27.44 76.5425 27.7656C76.9816 28.2047 77.7728 28.2118 78.3049 27.7813C78.7094 27.4541 78.716 27.3964 78.7685 23.7832L78.8217 20.1172H79.5073C80.382 20.1172 80.8882 19.6439 80.8882 18.8262C80.8882 18.3895 80.7658 18.134 80.4301 17.8701C80.0133 17.5421 79.7392 17.5098 77.3803 17.5098C74.8602 17.5098 74.7766 17.5216 74.3618 17.9365ZM11.3569 20.4648C11.7753 20.8832 11.7917 21.1323 11.4339 21.6429C11.2321 21.9311 10.9893 22.0293 10.4779 22.0293H9.79247V21.0732V20.1172H10.4009C10.7776 20.1172 11.1417 20.2496 11.3569 20.4648ZM48.3823 20.4648C49.0877 21.1702 48.5956 22.0293 47.4862 22.0293H46.8179V21.0732V20.1172H47.4263C47.803 20.1172 48.1671 20.2496 48.3823 20.4648ZM59.8313 20.5921C61.4952 21.8244 61.486 24.1392 59.8131 25.1591C59.2141 25.5245 58.0779 25.615 57.3892 25.3525C56.311 24.9414 55.5327 23.494 55.7544 22.3119C56.0895 20.526 58.4166 19.5443 59.8313 20.5921ZM69.6639 20.3903C70.2848 21.0114 69.8671 21.6816 68.8593 21.6816H68.1987V20.8994C68.1987 20.1245 68.2043 20.1172 68.7948 20.1172C69.1225 20.1172 69.5136 20.2401 69.6639 20.3903ZM19.6384 23.5402C19.5945 23.584 19.3619 23.5944 19.1213 23.5633C18.6887 23.5074 18.6869 23.5004 18.952 22.8984L19.2199 22.29L19.469 22.8751C19.6061 23.1971 19.6823 23.4962 19.6384 23.5402ZM43.3971 50.2223C42.5612 50.6265 42.5142 52.0065 43.3215 52.4386C43.5575 52.565 48.9547 52.623 60.4599 52.623H77.2536L77.6802 52.1963C78.2241 51.6526 78.2241 50.9861 77.6802 50.4424L77.2536 50.0156L60.5147 50.0274C49.1691 50.0354 43.6538 50.0982 43.3971 50.2223ZM43.3971 58.0446C42.5612 58.4487 42.5142 59.8287 43.3215 60.2609C43.5575 60.3873 48.9547 60.4453 60.4599 60.4453H77.2536L77.6802 60.0186C78.2241 59.4748 78.2241 58.8084 77.6802 58.2646L77.2536 57.8379L60.5147 57.8497C49.1691 57.8577 43.6538 57.9205 43.3971 58.0446ZM43.3971 65.8668C42.5612 66.271 42.5142 67.651 43.3215 68.0831C43.5575 68.2095 48.9547 68.2676 60.4599 68.2676H77.2536L77.6802 67.8408C78.2241 67.2971 78.2241 66.6306 77.6802 66.0869L77.2536 65.6602L60.5147 65.672C49.1691 65.68 43.6538 65.7427 43.3971 65.8668ZM53.5103 71.3974C52.0748 71.8453 50.7646 73.7804 50.7683 75.447C50.7706 76.4876 51.1634 77.5403 51.7954 78.2001C52.0372 78.4525 52.1601 78.7054 52.0683 78.7621C51.7275 78.9728 49.6605 79.3875 48.9386 79.39C47.225 79.3959 46.3736 80.6634 47.4217 81.648C47.8247 82.0266 47.9479 82.0457 49.3773 81.9501C50.9308 81.8465 52.8064 81.3614 53.9984 80.7549L54.6605 80.4182L55.9974 80.933C59.6149 82.3259 63.597 82.3657 65.5819 81.0286C65.9216 80.7997 66.4439 80.1762 66.7424 79.6429L67.2851 78.6735L67.8245 79.5501C68.4393 80.5492 69.0326 80.8155 69.7489 80.4135C70.5251 79.9777 70.6094 79.3363 70.0345 78.2382C69.7595 77.7129 69.1923 76.9025 68.7739 76.4373C67.0965 74.5716 65.4992 74.9824 64.7759 77.4655C64.3178 79.0381 63.9356 79.2892 61.8851 79.3637C60.3596 79.4192 58.779 79.181 57.5373 78.7086L57.0449 78.521L57.5022 77.9776C59.0137 76.1813 59.0321 74.0769 57.5495 72.5943C56.4951 71.5399 54.73 71.0168 53.5103 71.3974ZM55.4959 74.2801C56.2679 74.9297 56.2166 75.5484 55.3087 76.5335L54.5864 77.3169L54.1565 76.9206C53.2384 76.0744 53.1292 75.0674 53.869 74.269C54.3862 73.711 54.8232 73.714 55.4959 74.2801Z" fill="#E6E6E6"/>
<path fill-rule="evenodd" clip-rule="evenodd" d="M13.0427 51.2879C11.1932 51.9367 9.9498 53.1481 9.30159 54.9326C9.03702 55.6608 9.00417 56.6714 9.00035 64.1808C8.99548 73.8016 9.02381 74.0723 10.3023 76.6623C11.6265 79.3454 13.9261 81.358 16.841 82.3851C18.5571 82.9897 21.2439 83.1247 23.1449 82.7018C27.3806 81.7595 30.9114 78.2478 31.8422 74.052C32.0847 72.9584 32.1162 71.5732 32.0727 63.92L32.0223 55.0548L31.5598 54.1787C30.9973 53.1128 29.7589 51.9388 28.6633 51.4324C27.8786 51.0698 27.6095 51.0554 20.8973 51.0143C14.5545 50.9756 13.8651 50.9996 13.0427 51.2879ZM27.6766 53.9058C28.4811 54.2771 29.0528 54.8483 29.3163 55.5441C29.4926 56.0091 29.5922 62.0948 29.4236 62.0948C29.3807 62.0948 28.6179 61.7792 27.7288 61.3934C24.0313 59.7894 23.3825 59.7845 16.8661 61.3126C14.2159 61.934 11.9464 62.4425 11.8226 62.4425C11.6465 62.4425 11.5984 61.7526 11.6013 59.2701C11.6046 56.5528 11.6516 55.9956 11.9287 55.3852C12.2471 54.684 12.904 54.0855 13.7087 53.7633C13.9381 53.6713 16.9445 53.5962 20.5497 53.592C26.4447 53.5854 27.0394 53.6117 27.6766 53.9058ZM27.0682 63.939L29.4149 64.9674L29.4618 68.8635C29.4999 72.0291 29.4563 72.9398 29.2296 73.7194C28.2967 76.929 25.9383 79.2767 22.8094 80.1109C21.6236 80.4271 19.339 80.4066 18.1912 80.0695C15.0065 79.134 12.434 76.3965 11.7872 73.2548C11.6829 72.7481 11.5975 70.7353 11.5975 68.782C11.5975 65.2434 11.5989 65.23 11.9886 65.1337C19.5489 63.2659 21.8198 62.8068 23.244 62.8578C24.6122 62.9066 24.8954 62.9868 27.0682 63.939ZM14.7264 66.962C14.4306 67.2579 14.3788 67.5414 14.3788 68.8674C14.3788 70.246 14.4226 70.4659 14.7593 70.7795C15.5036 71.473 16.6497 71.0607 16.9147 70.004C16.9761 69.7601 16.9931 69.0436 16.953 68.4119C16.8932 67.4741 16.8063 67.2036 16.4791 66.9387C15.9559 66.5151 15.1629 66.5255 14.7264 66.962ZM24.6346 66.962C24.3395 67.2572 24.287 67.5414 24.287 68.8439C24.287 70.2227 24.3276 70.4162 24.6892 70.756C25.1858 71.2224 25.8552 71.2403 26.3971 70.8015C26.7581 70.5093 26.8146 70.2948 26.8669 69.0198C26.9191 67.7444 26.8812 67.5131 26.55 67.0924C26.0826 66.4984 25.161 66.4357 24.6346 66.962Z" fill="#A6A4A4"/>
<path fill-rule="evenodd" clip-rule="evenodd" d="M23.8759 76.5557C24.302 76.1297 24.3486 75.3803 23.9816 74.8566C23.1552 73.6768 19.1132 73.6472 18.0579 74.8133C17.6557 75.2579 17.6663 76.0937 18.0803 76.5512C18.3588 76.8589 18.5316 76.8976 19.1958 76.8006C20.221 76.6512 21.8814 76.6513 22.7895 76.801C23.3887 76.8997 23.5736 76.858 23.8759 76.5557Z" fill="#A6A4A4"/>
</svg>
