<svg width="278" height="278" viewBox="0 0 278 278" fill="none" xmlns="http://www.w3.org/2000/svg">
<path fill-rule="evenodd" clip-rule="evenodd" d="M183.615 0.164494C181.132 0.60313 179.897 2.5973 177.656 9.79127C174.91 18.6069 174.966 18.5872 165.697 14.0053C160.22 11.2981 158.581 10.7266 157.252 11.0602C155.086 11.6033 146.173 20.5129 145.63 22.6782C145.297 24.0075 145.868 25.646 148.576 31.1214C153.154 40.3774 153.176 40.3136 144.363 43.0835C140.241 44.3791 136.976 45.7681 136.098 46.5995C134.696 47.9276 134.647 48.2258 134.647 55.49C134.647 62.7542 134.696 63.0524 136.098 64.3805C136.976 65.2119 140.241 66.601 144.363 67.8966C153.176 70.6665 153.154 70.6026 148.576 79.8587C145.868 85.3341 145.297 86.9726 145.63 88.3018C146.173 90.4671 155.086 99.3768 157.252 99.9199C158.581 100.253 160.22 99.682 165.697 96.9747C174.968 92.3923 174.911 92.3725 177.65 101.189C178.972 105.449 180.287 108.542 181.159 109.449C182.507 110.85 182.813 110.9 190.073 110.9C197.334 110.9 197.639 110.85 198.987 109.449C199.858 108.543 201.172 105.457 202.485 101.226C205.216 92.4311 205.286 92.4073 214.576 97.0304C219.953 99.7063 221.542 100.259 222.885 99.9228C225.06 99.3768 233.971 90.4741 234.516 88.3018C234.85 86.9726 234.278 85.3341 231.57 79.8587C226.986 70.591 226.966 70.6473 235.785 67.9099C240.046 66.5876 243.14 65.2735 244.048 64.4014C245.449 63.0542 245.499 62.7484 245.499 55.49C245.499 48.2316 245.449 47.9259 244.048 46.5786C243.14 45.7066 240.046 44.3924 235.785 43.0701C226.966 40.3327 226.986 40.389 231.57 31.1214C234.278 25.646 234.85 24.0075 234.516 22.6782C233.973 20.5129 225.06 11.6033 222.894 11.0602C221.565 10.7266 219.926 11.2981 214.449 14.0053C205.179 18.5878 205.235 18.6075 202.497 9.79127C199.585 0.415723 199.347 0.206268 191.41 0.0327865C187.962 -0.0426402 184.454 0.0165415 183.615 0.164494ZM194.412 15.6612C195.543 19.2846 196.923 22.6486 197.479 23.1372C198.58 24.1055 206.739 27.6401 207.874 27.6401C208.26 27.6401 211.367 26.1769 214.778 24.3887L220.98 21.1366L222.708 22.8645L224.437 24.5923L221.184 30.7924C219.395 34.2023 217.931 37.3081 217.931 37.6939C217.931 38.8114 221.459 46.9778 222.408 48.057C222.882 48.5954 226.247 49.974 229.886 51.1199L236.503 53.2028V55.49V57.7772L229.886 59.8601C226.247 61.006 222.882 62.3846 222.408 62.923C221.459 64.0022 217.931 72.1686 217.931 73.2861C217.931 73.6719 219.395 76.7778 221.184 80.1876L224.437 86.3877L222.708 88.1156L220.98 89.8434L214.778 86.5914C211.367 84.8032 208.26 83.3399 207.874 83.3399C206.739 83.3399 198.58 86.8745 197.479 87.8429C196.923 88.3314 195.543 91.6954 194.412 95.3188L192.355 101.906H190.073H187.792L185.734 95.3188C184.603 91.6954 183.223 88.3314 182.667 87.8429C181.587 86.8925 173.416 83.3399 172.311 83.3399C171.947 83.3399 168.842 84.8049 165.412 86.5954L159.174 89.8515L157.442 88.1196L155.71 86.3877L158.963 80.1876C160.751 76.7778 162.215 73.6719 162.215 73.2861C162.215 72.1512 158.679 63.9941 157.711 62.8934C157.222 62.3382 153.857 60.9585 150.233 59.8276L143.643 57.7708V55.49V53.2092L150.233 51.1524C153.857 50.0216 157.222 48.6418 157.711 48.0866C158.679 46.9859 162.215 38.8288 162.215 37.6939C162.215 37.3081 160.751 34.2023 158.963 30.7924L155.71 24.5923L157.442 22.8604L159.174 21.1285L165.412 24.3846C168.842 26.1751 171.947 27.6401 172.311 27.6401C173.416 27.6401 181.587 24.0875 182.667 23.1372C183.223 22.6486 184.603 19.2846 185.734 15.6612L187.792 9.07355H190.073H192.355L194.412 15.6612ZM247.536 10.1127C246.467 10.9778 245.84 13.2058 243.779 23.4719C242.419 30.2487 241.465 35.882 241.661 35.991C242.392 36.3989 249.914 37.6348 250.161 37.3876C250.303 37.2466 250.912 34.7221 251.516 31.7782C252.12 28.8342 252.751 26.2894 252.917 26.1229C253.342 25.6988 256.496 34.1361 257.606 38.6641C262.412 58.2767 258.717 78.4435 247.251 95.1883C245.768 97.353 244.637 99.1818 244.736 99.2515C244.837 99.3211 246.447 100.602 248.314 102.097L251.71 104.816L252.735 103.506C259.431 94.951 265.149 82.1696 267.596 70.2853C268.899 63.9558 269.102 48.6337 267.965 42.4354C267.055 37.4804 264.193 28.0254 262.322 23.7963C261.43 21.7789 261.188 20.6858 261.636 20.7003C262.018 20.7131 264.62 21.2022 267.42 21.787C270.219 22.3719 272.6 22.6881 272.711 22.4891C273.129 21.74 274.358 14.2316 274.103 13.9775C273.766 13.6398 251.145 9.07355 249.812 9.07355C249.266 9.07355 248.242 9.5412 247.536 10.1127ZM182.658 33.3923C180.973 34.016 178.726 35.0645 177.663 35.7212C174.586 37.622 170.393 42.4766 168.716 46.0791C167.353 49.0091 167.171 50.1115 167.171 55.49C167.171 60.8766 167.351 61.9686 168.725 64.9201C170.878 69.5472 175.33 74.0688 180.078 76.4505C183.77 78.302 184.306 78.407 190.073 78.4029C195.749 78.3989 196.429 78.2706 199.982 76.537C204.655 74.2568 209.261 69.5739 211.409 64.9201C212.766 61.979 212.949 60.8575 212.949 55.49C212.949 50.1225 212.766 49.001 211.409 46.0599C209.248 41.3765 204.652 36.7157 199.982 34.4703C194.978 32.0642 187.497 31.5989 182.658 33.3923ZM194.896 42.4876C199.799 44.158 204.002 50.1591 204.002 55.49C204.002 62.6793 197.265 69.415 190.073 69.415C182.882 69.415 176.144 62.6793 176.144 55.49C176.144 51.8434 177.472 48.9012 180.477 45.8905C184.694 41.6666 189.296 40.5799 194.896 42.4876ZM97.2141 55.779L94.0627 58.9695L96.9216 61.8711L99.7811 64.7733H93.3349C65.5151 64.7733 38.2259 74.309 16.835 91.5046C11.3922 95.8799 0.290188 106.917 0.290188 107.952C0.290188 108.347 1.7893 109.883 3.62096 111.367L6.95232 114.065L11.185 109.467C13.5129 106.938 17.8251 102.849 20.767 100.379C41.1701 83.2598 66.6434 74.0566 93.6251 74.0566H99.7811L96.9152 76.9652L94.0493 79.8743L97.3842 83.2024L100.719 86.531L108.252 78.9448C118.179 68.9473 118.171 69.8948 108.414 60.0365C104.36 55.9403 100.89 52.589 100.704 52.589C100.518 52.589 98.9471 54.0244 97.2141 55.779ZM85.2415 93.0009C82.5074 93.4007 81.2195 95.2724 80.1133 100.456C79.5689 103.009 78.7384 106.836 78.2677 108.96L77.4117 112.822L73.2852 113.833L69.1587 114.844L67.1263 112.582C58.5657 103.051 56.741 101.326 55.2175 101.326C52.3818 101.326 39.8167 108.327 38.6112 110.579C37.6165 112.437 37.9049 114.103 40.631 122.227L43.2467 130.025L40.1846 133.086L37.1226 136.147L29.3223 133.532C21.1959 130.807 19.5296 130.519 17.6707 131.513C15.4183 132.718 8.41545 145.28 8.41545 148.115C8.41545 149.638 10.1409 151.462 19.6742 160.02L21.937 162.052L20.9272 166.171L19.9173 170.291L14.8919 171.441C12.1281 172.073 8.25062 172.905 6.27618 173.289C3.82874 173.766 2.25824 174.443 1.34299 175.417C0.0638409 176.779 0 177.255 0 185.456C0 193.657 0.0638409 194.134 1.34299 195.495C2.25824 196.469 3.82874 197.146 6.27618 197.623C8.25062 198.007 12.1281 198.839 14.8919 199.472L19.9173 200.621L20.9272 204.741L21.937 208.86L19.6742 210.892C10.1409 219.45 8.41545 221.275 8.41545 222.798C8.41545 225.632 15.4183 238.194 17.6707 239.399C19.5296 240.393 21.1959 240.105 29.3223 237.38L37.1226 234.765L40.1846 237.826L43.2467 240.887L40.631 248.685C37.9223 256.757 37.6188 258.479 38.584 260.282C39.7592 262.477 52.466 269.586 55.2152 269.586C56.7433 269.586 58.5367 267.891 67.1715 258.281L69.2481 255.97L73.2191 257.027C75.403 257.608 77.259 258.151 77.3438 258.235C77.4285 258.318 78.3043 262.146 79.2898 266.742C81.7784 278.342 81.3739 277.999 92.5363 277.999C103.224 277.999 103.457 277.86 104.994 270.591C105.549 267.964 106.392 264.076 106.866 261.952L107.728 258.09L111.855 257.079L115.981 256.068L118.014 258.331C126.683 267.983 128.388 269.586 129.981 269.586C132.04 269.586 142.662 264.072 145.201 261.685C147.749 259.29 147.689 258.162 144.509 248.685L141.893 240.887L144.955 237.826L148.017 234.765L155.818 237.38C163.944 240.105 165.61 240.393 167.469 239.399C169.722 238.194 176.724 225.632 176.724 222.798C176.724 221.275 174.999 219.45 165.466 210.892L163.203 208.86L164.214 204.735L165.225 200.61L169.088 199.748C171.213 199.274 175.102 198.432 177.73 197.877C184.998 196.341 185.14 196.102 185.14 185.456C185.14 174.81 184.998 174.571 177.73 173.036C175.102 172.48 171.213 171.638 169.088 171.164L165.225 170.302L164.214 166.177L163.203 162.052L165.466 160.02C174.999 151.462 176.724 149.638 176.724 148.115C176.724 145.28 169.722 132.718 167.469 131.513C165.61 130.519 163.944 130.807 155.818 133.532L148.017 136.147L144.955 133.086L141.893 130.025L144.509 122.227C147.689 112.751 147.749 111.623 145.201 109.228C142.662 106.841 132.04 101.326 129.981 101.326C128.388 101.326 126.683 102.929 118.014 112.582L115.981 114.844L111.855 113.833L107.728 112.822L106.866 108.96C106.392 106.836 105.549 102.949 104.994 100.321C103.522 93.3583 103.092 93.063 94.1793 92.8814C90.2618 92.8013 86.2398 92.8553 85.2415 93.0009ZM225.694 116.429C223.316 117.161 222.985 117.631 221.118 122.916C219.698 126.938 219.341 127.455 217.59 128.033C215.848 128.607 215.143 128.45 210.939 126.552C206.782 124.677 206.045 124.509 204.588 125.112C202.574 125.946 195.04 133.612 194.473 135.405C194.188 136.307 194.704 138.122 196.171 141.368C198.058 145.548 198.211 146.238 197.631 147.995C197.043 149.774 196.549 150.108 192.293 151.605C186.072 153.793 185.72 154.363 185.72 162.248C185.72 170.164 186.082 170.749 192.3 172.913C196.607 174.412 197.038 174.707 197.656 176.577C198.269 178.433 198.139 179.009 196.168 183.21C194.238 187.319 194.082 187.988 194.702 189.484C195.545 191.519 203.203 199.053 205.009 199.624C205.912 199.909 207.728 199.393 210.974 197.927C215.154 196.04 215.846 195.888 217.601 196.467C219.381 197.054 219.71 197.542 221.192 201.796C223.356 208.013 223.942 208.374 231.86 208.374C239.778 208.374 240.364 208.013 242.529 201.796C244.028 197.491 244.323 197.06 246.193 196.442C248.049 195.83 248.626 195.958 252.79 197.912C256.05 199.441 257.733 199.933 258.681 199.633C260.51 199.056 268.168 191.537 269.018 189.484C269.638 187.988 269.482 187.319 267.553 183.21C265.581 179.009 265.452 178.433 266.065 176.577C266.682 174.707 267.113 174.412 271.42 172.913C277.638 170.749 278 170.164 278 162.248C278 154.332 277.638 153.747 271.42 151.583C267.113 150.084 266.682 149.789 266.065 147.919C265.452 146.062 265.581 145.486 267.553 141.286C270.192 135.664 270.045 135.094 264.533 129.585C259.022 124.074 258.452 123.928 252.828 126.566C248.627 128.537 248.05 128.666 246.193 128.053C244.323 127.436 244.028 127.005 242.529 122.699C241.424 119.527 240.443 117.718 239.487 117.092C237.818 115.999 228.541 115.553 225.694 116.429ZM234.759 128.876C236.416 133.855 237.341 134.87 241.767 136.569C247.6 138.807 248.722 138.826 253.137 136.76C256.963 134.971 257.054 134.957 258.134 136.038C259.216 137.119 259.203 137.203 257.44 140.696C255.148 145.233 255.112 146.054 257 150.743C257.856 152.871 258.557 154.876 258.557 155.197C258.557 156.28 261.498 158.105 265.263 159.357C268.693 160.498 269.004 160.739 269.004 162.248C269.004 163.758 268.693 163.997 265.242 165.145C260.263 166.802 259.247 167.726 257.542 172.152C255.289 177.995 255.27 179.503 257.393 183.708C259.218 187.323 259.225 187.367 258.106 188.486C256.987 189.605 256.944 189.599 253.419 187.82C248.88 185.529 248.059 185.493 243.368 187.38C241.24 188.236 239.234 188.937 238.913 188.937C237.829 188.937 236.005 191.877 234.752 195.641C233.611 199.069 233.37 199.381 231.86 199.381C230.35 199.381 230.11 199.07 228.962 195.62C227.305 190.643 226.381 189.627 221.953 187.922C216.108 185.67 214.6 185.65 210.394 187.773C206.777 189.598 206.733 189.605 205.614 188.486C204.495 187.367 204.501 187.324 206.281 183.8C208.572 179.263 208.608 178.442 206.721 173.753C205.864 171.625 205.163 169.62 205.163 169.299C205.163 168.241 202.332 166.462 198.493 165.107C195.09 163.906 194.716 163.617 194.716 162.188C194.716 160.752 195.072 160.483 198.479 159.35C200.548 158.662 202.761 157.661 203.397 157.127C204.805 155.944 208.06 148.071 208.063 145.84C208.064 144.954 207.259 142.633 206.275 140.683C204.501 137.171 204.495 137.128 205.614 136.01C206.733 134.891 206.776 134.897 210.289 136.67C212.24 137.654 214.561 138.458 215.448 138.458C217.679 138.455 225.554 135.201 226.738 133.793C227.272 133.158 228.273 130.945 228.962 128.876C230.11 125.426 230.35 125.115 231.86 125.115C233.37 125.115 233.61 125.426 234.759 128.876ZM104.855 145.573C111.704 147.783 116.668 150.845 121.93 156.105C127.16 161.333 130.208 166.254 132.504 173.175C133.793 177.059 133.98 178.617 133.979 185.456C133.978 192.37 133.798 193.833 132.441 197.931C130.235 204.596 127.184 209.456 121.881 214.758C116.577 220.06 111.715 223.11 105.048 225.316C100.949 226.672 99.4863 226.852 92.5699 226.853C85.7285 226.854 84.1707 226.668 80.2851 225.379C73.3624 223.084 68.4397 220.036 63.2099 214.808C57.9877 209.587 54.943 204.677 52.6256 197.737C51.3244 193.842 51.1398 192.315 51.1398 185.456C51.1398 178.598 51.3244 177.07 52.6256 173.175C54.943 166.236 57.9877 161.325 63.2099 156.105C72.0647 147.253 81.5799 143.489 94.0209 143.917C98.7654 144.081 101.548 144.506 104.855 145.573ZM224.916 144.959C220.575 146.625 216.184 151.073 214.538 155.471C209.923 167.803 218.815 180.814 231.86 180.814C242.101 180.814 250.432 172.486 250.432 162.248C250.432 149.175 237.233 140.232 224.916 144.959ZM235.533 153.756C241.496 156.247 242.95 164.062 238.313 168.699C231.792 175.217 221.107 169.379 222.823 160.234C223.848 154.772 230.207 151.531 235.533 153.756Z" fill="#959697"/>
</svg>
