<svg width="167" height="184" viewBox="0 0 167 184" fill="none" xmlns="http://www.w3.org/2000/svg">
<rect x="4.23025" y="55.833" width="100.977" height="141.376" rx="4" transform="rotate(-29.9941 4.23025 55.833)" fill="white" stroke="#E6E6E6" stroke-width="2"/>
<g filter="url(#filter0_f_221_1700)">
<rect x="24.8503" y="72.959" width="77.6289" height="7.12918" rx="2" transform="rotate(-29.9941 24.8503 72.959)" fill="#959697"/>
</g>
<g filter="url(#filter1_f_221_1700)">
<rect x="31.5823" y="84.6211" width="51.4886" height="7.12918" rx="2" transform="rotate(-29.9941 31.5823 84.6211)" fill="#959697"/>
</g>
<g filter="url(#filter2_f_221_1700)">
<rect x="65.6382" y="143.622" width="30.8931" height="7.12918" rx="2" transform="rotate(-29.9941 65.6382 143.622)" fill="#959697"/>
</g>
<path fill-rule="evenodd" clip-rule="evenodd" d="M109.816 85.3831C110.671 85.6464 111.559 86.2225 111.819 86.6821C112.191 87.3396 112.061 87.3056 111.184 86.5159C109.797 85.2682 108.452 85.2981 106.201 86.6277C102.829 88.619 99.9527 93.1049 99.6476 96.8489L99.5196 98.418L100.362 98.2256C101.13 98.0504 101.129 98.0822 100.352 98.5869C99.1436 99.3729 98.8791 98.6044 99.4666 96.0137C100.559 91.1985 102.354 88.5224 105.971 86.3175C108.117 85.0092 108.388 84.9434 109.816 85.3831ZM104.666 92.3941C104.679 92.7125 104.569 94.6454 104.421 96.6898C104.273 98.7342 104.337 101.206 104.564 102.183C105.276 105.249 104.899 109.665 104.048 108.233C103.79 107.799 103.586 104.002 103.687 101.51C103.752 99.9076 103.151 98.8659 101.823 98.2756C101.322 98.0532 101.307 97.9644 101.756 97.8786C102.074 97.8176 102.583 98.0829 102.888 98.4681C103.192 98.8539 103.547 99.1067 103.675 99.0305C103.803 98.9545 104.011 97.3366 104.137 95.4355C104.344 92.334 104.602 90.8479 104.666 92.3941ZM112.126 92.3341C111.438 95.2177 109.354 98.5515 107.664 99.4708C107.297 99.6704 107.689 99.0486 108.536 98.0896C110.737 95.5958 111.792 93.544 112.054 91.2452C112.179 90.1422 112.404 89.2788 112.553 89.3265C112.701 89.3738 112.509 90.7273 112.126 92.3341ZM115.918 94.9266C116.636 95.7476 116.733 96.1609 116.468 97.2689C116.058 98.9834 115.411 100.116 114.546 100.63C113.423 101.297 113.51 100.102 114.672 98.8951C116.034 97.4809 116.346 96.422 115.713 95.3574C114.547 93.3962 113.097 95.3095 112.409 99.7176C112.163 101.298 112.124 103.092 112.324 103.705C112.745 104.998 113.222 110.794 113.049 112.51C112.96 113.389 112.779 113.639 112.328 113.504C111.617 113.292 111.454 112.191 111.476 107.747L111.49 104.831L108.899 103.738C107.473 103.137 106.133 102.353 105.921 101.996C105.547 101.367 105.881 100.533 106.669 100.126C106.88 100.017 106.817 100.261 106.528 100.669C105.765 101.746 106.301 102.309 109.013 103.28C111.17 104.052 111.446 104.057 111.603 103.327C111.7 102.877 111.613 101.755 111.41 100.833C111.195 99.8533 111.222 99.4381 111.475 99.8342C111.877 100.463 111.91 100.431 111.941 99.3892C111.985 97.8442 113.534 94.5284 114.365 94.1994C114.819 94.0198 115.338 94.2624 115.918 94.9266ZM119.245 92.6329C119.363 92.8309 119.591 94.2109 119.752 95.6992C119.913 97.1875 120.181 98.4472 120.349 98.4987C120.515 98.5503 121.283 97.842 122.054 96.9248C122.826 96.0075 123.556 95.288 123.677 95.3252C123.798 95.3624 123.206 96.1934 122.362 97.1724C120.3 99.5631 119.872 99.3707 119.404 95.845C119.201 94.3148 118.883 92.9748 118.697 92.8672C118.511 92.7597 118.51 92.5818 118.695 92.472C118.88 92.3623 119.127 92.4346 119.245 92.6329ZM111.03 98.5411C111.095 98.8805 110.97 98.8422 110.712 98.443C110.479 98.0818 110.431 97.8305 110.605 97.8842C110.78 97.938 110.971 98.2336 111.03 98.5411ZM103.968 103.713C104.026 106.713 104.152 107.901 104.365 107.444C104.694 106.737 104.599 103.249 104.242 102.922C104.08 102.774 103.957 103.13 103.968 103.713ZM114.294 99.8311L113.839 100.509L114.485 100.151C114.84 99.9548 115.254 99.5134 115.404 99.171C115.648 98.6176 115.627 98.5822 115.214 98.8508C114.958 99.0169 114.544 99.4579 114.294 99.8311ZM126.369 94.2448C126.686 94.8833 128.419 94.1426 131.378 92.1037C132.13 91.5852 132.711 91.3329 132.669 91.5436C132.626 91.7538 131.108 92.8355 129.296 93.9471C126.124 95.8926 126.006 95.9324 126.144 95.0169C126.269 94.1911 126.199 94.055 125.613 93.9852C125.028 93.9154 125.013 93.8875 125.505 93.7737C125.816 93.7019 126.205 93.9135 126.369 94.2448ZM134.041 90.2745C134.005 90.4535 133.739 90.6288 133.45 90.6636C133.131 90.7023 133.156 90.5745 133.516 90.338C133.841 90.1242 134.078 90.0956 134.041 90.2745ZM111.84 107.867C111.866 111.921 111.964 113.093 112.284 113.191C112.689 113.316 112.761 110.238 112.424 107.227C112.254 105.698 112.047 104.487 111.966 104.535C111.885 104.583 111.828 106.083 111.84 107.867Z" fill="#959697"/>
<g filter="url(#filter3_f_221_1700)">
<mask id="mask0_221_1700" style="mask-type:alpha" maskUnits="userSpaceOnUse" x="84" y="14" width="8" height="7">
<path d="M88.4976 14.4092L88.5453 18.4177L91.917 16.5017L88.4976 14.4092Z" fill="#C4C4C4"/>
<path d="M88.2457 14.3395L88.3847 18.5086L84.5314 20.6984L84.1515 16.6661L88.2457 14.3395Z" fill="#C4C4C4"/>
</mask>
<g mask="url(#mask0_221_1700)">
<path fill-rule="evenodd" clip-rule="evenodd" d="M84.8824 17.9552C84.883 18.8924 84.8801 19.8491 84.876 20.0814L84.8524 20.5159L85.334 20.2422L85.7354 20.0141L85.7155 17.8945L85.7084 15.7813L85.2948 16.0163L84.8811 16.2515L84.8824 17.9552ZM86.0689 17.2673C86.0714 18.1959 86.0689 19.1525 86.0634 19.393L86.0565 19.8316L86.4831 19.5892L86.9396 19.3298L86.9022 17.2209L86.8961 15.1064L86.4802 15.3427L86.0643 15.5791L86.0689 17.2673ZM87.3246 16.1814C87.3264 16.9057 87.3231 17.8369 87.3175 18.2507C87.3118 18.6645 87.3257 19.0747 87.341 19.1017C87.341 19.1017 87.5015 19.0104 87.7424 18.8736L88.1437 18.6455L88.1519 16.6439C88.1552 15.5808 88.095 14.5135 88.085 14.4307C88.085 14.4307 88.0027 14.4775 87.7214 14.6374L87.3215 14.8646L87.3246 16.1814ZM88.3588 14.9124L88.3807 15.3247L89.7857 16.1703L91.2856 17.0724L91.6413 16.7641C91.8895 16.6458 92.0926 16.5775 92.0427 16.536C91.8015 16.3351 88.4693 14.4276 88.4171 14.4544C88.3839 14.4716 88.3364 14.6572 88.3588 14.9124ZM88.4756 16.4434L88.4548 16.9169L89.1043 17.3222C89.8752 17.7677 90.0119 17.9668 90.4301 17.7291L90.603 17.2449L89.7498 16.7328C89.2805 16.4511 88.5237 16.0122 88.4136 15.9433C88.2327 15.8298 88.4943 16.0153 88.4756 16.4434ZM88.4984 17.8942C88.507 18.0838 88.5422 18.3659 88.5451 18.4174C88.5451 18.4174 88.7266 18.3142 88.9465 18.1893L89.3479 17.9612L88.9273 17.7469C88.7089 17.6235 88.5193 17.5285 88.5063 17.536C88.4932 17.5434 88.4897 17.7046 88.4984 17.8942ZM85.1991 20.9912C85.3459 21.067 86.1238 21.5284 86.928 22.0164L88.3901 22.9039L88.4067 22.4021C88.4208 21.9714 88.3892 21.8824 88.1834 21.7754C88.0515 21.7068 87.4632 21.3591 86.8763 21.0029L85.809 20.3552L85.3706 20.6043C84.9397 20.8492 84.9368 20.8558 85.1991 20.9912ZM86.3542 20.0846C86.367 20.107 86.8389 20.4019 87.403 20.7398L88.4284 21.354L88.3985 20.8517L88.3685 20.3495L87.7864 19.988C87.2366 19.6467 87.1801 19.6382 86.7677 19.8352C86.5274 19.9499 86.3415 20.0621 86.3542 20.0846ZM87.9587 19.5516C88.1474 19.6744 88.3234 19.7823 88.35 19.7915C88.4013 19.8089 88.3945 19.0775 88.3426 18.9861C88.3259 18.9567 88.1555 19.0217 87.9641 19.1305L87.616 19.3283L87.9587 19.5516ZM88.7561 19.999C88.7568 20.7239 88.7569 21.679 88.7564 22.1214L88.7552 22.926L89.1732 22.6866L89.591 22.4471L89.587 20.3289L89.583 18.2105L89.1689 18.4458L88.7547 18.6812L88.7561 19.999ZM89.9445 19.4523C89.9489 20.2458 89.9484 21.2011 89.9434 21.5755L89.9343 22.256L90.3584 22.015L90.7825 21.774L90.7745 20.3313C90.7701 19.5379 90.7706 18.5825 90.7756 18.2081L90.7847 17.5276L90.3606 17.7686L89.9365 18.0096L89.9445 19.4523ZM91.2005 19.3817L91.2018 21.4714L91.5213 21.331C91.6972 21.2538 91.8836 21.1391 91.9359 21.0762C92.02 20.9749 92.0782 17.0545 91.9977 16.9128C91.9801 16.8819 91.7933 16.9544 91.5824 17.0742L91.1992 17.292L91.2005 19.3817Z" fill="#E6E6E6"/>
</g>
<mask id="mask1_221_1700" style="mask-type:alpha" maskUnits="userSpaceOnUse" x="85" y="16" width="8" height="7">
<path d="M88.4543 22.9297L88.4066 18.9211L85.0349 20.8372L88.4543 22.9297Z" fill="#C4C4C4"/>
<path d="M88.7062 22.9994L88.5672 18.8302L92.4205 16.6404L92.8004 20.6727L88.7062 22.9994Z" fill="#C4C4C4"/>
</mask>
<g mask="url(#mask1_221_1700)">
<path fill-rule="evenodd" clip-rule="evenodd" d="M92.069 19.3837C92.0684 18.4465 92.0713 17.4898 92.0754 17.2575L92.0991 16.823L91.6174 17.0967L91.216 17.3248L91.2359 19.4443L91.243 21.5576L91.6566 21.3225L92.0703 21.0874L92.069 19.3837ZM90.8825 20.0716C90.88 19.1429 90.8825 18.1864 90.888 17.9459L90.8949 17.5073L90.4683 17.7497L90.0118 18.0091L90.0492 20.1179L90.0553 22.2325L90.4712 21.9962L90.8871 21.7598L90.8825 20.0716ZM89.6269 21.1574C89.6251 20.4332 89.6283 19.502 89.6339 19.0882C89.6396 18.6744 89.6258 18.2641 89.6104 18.2372C89.6104 18.2372 89.4499 18.3284 89.2091 18.4653L88.8077 18.6934L88.7995 20.695C88.7962 21.7581 88.8564 22.8253 88.8664 22.9082C88.8664 22.9082 88.9487 22.8614 89.23 22.7015L89.6299 22.4742L89.6269 21.1574ZM88.5927 22.4265L88.5707 22.0141L87.1657 21.1685L85.6659 20.2664L85.3101 20.5748C85.062 20.693 84.8589 20.7614 84.9087 20.8029C85.1499 21.0037 88.4821 22.9113 88.5343 22.8845C88.5675 22.8673 88.615 22.6816 88.5927 22.4265ZM88.4758 20.8955L88.4966 20.422L87.8471 20.0167C87.0762 19.5711 86.9395 19.3721 86.5213 19.6098L86.3484 20.094L87.2016 20.606C87.6709 20.8877 88.4277 21.3267 88.5378 21.3956C88.7187 21.5091 88.4571 21.3235 88.4758 20.8955ZM88.453 19.4447C88.4444 19.255 88.4093 18.9729 88.4063 18.9215C88.4063 18.9215 88.2248 19.0246 88.0049 19.1496L87.6035 19.3777L88.0241 19.5919C88.2425 19.7154 88.4321 19.8103 88.4451 19.8029C88.4582 19.7954 88.4617 19.6342 88.453 19.4447ZM91.7523 16.3476C91.6056 16.2719 90.8276 15.8104 90.0234 15.3224L88.5613 14.4349L88.5448 14.9368C88.5306 15.3674 88.5622 15.4565 88.768 15.5635C88.8999 15.6321 89.4882 15.9797 90.0752 16.3359L91.1424 16.9837L91.5808 16.7345C92.0117 16.4897 92.0147 16.4831 91.7523 16.3476ZM90.5972 17.2543C90.5844 17.2318 90.1125 16.937 89.5485 16.5991L88.523 15.9849L88.5529 16.4872L88.583 16.9894L89.165 17.3509C89.7148 17.6922 89.7713 17.7007 90.1837 17.5037C90.424 17.389 90.6099 17.2767 90.5972 17.2543ZM88.9927 17.7872C88.8041 17.6644 88.6281 17.5566 88.6014 17.5474C88.5501 17.53 88.5569 18.2614 88.6088 18.3527C88.6256 18.3822 88.7959 18.3172 88.9874 18.2083L89.3354 18.0105L88.9927 17.7872ZM88.1953 17.3399C88.1946 16.615 88.1945 15.6599 88.1951 15.2175L88.1962 14.4128L87.7782 14.6523L87.3605 14.8917L87.3644 17.01L87.3684 19.1284L87.7825 18.893L88.1967 18.6576L88.1953 17.3399ZM87.0069 17.8866C87.0025 17.0931 87.003 16.1378 87.008 15.7634L87.0171 15.0829L86.593 15.3239L86.1689 15.5649L86.1769 17.0076C86.1813 17.801 86.1808 18.7564 86.1758 19.1308L86.1667 19.8113L86.5908 19.5703L87.0149 19.3293L87.0069 17.8866ZM85.7509 17.9572L85.7496 15.8675L85.4301 16.0079C85.2542 16.0851 85.0678 16.1998 85.0155 16.2627C84.9314 16.364 84.8732 20.2843 84.9538 20.4261C84.9713 20.457 85.1582 20.3844 85.369 20.2646L85.7522 20.0468L85.7509 17.9572Z" fill="#E6E6E6"/>
</g>
</g>
<g filter="url(#filter4_f_221_1700)">
<path d="M74.494 24.9486L74.7386 24.8096C74.7924 24.934 74.8185 25.058 74.8167 25.1814C74.815 25.3048 74.7799 25.4219 74.7114 25.5327C74.6425 25.6426 74.5337 25.7398 74.3851 25.8243C74.2764 25.886 74.1659 25.9219 74.0536 25.9318C73.9422 25.9412 73.8334 25.9266 73.7272 25.8881C73.6206 25.8487 73.52 25.7863 73.4254 25.7008C73.3311 25.614 73.247 25.5056 73.1732 25.3757L73.0683 25.191C72.9944 25.0611 72.9446 24.9339 72.9187 24.8093C72.8932 24.6834 72.8913 24.5643 72.9129 24.4521C72.9353 24.3394 72.9808 24.2366 73.0493 24.1437C73.1179 24.0509 73.2094 23.9719 73.3241 23.9067C73.4641 23.8271 73.5975 23.7861 73.7242 23.7838C73.851 23.7814 73.9676 23.8117 74.0742 23.8747C74.1811 23.9364 74.2757 24.0247 74.3579 24.1397L74.1133 24.2787C74.0522 24.1988 73.988 24.1371 73.9205 24.0935C73.8525 24.049 73.7791 24.0266 73.7004 24.0264C73.6217 24.0262 73.5343 24.0534 73.4384 24.1079C73.356 24.1547 73.2924 24.2117 73.2474 24.2788C73.2033 24.3455 73.1764 24.4197 73.1667 24.5016C73.158 24.5829 73.1659 24.67 73.1905 24.7627C73.2151 24.8554 73.2554 24.951 73.3113 25.0495L73.4177 25.2367C73.4694 25.3276 73.5272 25.4076 73.5912 25.4768C73.6561 25.5455 73.7252 25.5989 73.7985 25.637C73.8718 25.6751 73.9485 25.6944 74.0286 25.695C74.1082 25.6947 74.1891 25.6711 74.2715 25.6243C74.3759 25.565 74.4497 25.5011 74.4929 25.4328C74.536 25.3645 74.5557 25.2904 74.5519 25.2105C74.549 25.1302 74.5297 25.0429 74.494 24.9486ZM74.9485 23.9338L75.6085 25.0953L75.3729 25.2292L74.5898 23.8512L74.8191 23.7209L74.9485 23.9338ZM75.2516 23.4651L75.3748 23.6848C75.3528 23.6917 75.3327 23.6998 75.3144 23.709C75.2965 23.717 75.2765 23.7272 75.2544 23.7398C75.2 23.7707 75.1569 23.8064 75.1249 23.847C75.093 23.8877 75.0713 23.9315 75.0598 23.9784C75.0483 24.0254 75.0461 24.0749 75.0532 24.127C75.0607 24.1778 75.0762 24.2297 75.0996 24.2827L75.055 24.3585C75.0078 24.2753 74.9714 24.1926 74.9461 24.1104C74.9216 24.0278 74.9108 23.9485 74.9138 23.8727C74.9162 23.796 74.9353 23.7268 74.9709 23.665C75.0069 23.6018 75.0623 23.549 75.137 23.5066C75.154 23.4969 75.1747 23.488 75.1992 23.4797C75.2232 23.4705 75.2407 23.4656 75.2516 23.4651ZM76.8176 24.4419C76.7217 24.4964 76.6255 24.5298 76.529 24.5419C76.433 24.5527 76.34 24.5443 76.2502 24.5167C76.1612 24.4886 76.0787 24.4423 76.0027 24.3777C75.9267 24.313 75.8612 24.2323 75.8061 24.1355L75.7757 24.0821C75.7121 23.97 75.6719 23.8608 75.6553 23.7545C75.6383 23.6474 75.6408 23.5471 75.663 23.4537C75.6851 23.3602 75.7233 23.2773 75.7777 23.2049C75.832 23.1324 75.8978 23.0743 75.975 23.0304C76.0735 22.9744 76.1681 22.9431 76.2587 22.9365C76.3502 22.9295 76.4362 22.9435 76.5168 22.9786C76.5969 23.0128 76.6714 23.0648 76.7402 23.1346C76.8086 23.2036 76.8703 23.2865 76.9253 23.3833L76.9854 23.489L75.9564 24.0738L75.8471 23.8815L76.6405 23.4306L76.6304 23.4127C76.5922 23.3535 76.5457 23.3013 76.4909 23.2561C76.4368 23.2105 76.3758 23.1822 76.3079 23.1714C76.24 23.1606 76.1657 23.1781 76.085 23.2239C76.0315 23.2543 75.9888 23.2938 75.9568 23.3423C75.9244 23.3899 75.9046 23.445 75.8974 23.5075C75.8902 23.57 75.8958 23.6381 75.9142 23.7119C75.9325 23.7857 75.9653 23.8642 76.0126 23.9474L76.043 24.0009C76.0802 24.0663 76.1241 24.1228 76.1747 24.1704C76.2257 24.2167 76.2809 24.2516 76.3404 24.2751C76.4006 24.2981 76.4628 24.3077 76.5269 24.3039C76.5918 24.2995 76.6565 24.279 76.7211 24.2424C76.8043 24.1951 76.8651 24.1381 76.9035 24.0713C76.942 24.0045 76.9667 23.9304 76.9777 23.8489L77.1847 23.8812C77.1806 23.9431 77.1671 24.0074 77.1445 24.0742C77.1218 24.141 77.0841 24.2062 77.0315 24.2698C76.9798 24.3329 76.9085 24.3903 76.8176 24.4419ZM78.331 23.1944L77.3713 21.5056L77.6082 21.371L78.7199 23.3272L78.5034 23.4503L78.331 23.1944ZM77.173 23.315L77.1578 23.2883C77.0979 23.183 77.0564 23.0802 77.0331 22.98C77.0102 22.8784 77.005 22.7832 77.0173 22.6942C77.0305 22.6047 77.0607 22.5246 77.1081 22.4538C77.1559 22.3817 77.221 22.3223 77.3033 22.2755C77.3899 22.2263 77.4742 22.1986 77.5561 22.1925C77.6384 22.1851 77.7184 22.1974 77.7962 22.2296C77.8744 22.2604 77.9495 22.3087 78.0217 22.3744C78.0939 22.4401 78.164 22.521 78.2321 22.6171L78.2987 22.7343C78.3467 22.8406 78.3801 22.9418 78.3988 23.0379C78.4183 23.1335 78.4213 23.2228 78.4078 23.3058C78.3951 23.3882 78.3648 23.4633 78.3167 23.531C78.2683 23.5979 78.2003 23.6562 78.1128 23.7059C78.0322 23.7517 77.9484 23.7763 77.8616 23.7796C77.7756 23.7824 77.6905 23.7662 77.6064 23.7308C77.5232 23.695 77.4442 23.6421 77.3697 23.5722C77.2955 23.5009 77.2299 23.4152 77.173 23.315ZM77.3946 23.1536L77.4098 23.1804C77.4489 23.2492 77.4924 23.3098 77.5402 23.3624C77.5889 23.4145 77.6412 23.455 77.6969 23.4839C77.7527 23.5129 77.811 23.5275 77.8718 23.5278C77.9321 23.5272 77.9941 23.5088 78.0578 23.4726C78.1359 23.4282 78.1906 23.3753 78.2219 23.3137C78.254 23.2516 78.2699 23.1847 78.2696 23.113C78.2693 23.0413 78.2595 22.9688 78.2403 22.8955L78.0659 22.5885C78.0292 22.5476 77.9887 22.5111 77.9446 22.4789C77.9008 22.4453 77.854 22.4203 77.8041 22.4037C77.7546 22.3858 77.702 22.3792 77.6463 22.3839C77.5914 22.3881 77.5343 22.4071 77.4748 22.4409C77.4103 22.4775 77.3624 22.5227 77.3312 22.5764C77.3003 22.6288 77.2832 22.6868 77.2801 22.7504C77.2764 22.8131 77.2847 22.8791 77.305 22.9485C77.3257 23.0165 77.3556 23.0849 77.3946 23.1536ZM78.5595 21.5953L79.3426 22.9733L79.1058 23.1079L78.3227 21.7299L78.5595 21.5953ZM78.0971 21.3745C78.0754 21.3363 78.0685 21.2976 78.0765 21.2582C78.0853 21.2184 78.1126 21.1854 78.1585 21.1594C78.2035 21.1338 78.2454 21.1274 78.2841 21.1402C78.3237 21.1526 78.3543 21.1778 78.376 21.216C78.3968 21.2526 78.4023 21.291 78.3927 21.3313C78.3834 21.3703 78.3562 21.4025 78.3112 21.4281C78.2654 21.4542 78.2233 21.4612 78.1851 21.4492C78.1472 21.436 78.1179 21.4111 78.0971 21.3745ZM79.5147 21.0525L79.6175 21.2333L78.8725 21.6567L78.7697 21.4759L79.5147 21.0525ZM78.8315 20.9976L79.0671 20.8638L79.8466 22.2354C79.8731 22.2821 79.9004 22.3132 79.9283 22.3288C79.9562 22.3444 79.9839 22.3494 80.0111 22.3441C80.0384 22.3387 80.0652 22.3285 80.0915 22.3135C80.111 22.3024 80.1304 22.2892 80.1497 22.2737C80.1694 22.2569 80.184 22.2441 80.1936 22.2353L80.3042 22.4269C80.2889 22.4434 80.2674 22.4629 80.2397 22.4854C80.2134 22.5082 80.179 22.5317 80.1365 22.5558C80.0788 22.5887 80.0192 22.6073 79.9578 22.6119C79.8964 22.6165 79.836 22.6003 79.7768 22.5632C79.7179 22.5248 79.6624 22.4597 79.6103 22.368L78.8315 20.9976ZM76.7504 28.7827L76.864 28.9826L75.8821 29.5406L75.7685 29.3407L76.7504 28.7827ZM74.878 27.6581L75.9318 29.5124L75.686 29.6521L74.6322 27.7978L74.878 27.6581ZM76.1334 27.9994L76.247 28.1993L75.395 28.6835L75.2814 28.4836L76.1334 27.9994ZM75.7975 27.1356L75.9119 27.3368L74.9427 27.8876L74.8283 27.6863L75.7975 27.1356ZM76.5088 27.3615L77.0958 27.6917L77.1163 27.0162L77.3927 26.8592L77.3283 27.7955L78.1898 28.2292L77.9172 28.3841L77.305 28.048L77.2805 28.746L77.0067 28.9016L77.0736 27.9402L76.2376 27.5156L76.5088 27.3615ZM78.0297 26.8476L78.9634 28.4905L78.7265 28.6251L77.6423 26.7173L77.8588 26.5943L78.0297 26.8476ZM79.1927 26.7326L79.2079 26.7594C79.2648 26.8596 79.3057 26.9593 79.3307 27.0586C79.3552 27.157 79.3623 27.2506 79.3522 27.3395C79.3429 27.4279 79.315 27.5083 79.2686 27.5808C79.2221 27.6532 79.156 27.7138 79.0703 27.7625C78.9828 27.8122 78.8974 27.8417 78.8139 27.851C78.7304 27.8602 78.6496 27.8505 78.5716 27.8219C78.4935 27.7932 78.4185 27.7482 78.3466 27.6869C78.2755 27.6251 78.2074 27.5486 78.1422 27.4576L78.0611 27.315C78.0134 27.2073 77.9807 27.1052 77.9629 27.0086C77.945 26.912 77.9429 26.8223 77.9564 26.7393C77.9703 26.6551 78.0019 26.5793 78.0512 26.5119C78.1001 26.4437 78.1678 26.385 78.2544 26.3358C78.341 26.2866 78.4275 26.2599 78.5139 26.2557C78.5998 26.2507 78.6833 26.2662 78.7643 26.3021C78.8454 26.338 78.922 26.3928 78.9942 26.4664C79.0667 26.5386 79.1328 26.6274 79.1927 26.7326ZM78.971 26.894L78.9558 26.8673C78.9167 26.7985 78.8728 26.7381 78.8241 26.686C78.7749 26.6331 78.722 26.5923 78.6654 26.5639C78.6092 26.5341 78.5502 26.5193 78.4886 26.5195C78.4264 26.5188 78.3631 26.5369 78.2986 26.5735C78.2391 26.6073 78.1931 26.6469 78.1606 26.6924C78.1288 26.7374 78.1076 26.786 78.0968 26.8381C78.0855 26.8895 78.0827 26.9428 78.0882 26.998C78.0942 27.0519 78.1057 27.1049 78.1229 27.1569L78.3104 27.4867C78.3611 27.5365 78.4168 27.5791 78.4772 27.6143C78.5372 27.6488 78.6019 27.6676 78.6711 27.6709C78.7399 27.6734 78.813 27.6527 78.8902 27.6088C78.9539 27.5726 79.0012 27.5283 79.0321 27.4759C79.0633 27.4222 79.0806 27.3636 79.0837 27.3C79.0878 27.2359 79.0799 27.1696 79.0601 27.1012C79.0397 27.0318 79.0101 26.9628 78.971 26.894ZM79.4668 25.9669L80.1269 27.1284L79.8913 27.2623L79.1082 25.8843L79.3374 25.754L79.4668 25.9669ZM79.7699 25.4981L79.8931 25.7179C79.8712 25.7248 79.8511 25.7328 79.8327 25.7421C79.8148 25.7501 79.7948 25.7603 79.7727 25.7729C79.7184 25.8037 79.6752 25.8395 79.6433 25.8801C79.6113 25.9207 79.5896 25.9645 79.5781 26.0115C79.5666 26.0585 79.5644 26.108 79.5716 26.1601C79.5791 26.2109 79.5945 26.2628 79.6179 26.3158L79.5734 26.3916C79.5261 26.3084 79.4898 26.2257 79.4644 26.1435C79.4399 26.0608 79.4291 25.9816 79.4321 25.9058C79.4346 25.8291 79.4536 25.7599 79.4893 25.6981C79.5253 25.6349 79.5806 25.5821 79.6553 25.5397C79.6723 25.53 79.6931 25.521 79.7176 25.5127C79.7416 25.5036 79.759 25.4987 79.7699 25.4981ZM81.336 26.475C81.24 26.5295 81.1438 26.5629 81.0474 26.575C80.9513 26.5858 80.8583 26.5774 80.7685 26.5498C80.6796 26.5217 80.5971 26.4754 80.521 26.4107C80.445 26.3461 80.3795 26.2654 80.3245 26.1686L80.2941 26.1151C80.2304 26.0031 80.1903 25.8939 80.1737 25.7876C80.1566 25.6805 80.1591 25.5802 80.1813 25.4868C80.2034 25.3933 80.2417 25.3104 80.296 25.2379C80.3503 25.1655 80.4161 25.1073 80.4934 25.0634C80.5918 25.0075 80.6864 24.9762 80.777 24.9696C80.8685 24.9626 80.9545 24.9766 81.0351 25.0117C81.1152 25.0459 81.1897 25.0979 81.2586 25.1677C81.327 25.2367 81.3887 25.3196 81.4437 25.4164L81.5037 25.5221L80.4747 26.1069L80.3654 25.9145L81.1588 25.4636L81.1487 25.4458C81.1106 25.3866 81.0641 25.3344 81.0092 25.2892C80.9551 25.2436 80.8942 25.2153 80.8262 25.2045C80.7583 25.1937 80.684 25.2112 80.6034 25.257C80.5499 25.2874 80.5071 25.3269 80.4752 25.3754C80.4427 25.423 80.4229 25.4781 80.4157 25.5406C80.4086 25.603 80.4141 25.6712 80.4325 25.745C80.4509 25.8188 80.4837 25.8973 80.531 25.9805L80.5614 26.034C80.5985 26.0994 80.6424 26.1559 80.6931 26.2035C80.7441 26.2498 80.7993 26.2846 80.8587 26.3082C80.919 26.3312 80.9811 26.3408 81.0452 26.337C81.1102 26.3326 81.1749 26.3121 81.2394 26.2755C81.3226 26.2282 81.3834 26.1711 81.4219 26.1044C81.4603 26.0376 81.485 25.9635 81.496 25.882L81.703 25.9143C81.6989 25.9762 81.6855 26.0405 81.6628 26.1073C81.6401 26.1741 81.6025 26.2393 81.5499 26.3029C81.4981 26.366 81.4268 26.4234 81.336 26.475ZM82.7274 25.167C82.7081 25.1331 82.6826 25.106 82.6509 25.0858C82.6196 25.0643 82.5742 25.0547 82.5149 25.057C82.4559 25.0579 82.3759 25.0753 82.2749 25.1091C82.1893 25.1364 82.1093 25.1566 82.0348 25.1698C81.9611 25.1824 81.8937 25.1853 81.8325 25.1785C81.7722 25.1713 81.7185 25.1529 81.6715 25.1235C81.6244 25.094 81.5847 25.0509 81.5524 24.994C81.5215 24.9397 81.5042 24.8815 81.5005 24.8196C81.4976 24.7572 81.5076 24.6948 81.5306 24.6324C81.5543 24.5695 81.5916 24.5095 81.6424 24.4526C81.6931 24.3957 81.7572 24.3452 81.8344 24.3013C81.9448 24.2386 82.0501 24.2046 82.1504 24.1992C82.2507 24.1939 82.3403 24.2121 82.419 24.2538C82.4973 24.2947 82.5589 24.3547 82.6037 24.4336L82.3681 24.5675C82.3464 24.5293 82.314 24.4989 82.2708 24.4763C82.228 24.4523 82.1781 24.4407 82.1213 24.4416C82.0654 24.4419 82.0064 24.4597 81.9444 24.4949C81.879 24.5321 81.8318 24.5724 81.8026 24.616C81.7738 24.6582 81.7587 24.6998 81.7574 24.741C81.757 24.7817 81.7664 24.8191 81.7857 24.853C81.8002 24.8785 81.8174 24.899 81.8375 24.9146C81.8579 24.9288 81.8844 24.9379 81.917 24.9418C81.9491 24.9449 81.9901 24.9419 82.0399 24.9327C82.0897 24.9234 82.1509 24.9077 82.2237 24.8855C82.3511 24.8468 82.4614 24.8245 82.5547 24.8187C82.648 24.8129 82.7272 24.8257 82.7922 24.8572C82.8573 24.8888 82.9109 24.9414 82.9529 25.0153C82.9871 25.0756 83.0057 25.138 83.0087 25.2026C83.0126 25.2667 83.0011 25.3305 82.9743 25.394C82.9479 25.4562 82.9078 25.5161 82.854 25.5736C82.8005 25.6298 82.7335 25.6808 82.6528 25.7267C82.5314 25.7957 82.4164 25.8324 82.3077 25.8368C82.199 25.8413 82.1035 25.8215 82.0211 25.7773C81.9388 25.7331 81.8759 25.6728 81.8324 25.5964L82.0693 25.4618C82.1094 25.5244 82.1572 25.5652 82.2129 25.5841C82.2681 25.6021 82.3249 25.6052 82.3833 25.5934C82.4413 25.5807 82.4944 25.5606 82.5428 25.5331C82.6073 25.4964 82.6564 25.4573 82.6901 25.4157C82.7246 25.3736 82.7449 25.3312 82.7509 25.2885C82.7569 25.2457 82.7491 25.2052 82.7274 25.167ZM84.0748 24.4013C84.0555 24.3674 84.03 24.3403 83.9983 24.3201C83.967 24.2986 83.9217 24.289 83.8623 24.2913C83.8033 24.2922 83.7233 24.3096 83.6223 24.3434C83.5368 24.3707 83.4567 24.3909 83.3822 24.404C83.3085 24.4167 83.2411 24.4196 83.1799 24.4128C83.1196 24.4055 83.066 24.3872 83.0189 24.3577C82.9719 24.3283 82.9322 24.2852 82.8998 24.2283C82.869 24.1739 82.8517 24.1158 82.8479 24.0539C82.8451 23.9915 82.8551 23.9291 82.878 23.8667C82.9018 23.8037 82.939 23.7438 82.9898 23.6869C83.0406 23.6299 83.1046 23.5795 83.1818 23.5356C83.2922 23.4729 83.3976 23.4389 83.4979 23.4335C83.5982 23.4282 83.6877 23.4464 83.7665 23.4881C83.8447 23.529 83.9063 23.5889 83.9512 23.6679L83.7156 23.8018C83.6939 23.7636 83.6614 23.7332 83.6182 23.7105C83.5754 23.6866 83.5256 23.675 83.4688 23.6758C83.4128 23.6762 83.3538 23.694 83.2919 23.7292C83.2265 23.7663 83.1792 23.8067 83.15 23.8502C83.1212 23.8924 83.1062 23.9341 83.1049 23.9753C83.1044 24.016 83.1138 24.0533 83.1331 24.0873C83.1476 24.1128 83.1649 24.1333 83.1849 24.1488C83.2054 24.1631 83.2319 24.1721 83.2644 24.1761C83.2965 24.1792 83.3375 24.1761 83.3873 24.1669C83.4371 24.1577 83.4984 24.142 83.5711 24.1198C83.6985 24.0811 83.8088 24.0588 83.9021 24.053C83.9954 24.0471 84.0746 24.06 84.1397 24.0915C84.2048 24.123 84.2583 24.1757 84.3003 24.2496C84.3345 24.3099 84.3532 24.3723 84.3562 24.4369C84.36 24.501 84.3485 24.5648 84.3217 24.6283C84.2953 24.6905 84.2552 24.7504 84.2014 24.8079C84.148 24.8641 84.0809 24.9151 84.0003 24.9609C83.8788 25.0299 83.7638 25.0667 83.6551 25.0711C83.5465 25.0756 83.451 25.0557 83.3686 25.0116C83.2862 24.9674 83.2233 24.9071 83.1799 24.8307L83.4167 24.6961C83.4568 24.7587 83.5047 24.7994 83.5604 24.8184C83.6155 24.8364 83.6723 24.8395 83.7308 24.8277C83.7887 24.815 83.8418 24.7949 83.8902 24.7674C83.9548 24.7307 84.0039 24.6916 84.0375 24.65C84.072 24.6079 84.0923 24.5655 84.0983 24.5227C84.1044 24.48 84.0965 24.4395 84.0748 24.4013Z" fill="black"/>
</g>
<defs>
<filter id="filter0_f_221_1700" x="24.582" y="33.8828" width="71.3333" height="45.5186" filterUnits="userSpaceOnUse" color-interpolation-filters="sRGB">
<feFlood flood-opacity="0" result="BackgroundImageFix"/>
<feBlend mode="normal" in="SourceGraphic" in2="BackgroundImageFix" result="shape"/>
<feGaussianBlur stdDeviation="0.5" result="effect1_foregroundBlur_221_1700"/>
</filter>
<filter id="filter1_f_221_1700" x="31.314" y="58.6133" width="48.6936" height="32.4502" filterUnits="userSpaceOnUse" color-interpolation-filters="sRGB">
<feFlood flood-opacity="0" result="BackgroundImageFix"/>
<feBlend mode="normal" in="SourceGraphic" in2="BackgroundImageFix" result="shape"/>
<feGaussianBlur stdDeviation="0.5" result="effect1_foregroundBlur_221_1700"/>
</filter>
<filter id="filter2_f_221_1700" x="65.3699" y="127.91" width="30.8564" height="22.1543" filterUnits="userSpaceOnUse" color-interpolation-filters="sRGB">
<feFlood flood-opacity="0" result="BackgroundImageFix"/>
<feBlend mode="normal" in="SourceGraphic" in2="BackgroundImageFix" result="shape"/>
<feGaussianBlur stdDeviation="0.5" result="effect1_foregroundBlur_221_1700"/>
</filter>
<filter id="filter3_f_221_1700" x="83.8523" y="13.4307" width="9.24683" height="10.4775" filterUnits="userSpaceOnUse" color-interpolation-filters="sRGB">
<feFlood flood-opacity="0" result="BackgroundImageFix"/>
<feBlend mode="normal" in="SourceGraphic" in2="BackgroundImageFix" result="shape"/>
<feGaussianBlur stdDeviation="0.5" result="effect1_foregroundBlur_221_1700"/>
</filter>
<filter id="filter4_f_221_1700" x="71.5356" y="18.1992" width="14.2834" height="13.0186" filterUnits="userSpaceOnUse" color-interpolation-filters="sRGB">
<feFlood flood-opacity="0" result="BackgroundImageFix"/>
<feBlend mode="normal" in="SourceGraphic" in2="BackgroundImageFix" result="shape"/>
<feGaussianBlur stdDeviation="0.5" result="effect1_foregroundBlur_221_1700"/>
</filter>
</defs>
</svg>
