<svg width="239" height="236" viewBox="0 0 239 236" fill="none" xmlns="http://www.w3.org/2000/svg">
<path fill-rule="evenodd" clip-rule="evenodd" d="M57 0H35C15.67 0 0 15.67 0 35V56C0 56.3344 0.00469101 56.6678 0.0140108 57H0.0164025C0.00552476 57.1653 0 57.332 0 57.5C0 61.6421 3.35786 65 7.5 65C11.6421 65 15 61.6421 15 57.5C15 57.332 14.9945 57.1653 14.9836 57H15.0246C15.0083 56.6687 15 56.3353 15 56V35C15 23.9543 23.9543 15 35 15H57V14.9836C57.1653 14.9945 57.332 15 57.5 15C61.6421 15 65 11.6421 65 7.5C65 3.35786 61.6421 0 57.5 0C57.332 0 57.1653 0.00552459 57 0.016402V0Z" fill="#E31E24"/>
<path fill-rule="evenodd" clip-rule="evenodd" d="M239 57L239 35C239 15.67 223.33 -6.84959e-07 204 -1.5299e-06L183 -2.44784e-06C182.666 -2.46246e-06 182.332 0.00468853 182 0.0140083L182 0.0164C181.835 0.00552226 181.668 -2.50606e-06 181.5 -2.5134e-06C177.358 -2.69446e-06 174 3.35786 174 7.5C174 11.6421 177.358 15 181.5 15C181.668 15 181.835 14.9945 182 14.9836L182 15.0246C182.331 15.0082 182.665 15 183 15L204 15C215.046 15 224 23.9543 224 35L224 57L224.016 57C224.006 57.1653 224 57.332 224 57.5C224 61.6421 227.358 65 231.5 65C235.642 65 239 61.6421 239 57.5C239 57.332 238.994 57.1653 238.984 57L239 57Z" fill="#E31E24"/>
<path fill-rule="evenodd" clip-rule="evenodd" d="M182 236L204 236C223.33 236 239 220.33 239 201L239 180C239 179.666 238.995 179.332 238.986 179L238.984 179C238.994 178.835 239 178.668 239 178.5C239 174.358 235.642 171 231.5 171C227.358 171 224 174.358 224 178.5C224 178.668 224.006 178.835 224.016 179L223.975 179C223.992 179.331 224 179.665 224 180L224 201C224 212.046 215.046 221 204 221L182 221L182 221.016C181.835 221.006 181.668 221 181.5 221C177.358 221 174 224.358 174 228.5C174 232.642 177.358 236 181.5 236C181.668 236 181.835 235.994 182 235.984L182 236Z" fill="#E31E24"/>
<path fill-rule="evenodd" clip-rule="evenodd" d="M-2.49155e-06 179L-1.5299e-06 201C-6.84959e-07 220.33 15.67 236 35 236L56 236C56.3344 236 56.6678 235.995 57 235.986L57 235.984C57.1653 235.994 57.332 236 57.5 236C61.6421 236 65 232.642 65 228.5C65 224.358 61.6421 221 57.5 221C57.332 221 57.1653 221.006 57 221.016L57 220.975C56.6687 220.992 56.3353 221 56 221L35 221C23.9543 221 15 212.046 15 201L15 179L14.9836 179C14.9945 178.835 15 178.668 15 178.5C15 174.358 11.6421 171 7.5 171C3.35786 171 -2.69446e-06 174.358 -2.5134e-06 178.5C-2.50606e-06 178.668 0.00552209 178.835 0.0163995 179L-2.49155e-06 179Z" fill="#E31E24"/>
<rect x="62" y="79" width="19" height="35" rx="9.5" fill="#E31E24"/>
<rect x="159" y="80" width="19" height="35" rx="9.5" fill="#E31E24"/>
<path fill-rule="evenodd" clip-rule="evenodd" d="M123.002 79C118.584 79 115.002 82.5817 115.002 87V125L115.002 128.5C115.002 134.5 113.502 135 108.502 135H108.002C104.136 135 101.002 138.134 101.002 142C101.002 145.866 104.136 149 108.002 149H108.502H109.002H117.502C122.502 149 131.502 147.5 131.002 135V125.008L131.002 125V87C131.002 82.5817 127.421 79 123.002 79ZM150.297 185.552C151.165 188.432 153.838 190.529 157 190.529H158C161.866 190.529 165 187.395 165 183.529C165 181.85 164.409 180.308 163.423 179.102L163.5 179.029C149.5 165.529 142.5 159.529 121 160.029C119.805 160.057 118.669 160.069 117.575 160.08H117.574C105.848 160.205 98.9943 160.278 77.5 179.029L77.5738 179.106C76.59 180.312 76 181.851 76 183.529C76 187.395 79.134 190.529 83 190.529H84C86.9441 190.529 89.4637 188.711 90.4979 186.137C96.2121 180.672 107.581 173.529 121 173.529C132.592 173.529 142.594 176.709 150.297 185.552Z" fill="#E31E24"/>
</svg>
