<svg width="19" height="26" viewBox="0 0 19 26" fill="none" xmlns="http://www.w3.org/2000/svg">
<path fill-rule="evenodd" clip-rule="evenodd" d="M7.12342 0.105513C6.84861 0.243203 6.72689 0.462102 6.69396 0.877814L6.66718 1.21517L6.19153 1.21549C5.92993 1.21565 5.62193 1.24138 5.5071 1.27266C4.9947 1.41235 4.6569 1.82733 4.60758 2.37756L4.57918 2.69457L2.79877 2.69489C1.69485 2.69505 0.941884 2.71666 0.817139 2.75169C0.706486 2.78281 0.512739 2.90454 0.386637 3.02226C-0.0311824 3.41208 0.000551869 2.48286 0.000551869 14.3311C0.000551869 22.2433 0.0159495 24.9534 0.0618809 25.1381C0.146071 25.4766 0.512791 25.8478 0.847203 25.9331C1.19712 26.0223 17.8029 26.0223 18.1528 25.9331C18.4872 25.8478 18.8539 25.4766 18.9381 25.1381C18.9841 24.9534 18.9994 22.2433 18.9994 14.3311C18.9994 2.48286 19.0312 3.41208 18.6134 3.02226C18.4873 2.90454 18.2935 2.78281 18.1829 2.75169C18.0581 2.71666 17.3052 2.69505 16.2012 2.69489L14.4208 2.69457L14.3932 2.38612C14.3603 2.01923 14.2642 1.81412 14.0062 1.56056C13.7555 1.31408 13.4135 1.21517 12.812 1.21517H12.3328L12.306 0.877814C12.2729 0.459883 12.1499 0.240403 11.8726 0.10451C11.6705 0.00549527 11.5448 -5.24707e-05 9.49656 3.65094e-07C7.44045 5.32009e-05 7.32353 0.00523109 7.12342 0.105513ZM11.4834 1.50577V2.16621H9.5H7.5166V1.50577V0.84532H9.5H11.4834V1.50577ZM6.69135 2.41111C6.7104 2.71354 6.7331 2.77879 6.85696 2.88663L7.0005 3.01159H9.5H11.9995L12.143 2.88663C12.2669 2.77879 12.2896 2.71354 12.3087 2.41111L12.3307 2.06054H12.8408C13.6168 2.06054 13.5911 2.02018 13.6113 3.27017L13.6277 4.27965H9.5H5.37228L5.38867 3.27017C5.40892 2.02018 5.38319 2.06054 6.15922 2.06054H6.66932L6.69135 2.41111ZM4.59369 4.1446C4.59369 4.76346 4.6011 4.8108 4.71964 4.95034L4.84564 5.0986H9.5H14.1544L14.2804 4.95034C14.3989 4.8108 14.4063 4.76346 14.4063 4.1446V3.48711H16.0992C17.757 3.48711 18.0281 3.51057 18.1233 3.66215C18.145 3.69666 18.1631 8.50809 18.1635 14.3543C18.1643 23.9477 18.1563 24.9918 18.0823 25.0668C18.0084 25.1415 17.158 25.1498 9.5 25.1498C1.84204 25.1498 0.991574 25.1415 0.917666 25.0668C0.843654 24.9918 0.835668 23.9467 0.835668 14.3512C0.835668 5.92564 0.849187 3.70104 0.900912 3.63373C0.936822 3.58707 1.01313 3.53773 1.07054 3.52409C1.12796 3.51052 1.94413 3.49662 2.88431 3.49324L4.59369 3.48711V4.1446ZM4.61415 6.94928C4.53111 6.98605 4.22989 7.2552 3.94475 7.54743L3.42636 8.0787L3.22838 7.89768C2.96636 7.65802 2.7973 7.61765 2.6188 7.75201C2.51686 7.82873 2.47578 7.91158 2.46472 8.06269C2.45057 8.25633 2.47333 8.29252 2.84183 8.66237C3.4287 9.25144 3.4144 9.25514 4.38888 8.26262C5.22389 7.41217 5.26977 7.33102 5.0647 7.06715C4.93374 6.89861 4.80472 6.86485 4.61415 6.94928ZM6.18328 8.05503C6.0267 8.21348 6.01981 8.39397 6.16334 8.57863L6.27149 8.71785H11.3045C16.2679 8.71785 16.339 8.71637 16.4419 8.61218C16.5873 8.46503 16.5793 8.18648 16.4255 8.04018L16.3047 7.92531H11.308H6.31137L6.18328 8.05503ZM4.61979 10.2489C4.56238 10.2736 4.27024 10.5444 3.97064 10.8508L3.42589 11.4077L3.20192 11.1988C2.94857 10.9623 2.79469 10.9373 2.59124 11.0993C2.48915 11.1806 2.45371 11.2568 2.45371 11.395C2.45371 11.5528 2.50632 11.6364 2.79845 11.9427C3.192 12.3554 3.35292 12.4366 3.57955 12.3371C3.80268 12.2391 5.09925 10.8893 5.14414 10.7083C5.1897 10.5246 5.09821 10.3359 4.92476 10.2559C4.77851 10.1885 4.76108 10.1881 4.61979 10.2489ZM6.16334 11.3932C6.01981 11.5779 6.0267 11.7583 6.18328 11.9168L6.31137 12.0465H11.3153H16.3193L16.4328 11.9242C16.5772 11.7686 16.5816 11.501 16.4419 11.3596C16.339 11.2554 16.2679 11.254 11.3045 11.254H6.27149L6.16334 11.3932ZM4.0244 14.1303L3.41931 14.7347L3.19952 14.5266C2.83896 14.1852 2.45371 14.2873 2.45371 14.7241C2.45371 14.895 2.49969 14.9649 2.83593 15.3053C3.40699 15.8834 3.38758 15.8887 4.37406 14.8826C5.23986 13.9995 5.28934 13.9083 5.0397 13.6556C4.80132 13.4143 4.68827 13.4672 4.0244 14.1303ZM6.16334 14.7218C6.02847 14.8954 6.02565 15.0624 6.15489 15.224L6.25469 15.3487L11.262 15.3627L16.2693 15.3767L16.4078 15.2664C16.5139 15.1819 16.5463 15.1096 16.5463 14.9568C16.5463 14.5534 16.9556 14.5826 11.3135 14.5826H6.27149L6.16334 14.7218Z" fill="#353535"/>
</svg>
