<svg width="312" height="313" viewBox="0 0 312 313" fill="none" xmlns="http://www.w3.org/2000/svg">
<path fill-rule="evenodd" clip-rule="evenodd" d="M141.303 0.632337C111.598 3.27281 80.9099 15.846 57.3135 35.0421C50.3776 40.6849 39.3959 51.7538 33.8642 58.6794C19.8771 76.1893 8.41509 99.8742 3.66139 121.088C0.676136 134.413 0 140.89 0 156.176C0 171.462 0.676136 177.939 3.66139 191.264C8.51883 212.94 20.2798 236.964 34.7319 254.728C40.3747 261.664 51.4437 272.646 58.3692 278.178C75.8792 292.165 99.5641 303.627 120.778 308.38C134.103 311.366 140.58 312.042 155.866 312.042C171.152 312.042 177.629 311.366 190.954 308.38C206.904 304.806 227.758 295.895 241.463 286.797C265.231 271.017 283.487 250.255 295.951 224.827C306.043 204.237 310.992 184.649 311.884 161.772C313.305 125.315 301.674 89.6303 278.635 59.7595C273.488 53.086 258.956 38.5539 252.282 33.4066C220.044 8.54154 181.241 -2.91738 141.303 0.632337ZM150.374 41.948V72.9557L136.562 73.7185C118.6 74.7113 102.028 76.6501 85.7875 79.6591C82.9884 80.1772 80.6103 80.5116 80.5029 80.4018C80.1533 80.0454 84.3724 70.098 87.5267 63.8419C100.008 39.0873 116.094 22.3285 134.673 14.7256C138.945 12.9773 146.157 11.0539 148.696 10.9861L150.374 10.941V41.948ZM168.07 11.8862C186.662 16.2341 204.259 30.4195 217.458 51.702C222.484 59.8046 231.996 79.6182 231.234 80.3963C231.13 80.5031 227.928 80.0448 224.12 79.3772C205.654 76.143 193.395 74.726 175.169 73.7185L161.358 72.9557V41.948V10.941L162.731 10.9501C163.486 10.955 165.889 11.3767 168.07 11.8862ZM103.934 23.7192C97.363 30.4427 90.7072 38.6943 85.6942 46.3344C81.0875 53.3545 73.0398 69.6202 70.4463 77.1529L68.5546 82.6474L47.7921 86.2173C36.3728 88.1804 26.8801 89.637 26.6976 89.4545C26.2705 89.0274 29.3314 83.6122 34.2541 76.0868C47.9141 55.2041 67.6228 37.6422 90.6541 25.8294C94.4235 23.8962 107.644 18.3534 108.614 18.2997C108.973 18.2802 106.867 20.7187 103.934 23.7192ZM209.967 20.9256C237.512 31.9958 261.408 51.5207 277.478 76.0868C282.4 83.6122 285.461 89.0274 285.034 89.4545C284.852 89.637 275.359 88.1804 263.94 86.2173L243.177 82.6474L241.285 77.1529C238.692 69.6202 230.644 53.3545 226.038 46.3344C221.025 38.6943 214.369 30.4427 207.798 23.7192C204.865 20.7187 202.663 18.2637 202.904 18.2637C203.146 18.2637 206.324 19.4616 209.967 20.9256ZM150.374 117.121V150.684H108.859H67.3439L67.7039 144.124C68.5113 129.415 71.2646 111.55 74.7228 98.5812C75.6967 94.9289 76.5718 91.882 76.667 91.81C76.7628 91.7386 82.8822 90.6793 90.266 89.4564C110.986 86.0244 130.898 83.9472 145.95 83.647L150.374 83.5585V117.121ZM176.79 84.195C190.58 85.031 204.957 86.7244 221.466 89.4576C228.849 90.6799 234.969 91.7386 235.065 91.81C235.16 91.882 236.035 94.9289 237.009 98.5812C240.467 111.55 243.22 129.415 244.028 144.124L244.388 150.684H202.873H161.358V117.121V83.5585H163.823C165.178 83.5585 171.013 83.8453 176.79 84.195ZM64.9414 94.5847C64.9414 94.9436 64.2738 97.8953 63.4579 101.145C60.4806 112.997 58.2142 128.786 57.2873 144.124L56.8912 150.684H33.4443H9.99742L10.2763 149.311C10.4295 148.556 10.7169 145.604 10.9152 142.751C11.6334 132.425 14.4613 119.309 18.3948 108.061C19.6092 104.588 20.9004 101.633 21.2641 101.494C22.0928 101.175 62.4181 94.0776 63.8735 93.994C64.4612 93.9599 64.9414 94.2259 64.9414 94.5847ZM268.959 97.6371C280.737 99.6747 290.55 101.451 290.765 101.584C290.981 101.717 292.145 104.649 293.351 108.101C297.27 119.309 300.099 132.439 300.816 142.751C301.015 145.604 301.302 148.555 301.455 149.311L301.734 150.684H278.287H254.84L254.444 144.124C253.517 128.786 251.251 112.997 248.274 101.145C246.709 94.91 246.558 93.9324 247.168 93.9324C247.375 93.9324 257.181 95.5996 268.959 97.6371ZM57.2873 168.228C58.2209 183.683 60.4574 199.183 63.5409 211.576C64.4001 215.027 64.9634 217.991 64.7931 218.161C64.4917 218.462 21.7493 211.252 20.9663 210.768C20.7509 210.635 19.5872 207.703 18.3808 204.251C14.4613 193.043 11.6322 179.913 10.9152 169.601C10.7169 166.748 10.4295 163.797 10.2763 163.041L9.99742 161.668H33.4443H56.8912L57.2873 168.228ZM150.374 195.231V228.794H147.909C142.267 228.794 123.729 227.438 114.065 226.318C105.364 225.311 77.2302 220.965 76.667 220.542C76.5718 220.47 75.6967 217.423 74.7228 213.771C71.2646 200.802 68.5113 182.937 67.7039 168.228L67.3439 161.668H108.859H150.374V195.231ZM244.028 168.228C243.22 182.937 240.467 200.802 237.009 213.771C236.035 217.423 235.16 220.47 235.065 220.542C234.501 220.965 206.368 225.311 197.667 226.318C188.003 227.438 169.464 228.794 163.823 228.794H161.358V195.231V161.668H202.873H244.388L244.028 168.228ZM301.455 163.041C301.302 163.797 301.015 166.748 300.816 169.601C300.099 179.913 297.27 193.043 293.351 204.251C292.145 207.703 290.981 210.635 290.765 210.768C289.982 211.252 247.24 218.462 246.939 218.161C246.768 217.991 247.332 215.027 248.191 211.576C251.274 199.183 253.511 183.683 254.444 168.228L254.84 161.668H278.287H301.734L301.455 163.041ZM47.9837 226.183L68.5546 229.705L70.4463 235.199C73.0398 242.732 81.0875 258.997 85.6942 266.018C90.7072 273.658 97.363 281.909 103.934 288.633C106.867 291.633 109.069 294.088 108.827 294.088C107.99 294.088 95.1228 288.755 91.2796 286.815C70.0728 276.11 51.2234 260.108 37.5909 241.236C34.2791 236.653 26.4968 223.978 26.4968 223.168C26.4968 222.478 25.6364 222.357 47.9837 226.183ZM285.235 223.168C285.235 223.978 277.453 236.653 274.141 241.236C260.508 260.108 241.659 276.11 220.452 286.815C216.609 288.755 203.742 294.088 202.904 294.088C202.663 294.088 204.865 291.633 207.798 288.633C214.369 281.909 221.025 273.658 226.038 266.018C230.645 258.997 238.692 242.731 241.286 235.197L243.178 229.7L262.834 226.26C283.538 222.637 285.235 222.403 285.235 223.168ZM86.0798 232.742C101.691 235.662 119.216 237.711 136.796 238.67L150.374 239.412V270.411C150.374 306.063 151.262 302.183 143.5 300.418C118.276 294.68 95.1546 270.186 81.2181 234.438C80.6622 233.012 80.4492 231.845 80.7452 231.845C81.0405 231.845 83.4412 232.249 86.0798 232.742ZM230.262 235.048C216.467 270.272 193.264 294.724 168.232 300.418C160.469 302.183 161.358 306.063 161.358 270.411V239.412L174.936 238.67C192.195 237.729 214.058 235.129 226.958 232.485C231.754 231.502 231.675 231.441 230.262 235.048Z" fill="#C4C4C4"/>
<path fill-rule="evenodd" clip-rule="evenodd" d="M273.994 19.0003C273.994 12.2142 268.489 6.71289 261.697 6.71289H150.209C143.417 6.71289 137.912 12.2142 137.912 19.0003V95.1825C137.912 101.969 143.417 107.47 150.209 107.47H216.162C219.081 107.47 221.905 108.508 224.128 110.397L239.912 123.811C246.343 129.277 256.271 125.281 257.115 116.887L257.306 114.992C257.736 110.721 261.333 107.47 265.629 107.47C270.249 107.47 273.994 103.728 273.994 99.1113V19.0003Z" fill="white"/>
<path fill-rule="evenodd" clip-rule="evenodd" d="M149.594 6.1867C141.852 8.06194 135.406 14.5962 133.557 22.4448C133.056 24.5705 132.951 29.6735 132.946 52.1723L132.94 79.3334L110.71 79.3395C92.5592 79.3444 88.01 79.4564 85.9157 79.9508C77.9733 81.8244 71.5114 88.2725 69.647 96.1847C68.7336 100.061 68.7222 168.43 69.6343 172.3C71.4069 179.824 77.7017 186.45 84.8954 188.365L86.6369 188.829V200.478C86.6369 213.036 86.7533 213.832 88.7451 214.862C90.2747 215.653 91.5216 215.594 92.9882 214.66C93.6643 214.23 100.671 208.333 108.559 201.557L122.901 189.237L159.164 189.217C199.396 189.193 198.181 189.268 203.48 186.482C206.876 184.697 210.673 180.807 212.441 177.303C214.867 172.495 214.879 172.32 214.886 142.573L214.892 115.411L219.911 115.423L224.931 115.433L239.273 127.754C247.16 134.531 254.167 140.429 254.843 140.861C256.309 141.798 257.555 141.858 259.087 141.066C261.078 140.036 261.195 139.24 261.195 126.682V115.033L262.926 114.566C270.153 112.62 276.421 106.045 278.185 98.5601C279.098 94.6834 279.109 26.315 278.197 22.4448C276.325 14.4982 269.88 8.03284 261.972 6.16743C258.535 5.35691 224.199 5.23474 222.461 6.02722C221.287 6.56265 220.219 8.28169 220.219 9.63707C220.219 10.8244 221.266 12.7439 222.15 13.1748C222.553 13.3711 231.364 13.6241 241.731 13.7368L260.58 13.9418L262.892 15.0775C265.589 16.4029 268.275 19.1494 269.529 21.8643L270.414 23.7813V60.4744V97.1674L269.529 99.0845C267.554 103.36 263.266 106.514 258.736 107.023C255.804 107.353 254.314 107.94 253.701 109.01C253.371 109.586 253.136 112.993 253 119.166L252.795 128.454L240.572 118.038C233.849 112.309 227.949 107.528 227.46 107.413C226.97 107.298 209.606 107.16 188.872 107.106L151.174 107.007L148.8 105.803C146.027 104.397 143.475 101.79 142.225 99.0845L141.34 97.1674V60.4744V23.7813L142.49 21.4387C143.775 18.8206 146.368 16.3103 149.264 14.8836C151.152 13.9529 151.393 13.9394 170.023 13.7368C180.39 13.6241 189.201 13.3711 189.604 13.1748C190.488 12.7439 191.535 10.8244 191.535 9.63707C191.535 8.28169 190.468 6.56265 189.293 6.02722C187.626 5.26712 152.814 5.40693 149.594 6.1867ZM203.873 6.10963C200.321 8.07957 201.807 13.7368 205.877 13.7368C207.953 13.7368 209.975 11.7341 209.975 9.67684C209.975 6.59873 206.575 4.61116 203.873 6.10963Z" fill="#353535"/>
<path d="M178.188 41.4961H190.534C193.335 41.4961 195.7 41.9233 197.629 42.7777C199.576 43.6322 201.053 44.8967 202.061 46.5714C203.086 48.2291 203.598 50.2712 203.598 52.6979C203.598 54.4065 203.248 55.9703 202.548 57.3885C201.865 58.7899 200.874 59.9859 199.576 60.9772C198.295 61.9512 196.758 62.6776 194.965 63.1562L193.582 63.6943H181.979L181.927 59.6701H190.688C192.464 59.6701 193.941 59.3625 195.119 58.7473C196.297 58.1149 197.186 57.2688 197.783 56.2094C198.381 55.1501 198.68 53.9796 198.68 52.6979C198.68 51.2624 198.398 50.0062 197.834 48.9296C197.271 47.853 196.383 47.0242 195.17 46.4433C193.975 45.8451 192.43 45.5461 190.534 45.5461H183.131V78.8178H178.188V41.4961ZM199.986 78.8178L190.918 61.9L196.067 61.8745L205.263 78.5102V78.8178H199.986ZM231.852 41.4961H236.77V66.7448C236.77 69.5472 236.146 71.8796 234.9 73.7424C233.653 75.6052 231.997 77.0062 229.931 77.9462C227.881 78.869 225.653 79.3304 223.245 79.3304C220.718 79.3304 218.429 78.869 216.38 77.9462C214.348 77.0062 212.734 75.6052 211.539 73.7424C210.36 71.8796 209.771 69.5472 209.771 66.7448V41.4961H214.664V66.7448C214.664 68.6929 215.022 70.299 215.74 71.5638C216.457 72.8282 217.456 73.7683 218.736 74.3835C220.034 74.9986 221.537 75.3062 223.245 75.3062C224.97 75.3062 226.472 74.9986 227.753 74.3835C229.051 73.7683 230.058 72.8282 230.776 71.5638C231.493 70.299 231.852 68.6929 231.852 66.7448V41.4961Z" fill="#353535"/>
<path d="M133.758 118.995H138.678V144.244C138.678 147.046 138.054 149.379 136.808 151.241C135.561 153.104 133.903 154.505 131.837 155.445C129.787 156.368 127.558 156.829 125.149 156.829C122.621 156.829 120.332 156.368 118.282 155.445C116.25 154.505 114.635 153.104 113.44 151.241C112.261 149.379 111.672 147.046 111.672 144.244V118.995H116.566V144.244C116.566 146.192 116.925 147.798 117.642 149.063C118.36 150.327 119.359 151.267 120.64 151.882C121.938 152.498 123.441 152.805 125.149 152.805C126.875 152.805 128.378 152.498 129.659 151.882C130.957 151.267 131.965 150.327 132.682 149.063C133.4 147.798 133.758 146.192 133.758 144.244V118.995ZM171.475 152.293V156.317H146.211V152.293H171.475ZM170.655 122.584L147.389 156.317H144.341V152.626L167.58 118.995H170.655V122.584ZM168.554 118.995V123.045H144.674V118.995H168.554Z" fill="white"/>
</svg>
