<svg width="33" height="33" viewBox="0 0 33 33" fill="none" xmlns="http://www.w3.org/2000/svg">
<path fill-rule="evenodd" clip-rule="evenodd" d="M30.3273 32.8748C31.5715 32.54 32.5474 31.5494 32.8756 30.2881C33.0415 29.651 33.0415 3.32729 32.8756 2.69019C32.535 1.38114 31.4522 0.330231 30.1709 0.0650175C29.9002 0.00895282 26.8319 -0.00931603 19.9806 0.00431328C10.2097 0.0237598 10.177 0.024351 9.9744 0.175745C9.86259 0.259287 9.70286 0.419149 9.61939 0.531057C9.46916 0.732469 9.46761 0.792143 9.46761 6.46999C9.46761 12.1478 9.46915 12.2075 9.61939 12.4089C9.90779 12.7955 10.143 12.9161 10.6085 12.9161C11.074 12.9161 11.3093 12.7955 11.5977 12.4089C11.747 12.2089 11.7498 12.1241 11.7694 7.27417L11.7893 2.34276L20.8363 2.36199C29.8438 2.38121 29.884 2.38195 30.0864 2.5332C30.1982 2.61674 30.3579 2.7766 30.4414 2.88851L30.5932 3.09199L30.5932 16.4892L30.5932 29.8863L30.4414 30.0898C30.3579 30.2017 30.1982 30.3616 30.0864 30.4451C29.8837 30.5965 29.855 30.597 21.2081 30.597C12.5613 30.597 12.5325 30.5965 12.3299 30.4451C12.2181 30.3616 12.0583 30.2017 11.9749 30.0899C11.8264 29.8909 11.8223 29.7878 11.7863 25.3296C11.7503 20.8714 11.7462 20.7683 11.5977 20.5693C11.3092 20.1828 11.074 20.0622 10.6085 20.0622C10.143 20.0622 9.90778 20.1828 9.61939 20.5693C9.47048 20.7689 9.46724 20.8586 9.44751 25.2783C9.43389 28.3359 9.4534 29.909 9.50816 30.173C9.77463 31.4578 10.8232 32.5403 12.1317 32.8814C12.7539 33.0436 29.723 33.0375 30.3273 32.8748ZM7.55747 23.4579C7.85897 23.3264 8.16283 22.9514 8.22157 22.6385C8.33978 22.0077 8.3244 21.9868 6.09731 19.7501L4.02604 17.6699L11.6548 17.6505C19.2298 17.6312 19.285 17.6299 19.4868 17.4791C19.8731 17.1905 19.9936 16.9551 19.9936 16.4892C19.9936 16.0233 19.8731 15.7878 19.4868 15.4992C19.285 15.3484 19.2298 15.3471 11.6548 15.3278L4.02604 15.3084L6.09731 13.2282C8.33286 10.983 8.34023 10.9729 8.21833 10.3229C8.15039 9.96027 7.71006 9.51957 7.34776 9.45157C6.67587 9.32538 6.79018 9.23292 3.3077 12.7183C0.485853 15.5426 0.0860153 15.9704 0.0423637 16.2129C-0.0796037 16.8897 -0.167052 16.7805 3.23446 20.1988C5.01217 21.9853 6.47889 23.4005 6.61293 23.4587C6.90692 23.5863 7.26348 23.586 7.55747 23.4579Z" fill="white"/>
</svg>
