<svg width="196" height="171" viewBox="0 0 196 171" fill="none" xmlns="http://www.w3.org/2000/svg">
<mask id="mask0_85_2751" style="mask-type:alpha" maskUnits="userSpaceOnUse" x="0" y="0" width="187" height="82">
<path d="M144.192 4.85616L102.027 81.4032L186.902 81.0999L144.192 4.85616Z" fill="#C4C4C4"/>
<path d="M140.136 0.849384L97.9858 81.4172L0.986094 81.7638L37.0736 1.21767L140.136 0.849384Z" fill="#C4C4C4"/>
</mask>
<g mask="url(#mask0_85_2751)">
<path fill-rule="evenodd" clip-rule="evenodd" d="M37.1573 33.4838C27.0993 51.2672 16.7641 69.3828 14.1897 73.7461L9.06895 81.7353L21.1939 81.692L31.298 81.6559L53.6947 41.2391L76.2675 1.07802L65.8553 1.11522L55.4406 1.15244L37.1573 33.4838ZM67.1727 33.1184C57.241 50.7601 46.9157 68.8782 44.2249 73.3807L39.3813 81.627L50.1199 81.5886L61.6104 81.5476L83.5594 41.147L106.165 0.971181L95.6951 1.00859L85.2257 1.04601L67.1727 33.1184ZM102.781 25.9438C95.033 39.7009 84.9645 57.3286 80.4113 65.1179C75.8556 72.9072 71.7121 80.8369 71.7145 81.5115C71.7145 81.5115 75.7562 81.497 81.8187 81.4753L91.9228 81.4392L113.587 43.5601C125.074 23.4289 135.394 2.54209 136.094 0.864197C136.094 0.864197 134.021 0.871638 126.939 0.896943L116.873 0.932916L102.781 25.9438ZM136.137 12.9266L132.124 20.9827L149.826 52.0414L168.729 85.1856L178.826 83.1391C184.827 83.5487 189.434 84.4235 188.93 83.103C186.488 76.7146 143.453 4.91233 142.17 4.86334C141.353 4.83461 138.453 7.84833 136.137 12.9266ZM121.913 43.2162L116.429 51.9756L124.457 66.6067C134.367 83.298 134.835 88.5348 145.362 88.4972L153.862 81.1613L143.097 62.3272C137.176 51.9672 127.463 35.5507 126.104 33.0668C123.875 28.9812 126.868 35.2964 121.913 43.2162ZM106.758 70.9802C104.884 74.6688 102.523 80.3956 102.027 81.4031C102.027 81.4031 106.596 81.3868 112.131 81.367L122.235 81.3309L116.518 72.7717C113.68 68.0941 111.086 64.268 110.758 64.2692C110.427 64.2703 108.629 67.2915 106.758 70.9802ZM10.5725 94.458C12.5568 97.4632 22.4312 114.533 32.5196 132.385L50.8604 164.849L56.5688 155.506C61.4667 147.489 61.8199 145.462 59.0457 141.232C57.2687 138.521 49.7881 125.639 42.4238 112.608L29.036 88.9129L17.9998 88.9523C7.15261 88.9911 7.02615 89.0841 10.5725 94.458ZM42.3391 89.6081C42.3411 90.1706 48.1707 100.808 55.2943 113.246L68.2458 135.859L73.0725 126.011L77.8968 116.163L70.6839 103.085C63.8689 90.7341 62.8818 89.9681 52.902 89.2976C47.0892 88.9044 42.3371 89.0455 42.3391 89.6081ZM78.6572 96.6499C80.9347 100.996 83.1311 104.923 83.5404 105.382C84.3315 106.261 92.0618 92.3136 92.0536 90.027C92.051 89.2892 88.1041 88.7018 83.2845 88.719L74.5227 88.7503L78.6572 96.6499ZM89.0534 113.659C81.2777 127.416 71.017 145.534 66.2522 153.921L57.5846 169.171L68.1259 169.097L78.6648 169.021L101.352 128.798L124.039 88.5734L113.614 88.6106L103.187 88.6479L89.0534 113.659ZM117.587 115.992C109.145 131.091 98.8694 149.207 94.751 156.254L87.2653 169.065L97.941 169.027L108.617 168.989L123.967 141.539C132.409 126.442 142.684 108.324 146.803 101.277L154.289 88.4653L143.613 88.5034L132.937 88.5416L117.587 115.992ZM142.293 128.08L119.862 167.731L127.464 168.483C131.646 168.899 136.433 168.717 138.106 168.083C140.799 167.06 184.034 93.3194 184.022 89.769C184.019 88.9946 179.677 88.3746 174.37 88.3935L164.723 88.428L142.293 128.08Z" fill="#E31E24"/>
</g>
<mask id="mask1_85_2751" style="mask-type:alpha" maskUnits="userSpaceOnUse" x="9" y="89" width="187" height="82">
<path d="M51.8078 166.021L93.9721 89.4738L9.09746 89.7771L51.8078 166.021Z" fill="#C4C4C4"/>
<path d="M55.8638 170.027L98.0138 89.4588L195.013 89.1121L158.926 169.658L55.8638 170.027Z" fill="#C4C4C4"/>
</mask>
<g mask="url(#mask1_85_2751)">
<path fill-rule="evenodd" clip-rule="evenodd" d="M158.842 137.392C168.9 119.609 179.235 101.493 181.81 97.1299L186.931 89.1406L174.806 89.184L164.701 89.2201L142.305 129.637L119.732 169.798L130.144 169.761L140.559 169.724L158.842 137.392ZM128.827 137.758C138.759 120.116 149.084 101.998 151.775 97.4953L156.618 89.249L145.88 89.2874L134.389 89.3284L112.44 129.729L89.835 169.905L100.304 169.867L110.774 169.83L128.827 137.758ZM93.2182 144.932C100.966 131.175 111.035 113.547 115.588 105.758C120.144 97.9687 124.287 90.0391 124.285 89.3645C124.285 89.3645 120.243 89.379 114.181 89.4006L104.077 89.4367L82.4123 127.316C70.926 147.447 60.6058 168.334 59.9059 170.012C59.9059 170.012 61.9787 170.004 69.0602 169.979L79.1269 169.943L93.2182 144.932ZM59.8628 157.949L63.8757 149.893L46.1735 118.835L27.271 85.6903L17.174 87.7368C11.1722 87.3273 6.56555 86.4524 7.06989 87.7729C9.51125 94.1614 52.5463 165.964 53.8291 166.013C54.6469 166.041 57.5469 163.028 59.8628 157.949ZM74.0866 127.66L79.571 118.9L71.5422 104.269C61.6322 87.578 61.1644 82.3412 50.6378 82.3788L42.1372 89.7147L52.9027 108.549C58.8233 118.909 68.5365 135.325 69.8951 137.809C72.1244 141.895 69.1312 135.58 74.0866 127.66ZM89.2418 99.8958C91.1152 96.2071 93.4766 90.4803 93.9726 89.4728C93.9726 89.4728 89.4039 89.4892 83.8685 89.5089L73.7643 89.545L79.4817 98.1043C82.3196 102.782 84.9134 106.608 85.2415 106.607C85.5721 106.606 87.3709 103.584 89.2418 99.8958ZM185.427 76.418C183.443 73.4128 173.568 56.3434 163.48 38.4907L145.139 6.02729L139.431 15.3695C134.533 23.3865 134.18 25.4139 136.954 29.6436C138.731 32.3549 146.211 45.237 153.576 58.268L166.964 81.9631L178 81.9237C188.847 81.8849 188.973 81.7919 185.427 76.418ZM153.66 81.2679C153.658 80.7054 147.829 70.0675 140.705 57.6298L127.754 35.0168L122.927 44.8648L118.103 54.7128L125.316 67.7907C132.131 80.1419 133.118 80.9079 143.097 81.5784C148.91 81.9716 153.662 81.8304 153.66 81.2679ZM117.342 74.2261C115.065 69.8802 112.868 65.9528 112.459 65.494C111.668 64.6153 103.938 78.5624 103.946 80.849C103.949 81.5868 107.895 82.1742 112.715 82.157L121.477 82.1256L117.342 74.2261ZM106.946 57.2171C114.722 43.4598 124.982 25.342 129.747 16.9553L138.415 1.70453L127.874 1.77873L117.335 1.85535L94.6478 42.0777L71.9608 82.3026L82.3855 82.2653L92.8127 82.2281L106.946 57.2171ZM78.4125 54.8839C86.8545 39.7849 97.1301 21.6695 101.248 14.622L108.734 1.81059L98.0585 1.84874L87.3828 1.88689L72.0326 29.3374C63.5906 44.4339 53.315 62.5518 49.1967 69.5993L41.7109 82.4107L52.3866 82.3725L63.0624 82.3344L78.4125 54.8839ZM53.7067 42.7963L76.1372 3.14466L68.5359 2.39256C64.3536 1.97649 59.5669 2.15918 57.8938 2.79343C55.2006 3.81609 11.9652 77.5565 11.9779 81.107C11.9807 81.8813 16.3228 82.5014 21.6296 82.4824L31.2763 82.448L53.7067 42.7963Z" fill="#E31E24"/>
</g>
</svg>
