<svg width="223" height="84" viewBox="0 0 223 84" fill="none" xmlns="http://www.w3.org/2000/svg">
<mask id="mask0_1_14" style="mask-type:alpha" maskUnits="userSpaceOnUse" x="127" y="0" width="92" height="40">
<path d="M197.789 1.99405L176.851 39.881H218.726L197.789 1.99405Z" fill="#C4C4C4"/>
<path d="M195.795 0L174.857 39.881H127L144.946 0H195.795Z" fill="#C4C4C4"/>
</mask>
<g mask="url(#mask0_1_14)">
<path fill-rule="evenodd" clip-rule="evenodd" d="M144.931 16.0016C139.937 24.803 134.806 33.7687 133.529 35.928L130.988 39.881H136.97H141.955L153.076 19.8769L164.284 1.66099e-05H159.147H154.008L144.931 16.0016ZM159.74 15.8735C154.809 24.605 149.683 33.5719 148.348 35.8L145.943 39.881H151.242H156.911L167.811 19.8842L179.034 1.66099e-05H173.869H168.704L159.74 15.8735ZM177.321 12.3786C173.474 19.1874 168.476 27.9115 166.215 31.7664C163.954 35.6213 161.896 39.5465 161.896 39.881C161.896 39.881 163.89 39.881 166.881 39.881H171.866L182.621 21.1341C188.324 11.1709 193.452 0.830873 193.801 0C193.801 0 192.778 1.66099e-05 189.284 1.66099e-05H184.317L177.321 12.3786ZM193.801 5.98215L191.807 9.97025L200.485 25.4044L209.753 41.875L214.738 40.878C217.699 41.0918 219.97 41.5338 219.723 40.878C218.53 37.7055 197.424 2.02062 196.792 1.99405C196.388 1.97835 194.952 3.46779 193.801 5.98215ZM186.73 20.9783L184.008 25.3126L187.944 32.5828C192.804 40.878 193.025 43.4759 198.219 43.4759L202.426 39.8529L197.147 30.4935C194.245 25.3452 189.481 17.1866 188.815 15.9524C187.723 13.9223 189.188 17.0595 186.73 20.9783ZM179.204 34.7203C178.273 36.5463 177.098 39.3822 176.851 39.881C176.851 39.881 179.105 39.881 181.836 39.881H186.821L184.016 35.6261C182.624 33.3013 181.351 31.3993 181.189 31.3993C181.026 31.3993 180.133 32.8944 179.204 34.7203ZM131.707 46.1931C132.681 47.687 137.523 56.1697 142.469 65.0412L151.46 81.1731L154.293 76.5502C156.724 72.583 156.901 71.5782 155.54 69.4757C154.668 68.1279 151 61.7261 147.39 55.2506L140.827 43.4759H135.382C130.03 43.4759 129.967 43.5218 131.707 46.1931ZM147.389 43.8442C147.389 44.1232 150.246 49.4091 153.739 55.59L160.089 66.8273L162.487 61.9519L164.885 57.0766L161.349 50.5782C158.009 44.4408 157.523 44.0592 152.601 43.709C149.733 43.5037 147.389 43.5653 147.389 43.8442ZM165.294 47.4008C166.41 49.5601 167.487 51.5117 167.688 51.7399C168.077 52.1771 171.915 45.2741 171.915 44.1401C171.915 43.7742 169.969 43.4759 167.591 43.4759H163.269L165.294 47.4008ZM170.394 55.8545C166.533 62.6633 161.439 71.6302 159.073 75.7809L154.77 83.3288L159.971 83.3107L165.171 83.2914L176.435 63.3842L187.698 43.4759H182.555H177.411L170.394 55.8545ZM184.467 57.0621C180.275 64.5351 175.174 73.5008 173.13 76.9886L169.414 83.3288H174.681H179.948L187.57 69.7426C191.761 62.2708 196.863 53.3039 198.907 49.8161L202.623 43.4759H197.356H192.089L184.467 57.0621ZM196.635 63.1004L185.498 82.725L189.247 83.1114C191.31 83.3252 193.672 83.2431 194.498 82.9315C195.829 82.4291 217.29 45.9359 217.29 44.1751C217.29 43.7911 215.149 43.4759 212.531 43.4759H207.771L196.635 63.1004Z" fill="#E31E24"/>
</g>
<mask id="mask1_1_14" style="mask-type:alpha" maskUnits="userSpaceOnUse" x="130" y="43" width="93" height="41">
<path d="M151.926 81.7559L172.863 43.869L130.988 43.869L151.926 81.7559Z" fill="#C4C4C4"/>
<path d="M153.92 83.75L174.857 43.869L222.714 43.869L204.768 83.75L153.92 83.75Z" fill="#C4C4C4"/>
</mask>
<g mask="url(#mask1_1_14)">
<path fill-rule="evenodd" clip-rule="evenodd" d="M204.783 67.7484C209.777 58.947 214.908 49.9813 216.186 47.822L218.726 43.869L212.744 43.869L207.759 43.869L196.638 63.873L185.43 83.75L190.567 83.75L195.706 83.75L204.783 67.7484ZM189.974 67.8764C194.905 59.145 200.031 50.1781 201.367 47.95L203.771 43.869L198.473 43.869L192.804 43.869L181.903 63.8658L170.68 83.75L175.845 83.75L181.011 83.75L189.974 67.8764ZM172.393 71.3714C176.24 64.5626 181.239 55.8385 183.499 51.9836C185.76 48.1287 187.818 44.2035 187.818 43.869C187.818 43.869 185.824 43.869 182.833 43.869L177.848 43.869L167.093 62.6159C161.39 72.5791 156.262 82.9191 155.914 83.75C155.914 83.75 156.936 83.75 160.43 83.75L165.397 83.75L172.393 71.3714ZM155.914 77.7678L157.908 73.7797L149.229 58.3456L139.961 41.875L134.976 42.872C132.016 42.6582 129.744 42.2162 129.991 42.872C131.184 46.0445 152.29 81.7294 152.923 81.7559C153.326 81.7716 154.762 80.2822 155.914 77.7678ZM162.985 62.7716L165.706 58.4373L161.77 51.1672C156.911 42.872 156.689 40.2741 151.496 40.2741L147.289 43.8971L152.567 53.2565C155.47 58.4047 160.233 66.5634 160.899 67.7976C161.991 69.8277 160.526 66.6905 162.985 62.7716ZM170.511 49.0296C171.441 47.2037 172.617 44.3678 172.863 43.869C172.863 43.869 170.609 43.869 167.878 43.869L162.893 43.869L165.698 48.1239C167.09 50.4486 168.363 52.3507 168.525 52.3507C168.688 52.3507 169.581 50.8556 170.511 49.0296ZM218.007 37.5568C217.033 36.063 212.191 27.5803 207.246 18.7088L198.254 2.57687L195.421 7.1998C192.991 11.167 192.813 12.1717 194.174 14.2743C195.046 15.622 198.714 22.0239 202.324 28.4994L208.888 40.2741L214.333 40.2741C219.684 40.2741 219.747 40.2282 218.007 37.5568ZM202.326 39.9057C202.326 39.6268 199.468 34.3408 195.976 28.16L189.626 16.9227L187.227 21.798L184.829 26.6734L188.365 33.1718C191.705 39.3092 192.191 39.6908 197.114 40.041C199.981 40.2463 202.326 40.1847 202.326 39.9057ZM184.42 36.3492C183.304 34.1899 182.227 32.2383 182.026 32.01C181.637 31.5729 177.799 38.4759 177.799 39.6099C177.799 39.9758 179.745 40.2741 182.123 40.2741L186.446 40.2741L184.42 36.3492ZM179.321 27.8955C183.181 21.0867 188.275 12.1198 190.641 7.96908L194.944 0.421184L189.743 0.439295L184.544 0.458616L173.28 20.3657L162.016 40.2741L167.159 40.2741L172.304 40.2741L179.321 27.8955ZM165.247 26.6879C169.439 19.2148 174.54 10.2491 176.585 6.76141L180.3 0.421183L175.033 0.421182L169.766 0.421182L162.145 14.0074C157.953 21.4792 152.851 30.4461 150.807 33.9338L147.091 40.2741L152.358 40.2741L157.625 40.2741L165.247 26.6879ZM153.079 20.6496L164.216 1.02501L160.467 0.638558C158.404 0.424801 156.042 0.506924 155.216 0.818501C153.885 1.32089 132.424 37.8141 132.424 39.5748C132.424 39.9589 134.565 40.2741 137.184 40.2741L141.943 40.2741L153.079 20.6496Z" fill="#E31E24"/>
</g>
<path d="M18.4219 24.8613H21.7969C21.6211 26.4785 21.1582 27.9258 20.4082 29.2031C19.6582 30.4805 18.5977 31.4941 17.2266 32.2441C15.8555 32.9824 14.1445 33.3516 12.0938 33.3516C10.5938 33.3516 9.22852 33.0703 7.99805 32.5078C6.7793 31.9453 5.73047 31.1484 4.85156 30.1172C3.97266 29.0742 3.29297 27.8262 2.8125 26.373C2.34375 24.9082 2.10938 23.2793 2.10938 21.4863V18.9375C2.10938 17.1445 2.34375 15.5215 2.8125 14.0684C3.29297 12.6035 3.97852 11.3496 4.86914 10.3066C5.77148 9.26367 6.85547 8.46094 8.12109 7.89844C9.38672 7.33594 10.8105 7.05469 12.3926 7.05469C14.3262 7.05469 15.9609 7.41797 17.2969 8.14453C18.6328 8.87109 19.6699 9.87891 20.4082 11.168C21.1582 12.4453 21.6211 13.9277 21.7969 15.6152H18.4219C18.2578 14.4199 17.9531 13.3945 17.5078 12.5391C17.0625 11.6719 16.4297 11.0039 15.6094 10.5352C14.7891 10.0664 13.7168 9.83203 12.3926 9.83203C11.2559 9.83203 10.2539 10.0488 9.38672 10.4824C8.53125 10.916 7.81055 11.5313 7.22461 12.3281C6.65039 13.125 6.2168 14.0801 5.92383 15.1934C5.63086 16.3066 5.48438 17.543 5.48438 18.9023V21.4863C5.48438 22.7402 5.61328 23.918 5.87109 25.0195C6.14062 26.1211 6.54492 27.0879 7.08398 27.9199C7.62305 28.752 8.30859 29.4082 9.14062 29.8887C9.97266 30.3574 10.957 30.5918 12.0938 30.5918C13.5352 30.5918 14.6836 30.3633 15.5391 29.9062C16.3945 29.4492 17.0391 28.793 17.4727 27.9375C17.918 27.082 18.2344 26.0566 18.4219 24.8613ZM29.1797 16.9688V33H25.9277V13.9805H29.0918L29.1797 16.9688ZM35.1211 13.875L35.1035 16.8984C34.834 16.8398 34.5762 16.8047 34.3301 16.793C34.0957 16.7695 33.8262 16.7578 33.5215 16.7578C32.7715 16.7578 32.1094 16.875 31.5352 17.1094C30.9609 17.3438 30.4746 17.6719 30.0762 18.0938C29.6777 18.5156 29.3613 19.0195 29.127 19.6055C28.9043 20.1797 28.7578 20.8125 28.6875 21.5039L27.7734 22.0312C27.7734 20.8828 27.8848 19.8047 28.1074 18.7969C28.3418 17.7891 28.6992 16.8984 29.1797 16.125C29.6602 15.3398 30.2695 14.7305 31.0078 14.2969C31.7578 13.8516 32.6484 13.6289 33.6797 13.6289C33.9141 13.6289 34.1836 13.6582 34.4883 13.7168C34.793 13.7637 35.0039 13.8164 35.1211 13.875ZM45.668 33.3516C44.3438 33.3516 43.1426 33.1289 42.0645 32.6836C40.998 32.2266 40.0781 31.5879 39.3047 30.7676C38.543 29.9473 37.957 28.9746 37.5469 27.8496C37.1367 26.7246 36.9316 25.4941 36.9316 24.1582V23.4199C36.9316 21.873 37.1602 20.4961 37.6172 19.2891C38.0742 18.0703 38.6953 17.0391 39.4805 16.1953C40.2656 15.3516 41.1562 14.7129 42.1523 14.2793C43.1484 13.8457 44.1797 13.6289 45.2461 13.6289C46.6055 13.6289 47.7773 13.8633 48.7617 14.332C49.7578 14.8008 50.5723 15.457 51.2051 16.3008C51.8379 17.1328 52.3066 18.1172 52.6113 19.2539C52.916 20.3789 53.0684 21.6094 53.0684 22.9453V24.4043H38.8652V21.75H49.8164V21.5039C49.7695 20.6602 49.5938 19.8398 49.2891 19.043C48.9961 18.2461 48.5273 17.5898 47.8828 17.0742C47.2383 16.5586 46.3594 16.3008 45.2461 16.3008C44.5078 16.3008 43.8281 16.459 43.207 16.7754C42.5859 17.0801 42.0527 17.5371 41.6074 18.1465C41.1621 18.7559 40.8164 19.5 40.5703 20.3789C40.3242 21.2578 40.2012 22.2715 40.2012 23.4199V24.1582C40.2012 25.0605 40.3242 25.9102 40.5703 26.707C40.8281 27.4922 41.1973 28.1836 41.6777 28.7812C42.1699 29.3789 42.7617 29.8477 43.4531 30.1875C44.1562 30.5273 44.9531 30.6973 45.8438 30.6973C46.9922 30.6973 47.9648 30.4629 48.7617 29.9941C49.5586 29.5254 50.2559 28.8984 50.8535 28.1133L52.8223 29.6777C52.4121 30.2988 51.8906 30.8906 51.2578 31.4531C50.625 32.0156 49.8457 32.4727 48.9199 32.8242C48.0059 33.1758 46.9219 33.3516 45.668 33.3516ZM68.8535 29.3086V6H72.123V33H69.1348L68.8535 29.3086ZM56.0566 23.7012V23.332C56.0566 21.8789 56.2324 20.5605 56.584 19.377C56.9473 18.1816 57.457 17.1562 58.1133 16.3008C58.7812 15.4453 59.5723 14.7891 60.4863 14.332C61.4121 13.8633 62.4434 13.6289 63.5801 13.6289C64.7754 13.6289 65.8184 13.8398 66.709 14.2617C67.6113 14.6719 68.373 15.2754 68.9941 16.0723C69.627 16.8574 70.125 17.8066 70.4883 18.9199C70.8516 20.0332 71.1035 21.293 71.2441 22.6992V24.3164C71.1152 25.7109 70.8633 26.9648 70.4883 28.0781C70.125 29.1914 69.627 30.1406 68.9941 30.9258C68.373 31.7109 67.6113 32.3145 66.709 32.7363C65.8066 33.1465 64.752 33.3516 63.5449 33.3516C62.4316 33.3516 61.4121 33.1113 60.4863 32.6309C59.5723 32.1504 58.7812 31.4766 58.1133 30.6094C57.457 29.7422 56.9473 28.7227 56.584 27.5508C56.2324 26.3672 56.0566 25.084 56.0566 23.7012ZM59.3262 23.332V23.7012C59.3262 24.6504 59.4199 25.541 59.6074 26.373C59.8066 27.2051 60.1113 27.9375 60.5215 28.5703C60.9316 29.2031 61.4531 29.7012 62.0859 30.0645C62.7188 30.416 63.4746 30.5918 64.3535 30.5918C65.4316 30.5918 66.3164 30.3633 67.0078 29.9062C67.7109 29.4492 68.2734 28.8457 68.6953 28.0957C69.1172 27.3457 69.4453 26.5312 69.6797 25.6523V21.416C69.5391 20.7715 69.334 20.1504 69.0645 19.5527C68.8066 18.9434 68.4668 18.4043 68.0449 17.9355C67.6348 17.4551 67.125 17.0742 66.5156 16.793C65.918 16.5117 65.209 16.3711 64.3887 16.3711C63.498 16.3711 62.7305 16.5586 62.0859 16.9336C61.4531 17.2969 60.9316 17.8008 60.5215 18.4453C60.1113 19.0781 59.8066 19.8164 59.6074 20.6602C59.4199 21.4922 59.3262 22.3828 59.3262 23.332ZM80.7188 13.9805V33H77.4492V13.9805H80.7188ZM77.2031 8.93555C77.2031 8.4082 77.3613 7.96289 77.6777 7.59961C78.0059 7.23633 78.4863 7.05469 79.1191 7.05469C79.7402 7.05469 80.2148 7.23633 80.543 7.59961C80.8828 7.96289 81.0527 8.4082 81.0527 8.93555C81.0527 9.43945 80.8828 9.87305 80.543 10.2363C80.2148 10.5879 79.7402 10.7637 79.1191 10.7637C78.4863 10.7637 78.0059 10.5879 77.6777 10.2363C77.3613 9.87305 77.2031 9.43945 77.2031 8.93555ZM93.9023 13.9805V16.4766H83.6191V13.9805H93.9023ZM87.0996 9.35742H90.3516V28.2891C90.3516 28.9336 90.4512 29.4199 90.6504 29.748C90.8496 30.0762 91.1074 30.293 91.4238 30.3984C91.7402 30.5039 92.0801 30.5566 92.4434 30.5566C92.7129 30.5566 92.9941 30.5332 93.2871 30.4863C93.5918 30.4277 93.8203 30.3809 93.9727 30.3457L93.9902 33C93.7324 33.082 93.3926 33.1582 92.9707 33.2285C92.5605 33.3105 92.0625 33.3516 91.4766 33.3516C90.6797 33.3516 89.9473 33.1934 89.2793 32.877C88.6113 32.5605 88.0781 32.0332 87.6797 31.2949C87.293 30.5449 87.0996 29.5371 87.0996 28.2715V9.35742ZM19.2305 72.2402V75H5.67773V72.2402H19.2305ZM6.36328 49.4062V75H2.9707V49.4062H6.36328ZM17.4375 60.4102V63.1699H5.67773V60.4102H17.4375ZM19.0547 49.4062V52.1836H5.67773V49.4062H19.0547ZM25.1367 55.9805L29.3027 62.9062L33.5215 55.9805H37.3359L31.1133 65.3672L37.5293 75H33.7676L29.373 67.8633L24.9785 75H21.1992L27.5977 65.3672L21.3926 55.9805H25.1367ZM44.0508 59.6367V82.3125H40.7812V55.9805H43.7695L44.0508 59.6367ZM56.8652 65.332V65.7012C56.8652 67.084 56.7012 68.3672 56.373 69.5508C56.0449 70.7227 55.5645 71.7422 54.9316 72.6094C54.3105 73.4766 53.543 74.1504 52.6289 74.6309C51.7148 75.1113 50.666 75.3516 49.4824 75.3516C48.2754 75.3516 47.209 75.1523 46.2832 74.7539C45.3574 74.3555 44.5723 73.7754 43.9277 73.0137C43.2832 72.252 42.7676 71.3379 42.3809 70.2715C42.0059 69.2051 41.748 68.0039 41.6074 66.668V64.6992C41.748 63.293 42.0117 62.0332 42.3984 60.9199C42.7852 59.8066 43.2949 58.8574 43.9277 58.0723C44.5723 57.2754 45.3516 56.6719 46.2656 56.2617C47.1797 55.8398 48.2344 55.6289 49.4297 55.6289C50.625 55.6289 51.6855 55.8633 52.6113 56.332C53.5371 56.7891 54.3164 57.4453 54.9492 58.3008C55.582 59.1562 56.0566 60.1816 56.373 61.377C56.7012 62.5605 56.8652 63.8789 56.8652 65.332ZM53.5957 65.7012V65.332C53.5957 64.3828 53.4961 63.4922 53.2969 62.6602C53.0977 61.8164 52.7871 61.0781 52.3652 60.4453C51.9551 59.8008 51.4277 59.2969 50.7832 58.9336C50.1387 58.5586 49.3711 58.3711 48.4805 58.3711C47.6602 58.3711 46.9453 58.5117 46.3359 58.793C45.7383 59.0742 45.2285 59.4551 44.8066 59.9355C44.3848 60.4043 44.0391 60.9434 43.7695 61.5527C43.5117 62.1504 43.3184 62.7715 43.1895 63.416V67.9688C43.4238 68.7891 43.752 69.5625 44.1738 70.2891C44.5957 71.0039 45.1582 71.584 45.8613 72.0293C46.5645 72.4629 47.4492 72.6797 48.5156 72.6797C49.3945 72.6797 50.1504 72.498 50.7832 72.1348C51.4277 71.7598 51.9551 71.25 52.3652 70.6055C52.7871 69.9609 53.0977 69.2227 53.2969 68.3906C53.4961 67.5469 53.5957 66.6504 53.5957 65.7012ZM64.2656 58.9688V75H61.0137V55.9805H64.1777L64.2656 58.9688ZM70.207 55.875L70.1895 58.8984C69.9199 58.8398 69.6621 58.8047 69.416 58.793C69.1816 58.7695 68.9121 58.7578 68.6074 58.7578C67.8574 58.7578 67.1953 58.875 66.6211 59.1094C66.0469 59.3438 65.5605 59.6719 65.1621 60.0938C64.7637 60.5156 64.4473 61.0195 64.2129 61.6055C63.9902 62.1797 63.8438 62.8125 63.7734 63.5039L62.8594 64.0312C62.8594 62.8828 62.9707 61.8047 63.1934 60.7969C63.4277 59.7891 63.7852 58.8984 64.2656 58.125C64.7461 57.3398 65.3555 56.7305 66.0938 56.2969C66.8438 55.8516 67.7344 55.6289 68.7656 55.6289C69 55.6289 69.2695 55.6582 69.5742 55.7168C69.8789 55.7637 70.0898 55.8164 70.207 55.875ZM80.7539 75.3516C79.4297 75.3516 78.2285 75.1289 77.1504 74.6836C76.084 74.2266 75.1641 73.5879 74.3906 72.7676C73.6289 71.9473 73.043 70.9746 72.6328 69.8496C72.2227 68.7246 72.0176 67.4941 72.0176 66.1582V65.4199C72.0176 63.873 72.2461 62.4961 72.7031 61.2891C73.1602 60.0703 73.7812 59.0391 74.5664 58.1953C75.3516 57.3516 76.2422 56.7129 77.2383 56.2793C78.2344 55.8457 79.2656 55.6289 80.332 55.6289C81.6914 55.6289 82.8633 55.8633 83.8477 56.332C84.8438 56.8008 85.6582 57.457 86.291 58.3008C86.9238 59.1328 87.3926 60.1172 87.6973 61.2539C88.002 62.3789 88.1543 63.6094 88.1543 64.9453V66.4043H73.9512V63.75H84.9023V63.5039C84.8555 62.6602 84.6797 61.8398 84.375 61.043C84.082 60.2461 83.6133 59.5898 82.9688 59.0742C82.3242 58.5586 81.4453 58.3008 80.332 58.3008C79.5938 58.3008 78.9141 58.459 78.293 58.7754C77.6719 59.0801 77.1387 59.5371 76.6934 60.1465C76.248 60.7559 75.9023 61.5 75.6562 62.3789C75.4102 63.2578 75.2871 64.2715 75.2871 65.4199V66.1582C75.2871 67.0605 75.4102 67.9102 75.6562 68.707C75.9141 69.4922 76.2832 70.1836 76.7637 70.7812C77.2559 71.3789 77.8477 71.8477 78.5391 72.1875C79.2422 72.5273 80.0391 72.6973 80.9297 72.6973C82.0781 72.6973 83.0508 72.4629 83.8477 71.9941C84.6445 71.5254 85.3418 70.8984 85.9395 70.1133L87.9082 71.6777C87.498 72.2988 86.9766 72.8906 86.3438 73.4531C85.7109 74.0156 84.9316 74.4727 84.0059 74.8242C83.0918 75.1758 82.0078 75.3516 80.7539 75.3516ZM103.025 69.9551C103.025 69.4863 102.92 69.0527 102.709 68.6543C102.51 68.2441 102.094 67.875 101.461 67.5469C100.84 67.207 99.9023 66.9141 98.6484 66.668C97.5938 66.4453 96.6387 66.1816 95.7832 65.877C94.9395 65.5723 94.2188 65.2031 93.6211 64.7695C93.0352 64.3359 92.584 63.8262 92.2676 63.2402C91.9512 62.6543 91.793 61.9688 91.793 61.1836C91.793 60.4336 91.957 59.7246 92.2852 59.0566C92.625 58.3887 93.0996 57.7969 93.709 57.2812C94.3301 56.7656 95.0742 56.3613 95.9414 56.0684C96.8086 55.7754 97.7754 55.6289 98.8418 55.6289C100.365 55.6289 101.666 55.8984 102.744 56.4375C103.822 56.9766 104.648 57.6973 105.223 58.5996C105.797 59.4902 106.084 60.4805 106.084 61.5703H102.832C102.832 61.043 102.674 60.5332 102.357 60.041C102.053 59.5371 101.602 59.1211 101.004 58.793C100.418 58.4648 99.6973 58.3008 98.8418 58.3008C97.9395 58.3008 97.207 58.4414 96.6445 58.7227C96.0938 58.9922 95.6895 59.3379 95.4316 59.7598C95.1855 60.1816 95.0625 60.627 95.0625 61.0957C95.0625 61.4473 95.1211 61.7637 95.2383 62.0449C95.3672 62.3145 95.5898 62.5664 95.9062 62.8008C96.2227 63.0234 96.668 63.2344 97.2422 63.4336C97.8164 63.6328 98.5488 63.832 99.4395 64.0312C100.998 64.3828 102.281 64.8047 103.289 65.2969C104.297 65.7891 105.047 66.3926 105.539 67.1074C106.031 67.8223 106.277 68.6895 106.277 69.709C106.277 70.541 106.102 71.3027 105.75 71.9941C105.41 72.6855 104.912 73.2832 104.256 73.7871C103.611 74.2793 102.838 74.666 101.936 74.9473C101.045 75.2168 100.043 75.3516 98.9297 75.3516C97.2539 75.3516 95.8359 75.0527 94.6758 74.4551C93.5156 73.8574 92.6367 73.084 92.0391 72.1348C91.4414 71.1855 91.1426 70.1836 91.1426 69.1289H94.4121C94.459 70.0195 94.7168 70.7285 95.1855 71.2559C95.6543 71.7715 96.2285 72.1406 96.9082 72.3633C97.5879 72.5742 98.2617 72.6797 98.9297 72.6797C99.8203 72.6797 100.564 72.5625 101.162 72.3281C101.771 72.0938 102.234 71.7715 102.551 71.3613C102.867 70.9512 103.025 70.4824 103.025 69.9551ZM121.623 69.9551C121.623 69.4863 121.518 69.0527 121.307 68.6543C121.107 68.2441 120.691 67.875 120.059 67.5469C119.438 67.207 118.5 66.9141 117.246 66.668C116.191 66.4453 115.236 66.1816 114.381 65.877C113.537 65.5723 112.816 65.2031 112.219 64.7695C111.633 64.3359 111.182 63.8262 110.865 63.2402C110.549 62.6543 110.391 61.9688 110.391 61.1836C110.391 60.4336 110.555 59.7246 110.883 59.0566C111.223 58.3887 111.697 57.7969 112.307 57.2812C112.928 56.7656 113.672 56.3613 114.539 56.0684C115.406 55.7754 116.373 55.6289 117.439 55.6289C118.963 55.6289 120.264 55.8984 121.342 56.4375C122.42 56.9766 123.246 57.6973 123.82 58.5996C124.395 59.4902 124.682 60.4805 124.682 61.5703H121.43C121.43 61.043 121.271 60.5332 120.955 60.041C120.65 59.5371 120.199 59.1211 119.602 58.793C119.016 58.4648 118.295 58.3008 117.439 58.3008C116.537 58.3008 115.805 58.4414 115.242 58.7227C114.691 58.9922 114.287 59.3379 114.029 59.7598C113.783 60.1816 113.66 60.627 113.66 61.0957C113.66 61.4473 113.719 61.7637 113.836 62.0449C113.965 62.3145 114.188 62.5664 114.504 62.8008C114.82 63.0234 115.266 63.2344 115.84 63.4336C116.414 63.6328 117.146 63.832 118.037 64.0312C119.596 64.3828 120.879 64.8047 121.887 65.2969C122.895 65.7891 123.645 66.3926 124.137 67.1074C124.629 67.8223 124.875 68.6895 124.875 69.709C124.875 70.541 124.699 71.3027 124.348 71.9941C124.008 72.6855 123.51 73.2832 122.854 73.7871C122.209 74.2793 121.436 74.666 120.533 74.9473C119.643 75.2168 118.641 75.3516 117.527 75.3516C115.852 75.3516 114.434 75.0527 113.273 74.4551C112.113 73.8574 111.234 73.084 110.637 72.1348C110.039 71.1855 109.74 70.1836 109.74 69.1289H113.01C113.057 70.0195 113.314 70.7285 113.783 71.2559C114.252 71.7715 114.826 72.1406 115.506 72.3633C116.186 72.5742 116.859 72.6797 117.527 72.6797C118.418 72.6797 119.162 72.5625 119.76 72.3281C120.369 72.0938 120.832 71.7715 121.148 71.3613C121.465 70.9512 121.623 70.4824 121.623 69.9551Z" fill="black"/>
</svg>
