<svg width="20" height="20" viewBox="0 0 20 20" fill="none" xmlns="http://www.w3.org/2000/svg">
<path fill-rule="evenodd" clip-rule="evenodd" d="M2.03522 0.0464247C1.53468 0.157998 1.09988 0.394838 0.745714 0.748846C0.45272 1.04171 0.25636 1.3573 0.110528 1.76991L0 2.08249V4.68405V7.28561L0.110528 7.59819C0.395773 8.4051 0.958121 8.96375 1.77706 9.25376L2.07436 9.35903H4.6771H7.27984L7.59256 9.24855C8.39984 8.96344 8.95875 8.40135 9.24889 7.58277L9.35421 7.28561V4.68405V2.08249L9.24889 1.78532C8.95875 0.966751 8.39984 0.404658 7.59256 0.119542L7.27984 0.00906399L4.77495 0.00159184C2.80427 -0.00431547 2.21996 0.00526923 2.03522 0.0464247ZM12.681 0.0464247C12.1805 0.157998 11.7457 0.394838 11.3915 0.748846C11.0985 1.04171 10.9022 1.3573 10.7563 1.76991L10.6458 2.08249V4.68405V7.28561L10.7563 7.59819C11.0416 8.4051 11.6039 8.96375 12.4229 9.25376L12.7202 9.35903H15.3229H17.9256L18.2384 9.24855C19.0456 8.96344 19.6045 8.40135 19.8947 7.58277L20 7.28561V4.68405V2.08249L19.8947 1.78532C19.6045 0.966751 19.0456 0.404658 18.2384 0.119542L17.9256 0.00906399L15.4207 0.00159184C13.4501 -0.00431547 12.8658 0.00526923 12.681 0.0464247ZM7.34497 1.36974C7.62693 1.50815 7.85444 1.73556 7.99292 2.01739L8.10176 2.23897V4.68405V7.12912L7.99589 7.34456C7.85957 7.62205 7.61761 7.86452 7.34204 7.99977L7.12329 8.10715H4.6771H2.23092L2.01538 8.00133C1.73777 7.86507 1.49519 7.62322 1.35988 7.34777L1.25245 7.12912L1.24008 4.80141C1.23143 3.17702 1.24106 2.4122 1.27182 2.27011C1.36051 1.86106 1.72798 1.45886 2.14622 1.31317C2.3335 1.24792 2.52376 1.24342 4.73581 1.25183L7.12329 1.26094L7.34497 1.36974ZM17.9908 1.36974C18.2727 1.50815 18.5002 1.73556 18.6387 2.01739L18.7476 2.23897V4.68405V7.12912L18.6417 7.34456C18.5054 7.62205 18.2634 7.86452 17.9878 7.99977L17.7691 8.10715H15.3229H12.8767L12.6612 8.00133C12.3836 7.86507 12.141 7.62322 12.0057 7.34777L11.8982 7.12912L11.8859 4.80141C11.8772 3.17702 11.8868 2.4122 11.9176 2.27011C12.0063 1.86106 12.3738 1.45886 12.792 1.31317C12.9793 1.24792 13.1695 1.24342 15.3816 1.25183L17.7691 1.26094L17.9908 1.36974ZM2.03522 10.6874C1.53468 10.799 1.09988 11.0358 0.745714 11.3898C0.45272 11.6827 0.25636 11.9983 0.110528 12.4109L0 12.7235V15.325V17.9266L0.110528 18.2392C0.395773 19.0461 0.958121 19.6047 1.77706 19.8947L2.07436 20H4.6771H7.27984L7.59256 19.8895C8.39984 19.6044 8.95875 19.0423 9.24889 18.2237L9.35421 17.9266V15.325V12.7235L9.24889 12.4263C8.95875 11.6077 8.39984 11.0456 7.59256 10.7605L7.27984 10.65L4.77495 10.6426C2.80427 10.6367 2.21996 10.6462 2.03522 10.6874ZM14.8532 10.6483C14.8209 10.6561 14.6624 10.6839 14.501 10.71C13.098 10.937 11.7857 11.9176 11.1258 13.232C10.7788 13.9232 10.649 14.4854 10.6471 15.3055C10.6457 15.9432 10.6892 16.2391 10.864 16.7785C11.2453 17.9553 12.1143 18.9596 13.2425 19.5275C13.5744 19.6946 14.0873 19.8677 14.4814 19.9457C14.8857 20.0258 15.8468 20.0151 16.2622 19.9259C17.9194 19.5702 19.2681 18.3641 19.7818 16.7785C19.9542 16.2464 20 15.9412 20 15.325C20 14.9991 19.9769 14.6412 19.9457 14.4839C19.5744 12.6103 18.1801 11.1634 16.3405 10.7428C16.0372 10.6735 15.0169 10.6086 14.8532 10.6483ZM7.34497 12.0107C7.62693 12.1491 7.85444 12.3765 7.99292 12.6584L8.10176 12.8799V15.325V17.7701L7.99589 17.9855C7.85957 18.263 7.61761 18.5055 7.34204 18.6407L7.12329 18.7481H4.6771H2.23092L2.01538 18.6423C1.73777 18.506 1.49519 18.2642 1.35988 17.9887L1.25245 17.7701L1.24008 15.4424C1.23143 13.818 1.24106 13.0532 1.27182 12.9111C1.36051 12.502 1.72798 12.0998 2.14622 11.9541C2.3335 11.8889 2.52376 11.8844 4.73581 11.8928L7.12329 11.9019L7.34497 12.0107ZM15.9311 11.9424C16.6091 12.0606 17.2497 12.397 17.751 12.898C19.0963 14.2427 19.0974 16.4113 17.7535 17.7546C16.4094 19.0981 14.2539 19.0979 12.8986 17.754C11.5443 16.411 11.5443 14.239 12.8986 12.8961C13.7144 12.0871 14.8011 11.7454 15.9311 11.9424Z" fill="#353535"/>
</svg>
