<svg width="343" height="275" viewBox="0 0 343 275" fill="none" xmlns="http://www.w3.org/2000/svg">
<mask id="mask0_536_3294" style="mask-type:alpha" maskUnits="userSpaceOnUse" x="52" y="10" width="279" height="122">
<path d="M266.497 16.2332L203.438 130.714L330.373 130.26L266.497 16.2332Z" fill="#C4C4C4"/>
<path d="M260.429 10.2421L197.391 130.736L52.3223 131.255L106.293 10.7929L260.429 10.2421Z" fill="#C4C4C4"/>
</mask>
<g mask="url(#mask0_536_3294)">
<path fill-rule="evenodd" clip-rule="evenodd" d="M106.419 59.0482C91.377 85.6445 75.9201 112.738 72.0698 119.263L64.4115 131.211L82.5451 131.147L97.6565 131.093L131.152 70.6469L164.911 10.5834L149.339 10.6391L133.763 10.6947L106.419 59.0482ZM151.309 58.5018C136.456 84.8861 121.014 111.983 116.989 118.717L109.746 131.049L125.806 130.992L142.991 130.931L175.817 70.5091L209.624 10.4237L193.966 10.4796L178.309 10.5356L151.309 58.5018ZM204.564 47.7717C192.976 68.3464 177.918 94.7096 171.108 106.359C164.295 118.008 158.098 129.868 158.102 130.877C158.102 130.877 164.146 130.855 173.213 130.823L188.325 130.769L220.725 74.118C237.904 44.0106 253.338 12.7731 254.385 10.2637C254.385 10.2637 251.285 10.2748 240.694 10.3126L225.638 10.3664L204.564 47.7717ZM254.449 28.3038L248.448 40.3521L274.922 86.8023L303.192 136.372L318.293 133.311C327.269 133.923 334.159 135.232 333.404 133.257C329.753 123.703 265.391 16.3179 263.473 16.2446C262.25 16.2017 257.913 20.7089 254.449 28.3038ZM233.177 73.6037L224.974 86.704L236.982 108.586C251.803 133.549 252.503 141.38 268.246 141.324L280.959 130.353L264.858 102.185C256.004 86.6914 241.477 62.1394 239.445 58.4246C236.111 52.3144 240.588 61.7591 233.177 73.6037ZM210.511 115.126C207.709 120.643 204.178 129.208 203.436 130.715C203.436 130.715 210.269 130.69 218.547 130.661L233.659 130.607L225.108 117.806C220.864 110.81 216.984 105.088 216.494 105.09C215.999 105.091 213.309 109.61 210.511 115.126ZM66.6601 150.239C69.6278 154.733 84.3955 180.262 99.4834 206.962L126.913 255.513L135.451 241.541C142.776 229.551 143.304 226.519 139.155 220.193C136.497 216.138 125.31 196.872 114.296 177.383L94.2734 141.946L77.7682 142.005C61.5455 142.063 61.3564 142.202 66.6601 150.239ZM114.169 142.986C114.172 143.827 122.891 159.737 133.544 178.338L152.914 212.157L160.133 197.429L167.348 182.7L156.56 163.142C146.368 144.67 144.892 143.524 129.967 142.521C121.273 141.933 114.166 142.144 114.169 142.986ZM168.485 153.517C171.891 160.017 175.176 165.89 175.788 166.576C176.971 167.891 188.532 147.032 188.52 143.612C188.516 142.509 182.613 141.63 175.405 141.656L162.302 141.703L168.485 153.517ZM184.033 178.955C172.404 199.53 157.059 226.626 149.933 239.169L136.97 261.978L152.735 261.867L168.496 261.752L202.426 201.597L236.356 141.438L220.765 141.494L205.171 141.55L184.033 178.955ZM226.707 182.445C214.081 205.026 198.714 232.119 192.554 242.659L181.359 261.819L197.325 261.762L213.291 261.705L236.249 220.651C248.874 198.073 264.242 170.977 270.401 160.437L281.596 141.277L265.63 141.334L249.664 141.391L226.707 182.445ZM263.656 200.522L230.11 259.824L241.478 260.949C247.733 261.571 254.892 261.298 257.394 260.349C261.422 258.82 326.083 148.536 326.064 143.226C326.06 142.068 319.566 141.141 311.629 141.169L297.202 141.221L263.656 200.522Z" fill="#959697"/>
</g>
<mask id="mask1_536_3294" style="mask-type:alpha" maskUnits="userSpaceOnUse" x="64" y="142" width="279" height="122">
<path d="M128.325 257.267L191.385 142.786L64.4494 143.24L128.325 257.267Z" fill="#C4C4C4"/>
<path d="M134.393 263.258L197.431 142.764L342.5 142.245L288.529 262.707L134.393 263.258Z" fill="#C4C4C4"/>
</mask>
<g mask="url(#mask1_536_3294)">
<path fill-rule="evenodd" clip-rule="evenodd" d="M288.403 214.452C303.445 187.856 318.902 160.762 322.752 154.237L330.411 142.289L312.277 142.353L297.166 142.407L263.67 202.853L229.911 262.917L245.483 262.861L261.059 262.805L288.403 214.452ZM243.513 214.998C258.367 188.614 273.809 161.517 277.833 154.783L285.077 142.451L269.016 142.508L251.832 142.569L219.006 202.991L185.198 263.076L200.856 263.02L216.514 262.964L243.513 214.998ZM190.258 225.728C201.846 205.154 216.904 178.79 223.714 167.141C230.527 155.492 236.724 143.632 236.72 142.623C236.72 142.623 230.676 142.645 221.609 142.677L206.498 142.731L174.097 199.382C156.919 229.489 141.484 260.727 140.438 263.236C140.438 263.236 143.538 263.225 154.128 263.187L169.184 263.134L190.258 225.728ZM140.373 245.196L146.375 233.148L119.9 186.698L91.63 137.128L76.5294 140.189C67.5533 139.577 60.6637 138.268 61.418 140.243C65.0692 149.797 129.431 257.182 131.349 257.255C132.572 257.298 136.91 252.791 140.373 245.196ZM161.646 199.896L169.848 186.796L157.84 164.914C143.019 139.951 142.32 132.12 126.577 132.176L113.863 143.147L129.964 171.315C138.818 186.809 153.345 211.361 155.377 215.075C158.711 221.186 154.234 211.741 161.646 199.896ZM184.311 158.374C187.113 152.857 190.645 144.292 191.386 142.785C191.386 142.785 184.554 142.81 176.275 142.839L161.164 142.893L169.714 155.694C173.959 162.69 177.838 168.412 178.329 168.41C178.823 168.409 181.513 163.89 184.311 158.374ZM328.162 123.261C325.194 118.767 310.427 93.2383 295.339 66.5385L267.909 17.9874L259.372 31.9593C252.047 43.9492 251.518 46.9812 255.667 53.307C258.325 57.3619 269.513 76.6279 280.527 96.1167L300.549 131.554L317.054 131.495C333.277 131.437 333.466 131.298 328.162 123.261ZM280.653 130.514C280.65 129.673 271.932 113.763 261.278 95.1621L241.908 61.343L234.69 76.0713L227.475 90.7996L238.262 110.358C248.454 128.83 249.93 129.976 264.856 130.979C273.549 131.567 280.656 131.356 280.653 130.514ZM226.337 119.983C222.931 113.483 219.646 107.61 219.034 106.924C217.851 105.609 206.29 126.468 206.302 129.888C206.306 130.991 212.209 131.87 219.417 131.844L232.521 131.797L226.337 119.983ZM210.789 94.5449C222.418 73.9701 237.764 46.8738 244.89 34.3309L257.853 11.5224L242.087 11.6334L226.326 11.748L192.396 71.9031L158.466 132.062L174.057 132.006L189.652 131.95L210.789 94.5449ZM168.115 91.0554C180.741 68.474 196.109 41.3812 202.268 30.8413L213.463 11.6811L197.497 11.7381L181.531 11.7952L158.574 52.8491C145.948 75.4269 130.58 102.523 124.421 113.063L113.226 132.223L129.192 132.166L145.158 132.109L168.115 91.0554ZM131.166 72.9778L164.712 13.6762L153.344 12.5514C147.089 11.9292 139.931 12.2024 137.428 13.151C133.4 14.6804 68.7393 124.964 68.7582 130.274C68.7624 131.432 75.2563 132.359 83.193 132.331L97.6201 132.279L131.166 72.9778Z" fill="#959697"/>
</g>
<rect x="5.65017" y="83.3212" width="152.009" height="212.427" rx="4" transform="rotate(-29.9941 5.65017 83.3212)" fill="white" stroke="#353535" stroke-width="2"/>
<g filter="url(#filter0_f_536_3294)">
<rect x="37.1621" y="109.114" width="116.099" height="10.6621" rx="2" transform="rotate(-29.9941 37.1621 109.114)" fill="#959697"/>
</g>
<g filter="url(#filter1_f_536_3294)">
<rect x="47.2305" y="126.557" width="77.0043" height="10.6621" rx="2" transform="rotate(-29.9941 47.2305 126.557)" fill="#959697"/>
</g>
<g filter="url(#filter2_f_536_3294)">
<rect x="98.165" y="214.795" width="46.2026" height="10.6621" rx="2" transform="rotate(-29.9941 98.165 214.795)" fill="#959697"/>
</g>
<path fill-rule="evenodd" clip-rule="evenodd" d="M164.236 127.695C165.515 128.089 166.843 128.951 167.232 129.638C167.788 130.621 167.594 130.571 166.282 129.39C164.208 127.524 162.195 127.568 158.829 129.557C153.786 132.535 149.485 139.244 149.028 144.843L148.837 147.19L150.096 146.902C151.245 146.64 151.243 146.688 150.082 147.442C148.275 148.618 147.879 147.469 148.758 143.594C150.391 136.393 153.076 132.39 158.486 129.093C161.696 127.136 162.101 127.038 164.236 127.695ZM156.534 138.181C156.554 138.657 156.388 141.548 156.167 144.605C155.945 147.663 156.041 151.359 156.38 152.82C157.446 157.406 156.883 164.011 155.609 161.869C155.223 161.22 154.918 155.541 155.07 151.814C155.166 149.418 154.268 147.86 152.282 146.977C151.532 146.644 151.51 146.511 152.182 146.383C152.657 146.292 153.419 146.689 153.874 147.265C154.33 147.842 154.859 148.22 155.051 148.106C155.242 147.992 155.554 145.572 155.743 142.729C156.052 138.091 156.438 135.868 156.534 138.181ZM167.691 138.091C166.662 142.404 163.545 147.389 161.017 148.764C160.469 149.063 161.055 148.133 162.322 146.699C165.613 142.969 167.191 139.9 167.582 136.462C167.77 134.813 168.106 133.522 168.329 133.593C168.551 133.664 168.264 135.688 167.691 138.091ZM173.362 141.968C174.436 143.196 174.581 143.814 174.185 145.471C173.571 148.035 172.603 149.729 171.31 150.497C169.631 151.496 169.76 149.708 171.498 147.903C173.536 145.788 174.002 144.205 173.055 142.613C171.311 139.679 169.143 142.541 168.114 149.133C167.745 151.497 167.687 154.181 167.986 155.097C168.616 157.031 169.33 165.699 169.071 168.266C168.938 169.58 168.668 169.953 167.992 169.752C166.929 169.435 166.685 167.788 166.718 161.143L166.74 156.781L162.864 155.147C160.732 154.248 158.728 153.075 158.411 152.54C157.851 151.6 158.35 150.353 159.529 149.744C159.845 149.581 159.75 149.947 159.318 150.556C158.177 152.167 158.979 153.009 163.035 154.462C166.261 155.616 166.673 155.624 166.908 154.532C167.053 153.859 166.924 152.18 166.62 150.802C166.298 149.336 166.338 148.715 166.717 149.308C167.318 150.249 167.368 150.201 167.413 148.642C167.48 146.332 169.796 141.373 171.039 140.881C171.718 140.612 172.494 140.975 173.362 141.968ZM178.338 138.538C178.514 138.834 178.855 140.898 179.096 143.124C179.337 145.35 179.738 147.234 179.988 147.31C180.237 147.388 181.385 146.328 182.539 144.957C183.693 143.585 184.785 142.509 184.966 142.564C185.146 142.62 184.262 143.863 183 145.327C179.916 148.902 179.275 148.615 178.575 143.342C178.272 141.053 177.796 139.049 177.518 138.888C177.24 138.728 177.239 138.461 177.515 138.297C177.791 138.133 178.162 138.241 178.338 138.538ZM166.051 147.374C166.148 147.882 165.962 147.824 165.576 147.227C165.227 146.687 165.155 146.311 165.416 146.392C165.677 146.472 165.963 146.914 166.051 147.374ZM155.49 155.108C155.576 159.596 155.765 161.372 156.083 160.689C156.575 159.631 156.433 154.415 155.899 153.926C155.657 153.705 155.473 154.236 155.49 155.108ZM170.933 149.303L170.252 150.317L171.218 149.782C171.749 149.488 172.368 148.828 172.593 148.316C172.957 147.488 172.926 147.435 172.309 147.837C171.927 148.085 171.308 148.745 170.933 149.303ZM188.992 140.949C189.466 141.904 192.058 140.796 196.483 137.746C197.608 136.971 198.477 136.594 198.413 136.909C198.35 137.223 196.08 138.841 193.369 140.503C188.625 143.413 188.449 143.473 188.656 142.103C188.842 140.868 188.737 140.665 187.862 140.56C186.986 140.456 186.965 140.414 187.699 140.244C188.165 140.137 188.747 140.453 188.992 140.949ZM200.466 135.011C200.412 135.278 200.014 135.541 199.582 135.593C199.104 135.65 199.143 135.459 199.68 135.106C200.167 134.786 200.521 134.743 200.466 135.011ZM167.262 161.321C167.302 167.384 167.448 169.137 167.927 169.284C168.532 169.471 168.641 164.868 168.137 160.364C167.881 158.078 167.572 156.266 167.451 156.338C167.329 156.411 167.244 158.653 167.262 161.321Z" fill="#353535"/>
<g filter="url(#filter3_f_536_3294)">
<mask id="mask2_536_3294" style="mask-type:alpha" maskUnits="userSpaceOnUse" x="125" y="21" width="13" height="10">
<path d="M132.353 21.5487L132.425 27.5437L137.467 24.6782L132.353 21.5487Z" fill="#C4C4C4"/>
<path d="M131.977 21.4456L132.184 27.6808L126.422 30.9557L125.853 24.9252L131.977 21.4456Z" fill="#C4C4C4"/>
</mask>
<g mask="url(#mask2_536_3294)">
<path fill-rule="evenodd" clip-rule="evenodd" d="M126.946 26.8528C126.947 28.2544 126.943 29.6852 126.937 30.0327L126.902 30.6825L127.622 30.2732L128.222 29.932L128.192 26.7621L128.182 23.6016L127.563 23.9531L126.945 24.3048L126.946 26.8528ZM128.721 25.824C128.725 27.2129 128.721 28.6434 128.713 29.0031L128.702 29.6591L129.34 29.2965L130.023 28.9086L129.967 25.7547L129.958 22.5922L129.336 22.9457L128.714 23.2992L128.721 25.824ZM130.599 24.2001C130.602 25.2832 130.597 26.6758 130.588 27.2947C130.58 27.9136 130.601 28.5272 130.623 28.5674C130.623 28.5674 130.864 28.431 131.224 28.2263L131.824 27.8852L131.836 24.8917C131.841 23.3017 131.751 21.7056 131.736 21.5817C131.736 21.5817 131.613 21.6517 131.192 21.8908L130.594 22.2307L130.599 24.2001ZM132.146 22.3021L132.178 22.9188L134.28 24.1834L136.523 25.5326L137.055 25.0714C137.426 24.8946 137.73 24.7924 137.655 24.7303C137.294 24.4299 132.311 21.5771 132.233 21.6172C132.183 21.6429 132.112 21.9205 132.146 22.3021ZM132.32 24.5918L132.289 25.2999L133.261 25.9061C134.414 26.5724 134.618 26.8701 135.243 26.5147L135.502 25.7905L134.226 25.0247C133.524 24.6034 132.392 23.9469 132.228 23.8438C131.957 23.6741 132.348 23.9516 132.32 24.5918ZM132.354 26.7616C132.367 27.0452 132.42 27.4671 132.424 27.544C132.424 27.544 132.696 27.3898 133.025 27.2029L133.625 26.8617L132.996 26.5414C132.669 26.3567 132.386 26.2147 132.366 26.2258C132.347 26.237 132.341 26.4781 132.354 26.7616ZM127.42 31.3934C127.64 31.5067 128.803 32.1968 130.006 32.9267L132.192 34.2539L132.217 33.5034C132.238 32.8593 132.191 32.7262 131.883 32.5661C131.686 32.4635 130.806 31.9436 129.928 31.4109L128.332 30.4422L127.677 30.8148C127.032 31.181 127.028 31.1908 127.42 31.3934ZM129.148 30.0375C129.167 30.071 129.873 30.512 130.716 31.0173L132.25 31.936L132.205 31.1847L132.16 30.4336L131.29 29.893C130.467 29.3825 130.383 29.3698 129.766 29.6645C129.407 29.836 129.129 30.0039 129.148 30.0375ZM131.547 29.2404C131.829 29.4241 132.093 29.5854 132.132 29.5991C132.209 29.6251 132.199 28.5312 132.121 28.3947C132.096 28.3506 131.842 28.4479 131.555 28.6106L131.035 28.9064L131.547 29.2404ZM132.74 29.9094C132.741 30.9935 132.741 32.4219 132.74 33.0836L132.739 34.287L133.364 33.9289L133.988 33.5708L133.983 30.4028L133.977 27.2346L133.357 27.5866L132.738 27.9386L132.74 29.9094ZM134.517 29.0918C134.524 30.2785 134.523 31.7073 134.516 32.2672L134.502 33.2849L135.136 32.9245L135.77 32.564L135.759 30.4064C135.752 29.2199 135.753 27.791 135.76 27.2311L135.774 26.2133L135.139 26.5737L134.505 26.9342L134.517 29.0918ZM136.396 28.9863L136.398 32.1115L136.875 31.9015C137.138 31.7861 137.417 31.6146 137.495 31.5205C137.621 31.3689 137.708 25.5058 137.588 25.2938C137.562 25.2476 137.282 25.3561 136.967 25.5353L136.394 25.861L136.396 28.9863Z" fill="#959697"/>
</g>
<mask id="mask3_536_3294" style="mask-type:alpha" maskUnits="userSpaceOnUse" x="127" y="24" width="12" height="11">
<path d="M132.292 34.2931L132.221 28.298L127.178 31.1636L132.292 34.2931Z" fill="#C4C4C4"/>
<path d="M132.669 34.3962L132.461 28.161L138.224 24.8861L138.792 30.9166L132.669 34.3962Z" fill="#C4C4C4"/>
</mask>
<g mask="url(#mask3_536_3294)">
<path fill-rule="evenodd" clip-rule="evenodd" d="M137.696 28.989C137.695 27.5874 137.7 26.1566 137.706 25.8091L137.741 25.1593L137.021 25.5686L136.42 25.9098L136.45 29.0797L136.461 32.2402L137.079 31.8886L137.698 31.537L137.696 28.989ZM135.922 30.0178C135.918 28.6289 135.922 27.1983 135.93 26.8386L135.94 26.1827L135.302 26.5453L134.619 26.9332L134.675 30.0871L134.684 33.2496L135.306 32.8961L135.928 32.5426L135.922 30.0178ZM134.044 31.6417C134.041 30.5586 134.046 29.166 134.054 28.5471C134.063 27.9281 134.042 27.3146 134.019 27.2743C134.019 27.2743 133.779 27.4108 133.419 27.6155L132.819 27.9566L132.806 30.9501C132.801 32.5401 132.891 34.1362 132.906 34.2601C132.906 34.2601 133.029 34.1901 133.45 33.951L134.048 33.6111L134.044 31.6417ZM132.497 33.5397L132.464 32.923L130.363 31.6584L128.12 30.3092L127.588 30.7704C127.217 30.9472 126.913 31.0494 126.987 31.1115C127.348 31.4119 132.332 34.2647 132.41 34.2246C132.459 34.1989 132.53 33.9213 132.497 33.5397ZM132.322 31.25L132.353 30.5419L131.382 29.9357C130.229 29.2694 130.025 28.9717 129.399 29.3271L129.141 30.0513L130.417 30.8171C131.118 31.2384 132.25 31.8949 132.415 31.998C132.685 32.1677 132.294 31.8902 132.322 31.25ZM132.288 29.0802C132.275 28.7966 132.223 28.3747 132.218 28.2978C132.218 28.2978 131.947 28.452 131.618 28.6389L131.018 28.9801L131.647 29.3004C131.973 29.4851 132.257 29.6271 132.276 29.616C132.296 29.6048 132.301 29.3637 132.288 29.0802ZM137.222 24.4484C137.003 24.3351 135.839 23.645 134.637 22.9151L132.45 21.5879L132.425 22.3384C132.404 22.9825 132.451 23.1156 132.759 23.2757C132.956 23.3783 133.836 23.8982 134.714 24.4309L136.31 25.3996L136.966 25.027C137.61 24.6608 137.615 24.651 137.222 24.4484ZM135.495 25.8043C135.476 25.7707 134.77 25.3298 133.926 24.8245L132.393 23.9058L132.438 24.6571L132.482 25.4082L133.353 25.9488C134.175 26.4593 134.26 26.472 134.877 26.1773C135.236 26.0058 135.514 25.8379 135.495 25.8043ZM133.095 26.6014C132.813 26.4177 132.55 26.2564 132.51 26.2427C132.433 26.2167 132.444 27.3106 132.521 27.4471C132.546 27.4912 132.801 27.3939 133.087 27.2312L133.608 26.9354L133.095 26.6014ZM131.903 25.9324C131.902 24.8483 131.902 23.4199 131.902 22.7582L131.904 21.5548L131.279 21.9129L130.654 22.271L130.66 25.439L130.666 28.6072L131.285 28.2552L131.905 27.9032L131.903 25.9324ZM130.125 26.75C130.119 25.5633 130.12 24.1345 130.127 23.5746L130.141 22.5569L129.506 22.9173L128.872 23.2778L128.884 25.4354C128.891 26.6219 128.89 28.0508 128.882 28.6107L128.869 29.6285L129.503 29.2681L130.137 28.9076L130.125 26.75ZM128.247 26.8555L128.245 23.7303L127.767 23.9403C127.504 24.0557 127.225 24.2272 127.147 24.3213C127.021 24.4729 126.934 30.336 127.055 30.548C127.081 30.5942 127.36 30.4857 127.676 30.3065L128.249 29.9808L128.247 26.8555Z" fill="#959697"/>
</g>
</g>
<g filter="url(#filter4_f_536_3294)">
<path d="M110.178 36.6878L110.423 36.5489C110.476 36.6733 110.503 36.7972 110.501 36.9206C110.499 37.0441 110.464 37.1612 110.395 37.272C110.327 37.3819 110.218 37.4791 110.069 37.5635C109.961 37.6253 109.85 37.6611 109.738 37.671C109.626 37.6805 109.517 37.6659 109.411 37.6274C109.305 37.588 109.204 37.5256 109.109 37.4401C109.015 37.3532 108.931 37.2449 108.857 37.115L108.752 36.9303C108.679 36.8004 108.629 36.6731 108.603 36.5486C108.577 36.4227 108.575 36.3036 108.597 36.1913C108.619 36.0786 108.665 35.9758 108.733 35.883C108.802 35.7901 108.894 35.7111 109.008 35.646C109.148 35.5664 109.282 35.5254 109.408 35.523C109.535 35.5206 109.652 35.551 109.758 35.614C109.865 35.6756 109.96 35.764 110.042 35.879L109.797 36.018C109.736 35.9381 109.672 35.8764 109.605 35.8327C109.537 35.7882 109.463 35.7659 109.384 35.7657C109.306 35.7655 109.218 35.7927 109.122 35.8472C109.04 35.894 108.976 35.951 108.931 36.0181C108.887 36.0847 108.86 36.159 108.851 36.2408C108.842 36.3222 108.85 36.4092 108.875 36.502C108.899 36.5947 108.939 36.6903 108.995 36.7888L109.102 36.976C109.153 37.0668 109.211 37.1469 109.275 37.2161C109.34 37.2848 109.409 37.3382 109.483 37.3763C109.556 37.4144 109.633 37.4337 109.713 37.4342C109.792 37.4339 109.873 37.4104 109.956 37.3636C110.06 37.3042 110.134 37.2404 110.177 37.1721C110.22 37.1037 110.24 37.0296 110.236 36.9498C110.233 36.8695 110.214 36.7822 110.178 36.6878ZM110.633 35.6731L111.293 36.8346L111.057 36.9685L110.274 35.5905L110.503 35.4602L110.633 35.6731ZM110.936 35.2043L111.059 35.4241C111.037 35.4309 111.017 35.439 110.998 35.4483C110.981 35.4562 110.961 35.4665 110.938 35.479C110.884 35.5099 110.841 35.5457 110.809 35.5863C110.777 35.6269 110.755 35.6707 110.744 35.7177C110.732 35.7647 110.73 35.8142 110.737 35.8663C110.745 35.9171 110.76 35.9689 110.784 36.0219L110.739 36.0978C110.692 36.0146 110.656 35.9319 110.63 35.8497C110.606 35.767 110.595 35.6878 110.598 35.612C110.6 35.5353 110.619 35.466 110.655 35.4042C110.691 35.3411 110.746 35.2883 110.821 35.2458C110.838 35.2362 110.859 35.2272 110.883 35.2189C110.907 35.2098 110.925 35.2049 110.936 35.2043ZM112.502 36.1812C112.406 36.2357 112.31 36.269 112.213 36.2811C112.117 36.2919 112.024 36.2835 111.934 36.256C111.845 36.2279 111.763 36.1815 111.687 36.1169C111.611 36.0523 111.545 35.9716 111.49 35.8748L111.46 35.8213C111.396 35.7092 111.356 35.6001 111.339 35.4938C111.322 35.3867 111.325 35.2864 111.347 35.1929C111.369 35.0995 111.407 35.0165 111.462 34.9441C111.516 34.8717 111.582 34.8135 111.659 34.7696C111.758 34.7136 111.852 34.6824 111.943 34.6758C112.034 34.6688 112.12 34.6828 112.201 34.7178C112.281 34.7521 112.355 34.8041 112.424 34.8739C112.493 34.9429 112.554 35.0257 112.609 35.1225L112.669 35.2282L111.64 35.813L111.531 35.6207L112.325 35.1698L112.314 35.152C112.276 35.0928 112.23 35.0406 112.175 34.9954C112.121 34.9497 112.06 34.9215 111.992 34.9107C111.924 34.8998 111.85 34.9174 111.769 34.9632C111.716 34.9936 111.673 35.033 111.641 35.0815C111.608 35.1292 111.589 35.1842 111.581 35.2467C111.574 35.3092 111.58 35.3774 111.598 35.4512C111.617 35.525 111.649 35.6035 111.697 35.6867L111.727 35.7402C111.764 35.8056 111.808 35.8621 111.859 35.9097C111.91 35.9559 111.965 35.9908 112.024 36.0143C112.085 36.0374 112.147 36.047 112.211 36.0431C112.276 36.0388 112.341 36.0183 112.405 35.9816C112.488 35.9343 112.549 35.8773 112.588 35.8105C112.626 35.7438 112.651 35.6696 112.662 35.5882L112.869 35.6204C112.865 35.6823 112.851 35.7467 112.829 35.8135C112.806 35.8803 112.768 35.9455 112.716 36.0091C112.664 36.0722 112.593 36.1296 112.502 36.1812ZM114.015 34.9336L113.055 33.2449L113.292 33.1103L114.404 35.0665L114.187 35.1895L114.015 34.9336ZM112.857 35.0543L112.842 35.0275C112.782 34.9222 112.74 34.8195 112.717 34.7193C112.694 34.6177 112.689 34.5224 112.701 34.4334C112.715 34.3439 112.745 34.2638 112.792 34.1931C112.84 34.121 112.905 34.0615 112.987 34.0147C113.074 33.9655 113.158 33.9379 113.24 33.9318C113.322 33.9243 113.402 33.9367 113.48 33.9689C113.558 33.9997 113.634 34.048 113.706 34.1137C113.778 34.1794 113.848 34.2603 113.916 34.3564L113.983 34.4735C114.031 34.5799 114.064 34.6811 114.083 34.7772C114.102 34.8728 114.105 34.9621 114.092 35.045C114.079 35.1275 114.049 35.2026 114.001 35.2703C113.952 35.3372 113.884 35.3954 113.797 35.4451C113.716 35.491 113.633 35.5155 113.546 35.5188C113.46 35.5217 113.375 35.5054 113.29 35.4701C113.207 35.4343 113.128 35.3814 113.054 35.3115C112.98 35.2402 112.914 35.1544 112.857 35.0543ZM113.079 34.8929L113.094 34.9196C113.133 34.9884 113.176 35.0491 113.224 35.1016C113.273 35.1537 113.325 35.1942 113.381 35.2232C113.437 35.2522 113.495 35.2668 113.556 35.267C113.616 35.2665 113.678 35.2481 113.742 35.2119C113.82 35.1675 113.875 35.1145 113.906 35.0529C113.938 34.9909 113.954 34.924 113.954 34.8523C113.953 34.7806 113.944 34.7081 113.924 34.6347L113.75 34.3278C113.713 34.2869 113.673 34.2503 113.629 34.2181C113.585 34.1846 113.538 34.1595 113.488 34.1429C113.439 34.125 113.386 34.1184 113.33 34.1231C113.276 34.1274 113.218 34.1464 113.159 34.1801C113.094 34.2168 113.046 34.262 113.015 34.3157C112.984 34.3681 112.967 34.426 112.964 34.4896C112.96 34.5524 112.969 34.6184 112.989 34.6877C113.01 34.7557 113.04 34.8241 113.079 34.8929ZM114.244 33.3346L115.027 34.7126L114.79 34.8472L114.007 33.4692L114.244 33.3346ZM113.781 33.1138C113.759 33.0756 113.753 33.0368 113.761 32.9975C113.769 32.9576 113.797 32.9247 113.843 32.8986C113.888 32.8731 113.929 32.8667 113.968 32.8795C114.008 32.8918 114.038 32.9171 114.06 32.9553C114.081 32.9918 114.086 33.0302 114.077 33.0705C114.067 33.1095 114.04 33.1418 113.995 33.1674C113.949 33.1934 113.907 33.2005 113.869 33.1885C113.831 33.1752 113.802 33.1503 113.781 33.1138ZM115.199 32.7918L115.302 32.9726L114.557 33.396L114.454 33.2151L115.199 32.7918ZM114.516 32.7369L114.751 32.603L115.531 33.9746C115.557 34.0213 115.584 34.0525 115.612 34.068C115.64 34.0836 115.668 34.0887 115.695 34.0833C115.722 34.0779 115.749 34.0678 115.776 34.0528C115.795 34.0417 115.815 34.0284 115.834 34.013C115.853 33.9962 115.868 33.9834 115.878 33.9746L115.988 34.1661C115.973 34.1827 115.951 34.2022 115.924 34.2247C115.897 34.2475 115.863 34.271 115.821 34.2951C115.763 34.3279 115.703 34.3466 115.642 34.3512C115.58 34.3558 115.52 34.3395 115.461 34.3024C115.402 34.264 115.346 34.199 115.294 34.1073L114.516 32.7369ZM112.434 40.5219L112.548 40.7219L111.566 41.2799L111.453 41.0799L112.434 40.5219ZM110.562 39.3974L111.616 41.2517L111.37 41.3914L110.316 39.537L110.562 39.3974ZM111.817 39.7387L111.931 39.9386L111.079 40.4228L110.965 40.2228L111.817 39.7387ZM111.482 38.8748L111.596 39.076L110.627 39.6268L110.512 39.4256L111.482 38.8748ZM112.193 39.1007L112.78 39.431L112.8 38.7555L113.077 38.5984L113.012 39.5347L113.874 39.9685L113.601 40.1234L112.989 39.7872L112.965 40.4852L112.691 40.6408L112.758 39.6795L111.922 39.2549L112.193 39.1007ZM113.714 38.5869L114.647 40.2298L114.411 40.3644L113.326 38.4566L113.543 38.3336L113.714 38.5869ZM114.877 38.4719L114.892 38.4986C114.949 38.5988 114.99 38.6986 115.015 38.7978C115.039 38.8962 115.046 38.9899 115.036 39.0788C115.027 39.1672 114.999 39.2476 114.953 39.32C114.906 39.3925 114.84 39.4531 114.754 39.5018C114.667 39.5515 114.581 39.581 114.498 39.5902C114.414 39.5995 114.334 39.5898 114.256 39.5611C114.178 39.5325 114.103 39.4875 114.031 39.4261C113.96 39.3643 113.891 39.2879 113.826 39.1969L113.745 39.0543C113.698 38.9466 113.665 38.8445 113.647 38.7479C113.629 38.6513 113.627 38.5615 113.64 38.4786C113.654 38.3943 113.686 38.3185 113.735 38.2512C113.784 38.183 113.852 38.1243 113.939 38.075C114.025 38.0258 114.112 37.9991 114.198 37.995C114.284 37.99 114.367 38.0054 114.448 38.0414C114.529 38.0773 114.606 38.132 114.678 38.2056C114.751 38.2779 114.817 38.3666 114.877 38.4719ZM114.655 38.6333L114.64 38.6065C114.601 38.5377 114.557 38.4773 114.508 38.4252C114.459 38.3723 114.406 38.3316 114.35 38.3031C114.293 38.2733 114.234 38.2585 114.173 38.2587C114.111 38.2581 114.047 38.2761 113.983 38.3128C113.923 38.3466 113.877 38.3862 113.845 38.4317C113.813 38.4766 113.792 38.5252 113.781 38.5774C113.77 38.6287 113.767 38.682 113.772 38.7373C113.778 38.7912 113.79 38.8441 113.807 38.8962L113.994 39.226C114.045 39.2758 114.101 39.3183 114.161 39.3536C114.221 39.388 114.286 39.4069 114.355 39.4102C114.424 39.4127 114.497 39.3919 114.574 39.348C114.638 39.3118 114.685 39.2676 114.716 39.2152C114.747 39.1615 114.765 39.1028 114.768 39.0392C114.772 38.9752 114.764 38.9089 114.744 38.8404C114.724 38.7711 114.694 38.702 114.655 38.6333ZM115.151 37.7062L115.811 38.8677L115.575 39.0016L114.792 37.6236L115.022 37.4933L115.151 37.7062ZM115.454 37.2374L115.577 37.4572C115.555 37.464 115.535 37.4721 115.517 37.4814C115.499 37.4893 115.479 37.4996 115.457 37.5121C115.402 37.543 115.359 37.5788 115.327 37.6194C115.295 37.66 115.274 37.7038 115.262 37.7508C115.251 37.7977 115.249 37.8473 115.256 37.8994C115.263 37.9501 115.279 38.002 115.302 38.055L115.257 38.1309C115.21 38.0477 115.174 37.965 115.148 37.8828C115.124 37.8001 115.113 37.7209 115.116 37.645C115.119 37.5684 115.138 37.4991 115.173 37.4373C115.209 37.3742 115.265 37.3214 115.339 37.2789C115.356 37.2693 115.377 37.2603 115.402 37.252C115.426 37.2428 115.443 37.238 115.454 37.2374ZM117.02 38.2143C116.924 38.2688 116.828 38.3021 116.731 38.3142C116.635 38.325 116.542 38.3166 116.453 38.289C116.364 38.261 116.281 38.2146 116.205 38.15C116.129 38.0854 116.064 38.0047 116.009 37.9079L115.978 37.8544C115.914 37.7423 115.874 37.6332 115.858 37.5269C115.841 37.4198 115.843 37.3195 115.865 37.226C115.888 37.1326 115.926 37.0496 115.98 36.9772C116.034 36.9048 116.1 36.8466 116.177 36.8027C116.276 36.7467 116.37 36.7155 116.461 36.7089C116.553 36.7018 116.639 36.7159 116.719 36.7509C116.799 36.7852 116.874 36.8372 116.943 36.907C117.011 36.9759 117.073 37.0588 117.128 37.1556L117.188 37.2613L116.159 37.8461L116.05 37.6538L116.843 37.2029L116.833 37.1851C116.795 37.1259 116.748 37.0737 116.693 37.0285C116.639 36.9828 116.578 36.9546 116.51 36.9438C116.442 36.9329 116.368 36.9504 116.287 36.9963C116.234 37.0267 116.191 37.0661 116.159 37.1146C116.127 37.1623 116.107 37.2173 116.1 37.2798C116.093 37.3423 116.098 37.4104 116.117 37.4843C116.135 37.5581 116.168 37.6366 116.215 37.7198L116.245 37.7733C116.283 37.8386 116.326 37.8951 116.377 37.9427C116.428 37.989 116.483 38.0239 116.543 38.0474C116.603 38.0705 116.665 38.0801 116.729 38.0762C116.794 38.0719 116.859 38.0514 116.923 38.0147C117.007 37.9674 117.068 37.9104 117.106 37.8436C117.144 37.7769 117.169 37.7027 117.18 37.6212L117.387 37.6535C117.383 37.7154 117.37 37.7798 117.347 37.8466C117.324 37.9134 117.287 37.9786 117.234 38.0422C117.182 38.1053 117.111 38.1626 117.02 38.2143ZM118.411 36.9063C118.392 36.8723 118.367 36.8453 118.335 36.8251C118.304 36.8036 118.258 36.7939 118.199 36.7962C118.14 36.7972 118.06 36.8146 117.959 36.8484C117.873 36.8756 117.793 36.8959 117.719 36.909C117.645 36.9217 117.578 36.9246 117.517 36.9178C117.456 36.9105 117.403 36.8922 117.356 36.8627C117.309 36.8333 117.269 36.7901 117.237 36.7333C117.206 36.6789 117.188 36.6208 117.185 36.5589C117.182 36.4965 117.192 36.4341 117.215 36.3716C117.238 36.3087 117.276 36.2488 117.326 36.1918C117.377 36.1349 117.441 36.0845 117.518 36.0406C117.629 35.9779 117.734 35.9438 117.835 35.9385C117.935 35.9332 118.024 35.9514 118.103 35.9931C118.181 36.034 118.243 36.0939 118.288 36.1729L118.052 36.3068C118.031 36.2686 117.998 36.2381 117.955 36.2155C117.912 36.1915 117.862 36.18 117.805 36.1808C117.749 36.1812 117.69 36.199 117.629 36.2342C117.563 36.2713 117.516 36.3117 117.487 36.3552C117.458 36.3974 117.443 36.4391 117.442 36.4803C117.441 36.521 117.45 36.5583 117.47 36.5923C117.484 36.6177 117.502 36.6383 117.522 36.6538C117.542 36.668 117.569 36.6771 117.601 36.6811C117.633 36.6842 117.674 36.6811 117.724 36.6719C117.774 36.6627 117.835 36.647 117.908 36.6247C118.035 36.586 118.145 36.5638 118.239 36.5579C118.332 36.5521 118.411 36.565 118.476 36.5965C118.541 36.628 118.595 36.6807 118.637 36.7546C118.671 36.8149 118.69 36.8773 118.693 36.9418C118.697 37.0059 118.685 37.0697 118.658 37.1333C118.632 37.1955 118.592 37.2553 118.538 37.3129C118.485 37.3691 118.418 37.4201 118.337 37.4659C118.215 37.5349 118.1 37.5716 117.992 37.5761C117.883 37.5806 117.788 37.5607 117.705 37.5166C117.623 37.4724 117.56 37.4121 117.517 37.3357L117.753 37.2011C117.793 37.2637 117.841 37.3044 117.897 37.3233C117.952 37.3414 118.009 37.3445 118.067 37.3326C118.125 37.3199 118.179 37.2998 118.227 37.2723C118.291 37.2357 118.341 37.1965 118.374 37.1549C118.409 37.1129 118.429 37.0705 118.435 37.0277C118.441 36.985 118.433 36.9445 118.411 36.9063ZM119.759 36.1406C119.74 36.1066 119.714 36.0795 119.682 36.0594C119.651 36.0378 119.606 36.0282 119.546 36.0305C119.487 36.0315 119.407 36.0488 119.306 36.0826C119.221 36.1099 119.141 36.1301 119.066 36.1433C118.993 36.156 118.925 36.1589 118.864 36.1521C118.804 36.1448 118.75 36.1264 118.703 36.097C118.656 36.0676 118.616 36.0244 118.584 35.9675C118.553 35.9132 118.536 35.8551 118.532 35.7932C118.529 35.7308 118.539 35.6684 118.562 35.6059C118.586 35.543 118.623 35.4831 118.674 35.4261C118.725 35.3692 118.789 35.3188 118.866 35.2749C118.976 35.2121 119.082 35.1781 119.182 35.1728C119.282 35.1675 119.372 35.1857 119.451 35.2274C119.529 35.2683 119.59 35.3282 119.635 35.4072L119.4 35.541C119.378 35.5028 119.345 35.4724 119.302 35.4498C119.259 35.4258 119.21 35.4143 119.153 35.4151C119.097 35.4154 119.038 35.4332 118.976 35.4685C118.911 35.5056 118.863 35.546 118.834 35.5895C118.805 35.6317 118.79 35.6734 118.789 35.7146C118.788 35.7553 118.798 35.7926 118.817 35.8266C118.832 35.852 118.849 35.8725 118.869 35.8881C118.889 35.9023 118.916 35.9114 118.949 35.9154C118.981 35.9185 119.022 35.9154 119.071 35.9062C119.121 35.897 119.182 35.8813 119.255 35.859C119.383 35.8203 119.493 35.7981 119.586 35.7922C119.679 35.7864 119.759 35.7992 119.824 35.8308C119.889 35.8623 119.942 35.915 119.984 35.9889C120.019 36.0491 120.037 36.1116 120.04 36.1761C120.044 36.2402 120.033 36.304 120.006 36.3676C119.979 36.4297 119.939 36.4896 119.885 36.5471C119.832 36.6033 119.765 36.6544 119.684 36.7002C119.563 36.7692 119.448 36.8059 119.339 36.8104C119.231 36.8149 119.135 36.795 119.053 36.7508C118.97 36.7067 118.907 36.6464 118.864 36.57L119.101 36.4354C119.141 36.4979 119.189 36.5387 119.244 36.5576C119.3 36.5757 119.356 36.5788 119.415 36.5669C119.473 36.5542 119.526 36.5341 119.574 36.5066C119.639 36.4699 119.688 36.4308 119.722 36.3892C119.756 36.3472 119.776 36.3047 119.782 36.262C119.788 36.2193 119.781 36.1788 119.759 36.1406Z" fill="black"/>
</g>
<defs>
<filter id="filter0_f_536_3294" x="36.8936" y="50.8066" width="106.418" height="67.8105" filterUnits="userSpaceOnUse" color-interpolation-filters="sRGB">
<feFlood flood-opacity="0" result="BackgroundImageFix"/>
<feBlend mode="normal" in="SourceGraphic" in2="BackgroundImageFix" result="shape"/>
<feGaussianBlur stdDeviation="0.5" result="effect1_foregroundBlur_536_3294"/>
</filter>
<filter id="filter1_f_536_3294" x="46.9619" y="87.793" width="72.5586" height="48.2666" filterUnits="userSpaceOnUse" color-interpolation-filters="sRGB">
<feFlood flood-opacity="0" result="BackgroundImageFix"/>
<feBlend mode="normal" in="SourceGraphic" in2="BackgroundImageFix" result="shape"/>
<feGaussianBlur stdDeviation="0.5" result="effect1_foregroundBlur_536_3294"/>
</filter>
<filter id="filter2_f_536_3294" x="97.8965" y="191.43" width="45.8818" height="32.8682" filterUnits="userSpaceOnUse" color-interpolation-filters="sRGB">
<feFlood flood-opacity="0" result="BackgroundImageFix"/>
<feBlend mode="normal" in="SourceGraphic" in2="BackgroundImageFix" result="shape"/>
<feGaussianBlur stdDeviation="0.5" result="effect1_foregroundBlur_536_3294"/>
</filter>
<filter id="filter3_f_536_3294" x="125.901" y="20.582" width="12.8398" height="14.6777" filterUnits="userSpaceOnUse" color-interpolation-filters="sRGB">
<feFlood flood-opacity="0" result="BackgroundImageFix"/>
<feBlend mode="normal" in="SourceGraphic" in2="BackgroundImageFix" result="shape"/>
<feGaussianBlur stdDeviation="0.5" result="effect1_foregroundBlur_536_3294"/>
</filter>
<filter id="filter4_f_536_3294" x="107.22" y="29.9385" width="14.2832" height="13.0186" filterUnits="userSpaceOnUse" color-interpolation-filters="sRGB">
<feFlood flood-opacity="0" result="BackgroundImageFix"/>
<feBlend mode="normal" in="SourceGraphic" in2="BackgroundImageFix" result="shape"/>
<feGaussianBlur stdDeviation="0.5" result="effect1_foregroundBlur_536_3294"/>
</filter>
</defs>
</svg>
