<svg width="296" height="240" viewBox="0 0 296 240" fill="none" xmlns="http://www.w3.org/2000/svg">
<path fill-rule="evenodd" clip-rule="evenodd" d="M45.7619 0.838754C43.3557 1.88815 34.801 11.1078 28.6444 19.2867C14.0732 38.6443 4.77303 60.7019 1.07289 84.678C-0.361868 93.9741 -0.356655 113.703 1.08274 122.943C5.71023 152.654 18.9017 179.552 39.4372 201.152C43.0482 204.95 45.0616 206.606 46.6469 207.081C52.3541 208.792 57.6471 204.849 57.6471 198.885C57.6471 195.756 57.1583 194.935 51.6121 188.754C41.7617 177.776 35.7 168.949 30.1104 157.44C20.4801 137.613 16.6253 118.632 17.7612 96.6312C19.2399 67.9856 31.4913 40.3529 52.9368 17.2893C57.098 12.8146 57.6471 11.7971 57.6471 8.56138C57.6471 2.4801 51.3619 -1.60385 45.7619 0.838754ZM243.013 1.04631C240.184 2.46908 238.368 5.40681 238.368 8.56138C238.368 11.8789 238.81 12.6337 244.403 18.8669C254.253 29.8456 260.315 38.6727 265.905 50.1812C274.542 67.9641 278.375 84.4437 278.377 103.811C278.38 135.216 267.186 163.342 244.694 188.446C238.805 195.019 238.368 195.739 238.368 198.885C238.368 204.556 243.014 208.37 248.638 207.314C253.637 206.375 268.664 188.459 277.74 172.617C286.248 157.766 292.246 140.436 294.934 122.943C296.355 113.694 296.355 93.9271 294.934 84.678C290.425 55.3314 277.194 28.2674 256.821 6.71363C250.464 -0.0111994 247.519 -1.22003 243.013 1.04631ZM71.825 27.2053C66.7289 29.5226 54.5002 45.859 48.7548 58.0262C43.7705 68.581 41.0747 77.5664 39.3677 89.315C38.0279 98.5358 38.4409 114.839 40.2412 123.813C44.0247 142.671 52.6153 160.11 65.1343 174.35C70.3503 180.282 73.2494 181.963 77.0387 181.251C79.9349 180.708 82.9781 177.853 83.7595 174.948C84.7431 171.292 83.7474 169.004 78.7602 163.461C66.6502 150.001 58.8896 133.368 56.5211 115.799C55.7357 109.975 55.7357 97.6464 56.5211 91.822C58.8711 74.3898 66.8216 57.2591 78.5082 44.4472C80.8031 41.9316 83.0604 38.9637 83.5249 37.8511C85.1989 33.8408 82.9179 28.6796 78.6901 26.9113C76.1843 25.8637 74.6297 25.9303 71.825 27.2053ZM217.197 26.9362C213.078 28.7318 210.841 33.9017 212.482 37.832C212.942 38.9336 215.19 41.9014 217.478 44.4281C229.291 57.4725 237.142 74.3718 239.494 91.822C240.279 97.6464 240.279 109.975 239.494 115.799C237.117 133.435 229.142 150.428 217.035 163.652C212.303 168.819 211.266 171.272 212.255 174.948C213.037 177.853 216.08 180.708 218.976 181.251C222.766 181.963 225.665 180.282 230.881 174.35C243.465 160.036 251.962 142.736 255.846 123.523C257.018 117.718 257.193 115.168 257.193 103.811C257.193 92.4528 257.018 89.9035 255.846 84.0982C251.965 64.8971 243.464 47.5838 230.901 33.2947C224.945 26.5211 221.653 24.9934 217.197 26.9362ZM97.3153 53.8611C93.5503 56.1593 86.3997 65.4531 82.6034 72.9833C79.9447 78.2569 76.9518 87.6708 76.1461 93.2917C75.1689 100.113 75.7569 114.401 77.2472 120.044C80.3374 131.747 85.6258 141.738 93.0116 149.827C96.5988 153.755 98.4599 154.831 101.669 154.831C107.331 154.831 111.283 149.933 110.072 144.415C109.854 143.42 108.367 141.116 106.767 139.296C100.924 132.65 97.6449 126.984 94.9526 118.885C93.4049 114.228 93.3151 113.398 93.3151 103.811C93.3151 94.2228 93.4049 93.3932 94.9526 88.7364C97.6449 80.6369 100.924 74.9713 106.767 68.3248C110.811 63.7231 111.403 59.6519 108.553 56.026C106.001 52.7792 100.746 51.7669 97.3153 53.8611ZM189.888 53.9243C184.566 57.1722 184.316 62.7247 189.238 68.2946C198.57 78.8518 203.035 90.3441 203.035 103.811C203.035 117.251 198.925 127.984 189.66 138.746C186.14 142.834 185.23 145.185 185.932 148.381C187.111 153.76 193.992 156.633 198.745 153.732C203.202 151.013 211.689 139.117 215.205 130.665C218.455 122.849 219.907 116.026 220.254 106.928C220.728 94.4895 218.867 84.7029 214.085 74.4866C210.198 66.1848 202.248 55.6514 198.345 53.6309C196.047 52.4412 192.093 52.5786 189.888 53.9243ZM140.009 70.7778C129.609 73.5045 121.311 81.2521 117.787 91.5251C115.899 97.0249 115.899 105.958 117.787 111.458C121.016 120.87 129.043 128.849 138.305 131.854C139.26 132.164 139.32 135.11 139.328 182.787L139.338 233.391L140.632 235.649C143.954 241.45 152.061 241.45 155.383 235.649L156.677 233.391L156.687 182.787C156.695 135.11 156.754 132.164 157.71 131.854C161.325 130.682 166.481 127.62 169.402 124.914C180.047 115.049 182.767 99.9551 176.252 86.9043C174.055 82.5038 167.511 75.7488 163.256 73.4894C159.27 71.3732 152.13 69.5962 147.77 69.6356C145.83 69.653 142.337 70.1673 140.009 70.7778Z" fill="#353535" fill-opacity="0.5"/>
</svg>
