<svg width="19" height="19" viewBox="0 0 19 19" fill="none" xmlns="http://www.w3.org/2000/svg">
<path fill-rule="evenodd" clip-rule="evenodd" d="M14.4051 0.0522525C14.0837 0.122575 13.7515 0.274861 13.4591 0.485829C13.3255 0.582245 10.7433 3.13472 7.72086 6.15803L2.22554 11.6549L1.11267 15.0251C0.500637 16.8787 -7.92492e-05 18.4467 9.40812e-09 18.5095C0.000277415 18.74 0.265992 19 0.501192 19C0.541495 19 2.09944 18.4921 3.96325 17.8714L7.35207 16.7427L12.9444 11.1499C19.0372 5.05679 18.7023 5.41644 18.9087 4.74545C18.9805 4.51195 19 4.35539 19 4.01292C19 3.67045 18.9805 3.51389 18.9087 3.28039C18.7282 2.69366 18.6225 2.5546 17.521 1.45387C16.5444 0.478028 16.4923 0.43277 16.1635 0.274822C15.9755 0.184503 15.699 0.084642 15.5493 0.0529652C15.217 -0.0173968 14.7247 -0.017674 14.4051 0.0522525ZM15.5446 1.14197C15.8541 1.25767 16.0238 1.40188 16.9251 2.3154C17.7712 3.17289 17.8871 3.33908 17.9434 3.77641C18.0206 4.37491 17.8525 4.79023 17.3193 5.31911L16.9605 5.67496L15.1359 3.85406L13.3112 2.03312L13.6686 1.68911C13.8652 1.49988 14.1028 1.30008 14.1967 1.24512C14.5933 1.01289 15.0964 0.974403 15.5446 1.14197ZM14.3953 4.61688L16.2082 6.42851L11.6509 10.9818L7.09357 15.5351L5.27054 13.7139L3.44751 11.8928L7.99494 7.349C10.496 4.84994 12.5514 2.80524 12.5624 2.80524C12.5735 2.80524 13.3982 3.62048 14.3953 4.61688ZM4.53296 14.4816L6.1133 16.061L3.776 16.8376C2.49047 17.2647 1.41952 17.6141 1.39614 17.6141C1.37272 17.6141 1.69986 16.5763 2.12302 15.3077C2.95849 12.8034 2.92484 12.9022 2.94125 12.9022C2.94751 12.9022 3.66377 13.613 4.53296 14.4816Z" fill="#353535"/>
</svg>
