<svg width="230" height="184" viewBox="0 0 230 184" fill="none" xmlns="http://www.w3.org/2000/svg">
<mask id="mask0_104_31" style="mask-type:alpha" maskUnits="userSpaceOnUse" x="34" y="6" width="187" height="82">
<path d="M178.192 10.8558L136.028 87.4028L220.903 87.0995L178.192 10.8558Z" fill="#C4C4C4"/>
<path d="M174.136 6.84938L131.986 87.4172L34.9866 87.7638L71.0741 7.21767L174.136 6.84938Z" fill="#C4C4C4"/>
</mask>
<g mask="url(#mask0_104_31)">
<path fill-rule="evenodd" clip-rule="evenodd" d="M71.1578 39.4835C61.0998 57.2669 50.7646 75.3825 48.1902 79.7458L43.0694 87.7351L55.1944 87.6917L65.2985 87.6556L87.6952 47.2388L110.268 7.07773L99.8558 7.11493L89.4411 7.15215L71.1578 39.4835ZM101.173 39.1181C91.2415 56.7598 80.9162 74.8779 78.2254 79.3804L73.3818 87.6267L84.1204 87.5883L95.6109 87.5473L117.56 47.1467L140.165 6.97089L129.696 7.0083L119.226 7.04572L101.173 39.1181ZM136.782 31.9435C129.034 45.7006 118.965 63.3283 114.412 71.1176C109.856 78.9069 105.713 86.8366 105.715 87.5112C105.715 87.5112 109.757 87.4967 115.819 87.4751L125.923 87.439L147.588 49.5598C159.074 29.4286 169.394 8.5418 170.094 6.86391C170.094 6.86391 168.021 6.87135 160.94 6.89665L150.873 6.93263L136.782 31.9435ZM170.137 18.9263L166.124 26.9824L183.826 58.0411L202.729 91.1854L212.826 89.1388C218.828 89.5484 223.434 90.4232 222.93 89.1027C220.489 82.7143 177.454 10.912 176.171 10.8631C175.353 10.8343 172.453 13.848 170.137 18.9263ZM155.913 49.2159L150.429 57.9753L158.458 72.6064C168.368 89.2977 168.836 94.5345 179.362 94.4969L187.863 87.161L177.097 68.3269C171.177 57.967 161.463 41.5504 160.105 39.0665C157.876 34.9809 160.869 41.2961 155.913 49.2159ZM140.758 76.9799C138.885 80.6685 136.523 86.3953 136.027 87.4028C136.027 87.4028 140.596 87.3865 146.132 87.3667L156.236 87.3306L150.518 78.7714C147.68 74.0938 145.087 70.2677 144.758 70.2689C144.428 70.27 142.629 73.2912 140.758 76.9799ZM44.573 100.458C46.5573 103.463 56.4317 120.532 66.5201 138.385L84.8609 170.848L90.5693 161.506C95.4672 153.489 95.8204 151.462 93.0462 147.232C91.2692 144.521 83.7886 131.639 76.4243 118.608L63.0364 94.9126L52.0003 94.952C41.1531 94.9908 41.0266 95.0838 44.573 100.458ZM76.3396 95.6078C76.3416 96.1703 82.1712 106.808 89.2948 119.246L102.246 141.859L107.073 132.011L111.897 122.163L104.684 109.085C97.8694 96.7338 96.8823 95.9678 86.9025 95.2973C81.0897 94.9041 76.3376 95.0453 76.3396 95.6078ZM112.658 102.65C114.935 106.996 117.132 110.923 117.541 111.382C118.332 112.26 126.062 98.3133 126.054 96.0267C126.051 95.2889 122.105 94.7015 117.285 94.7187L108.523 94.75L112.658 102.65ZM123.054 119.659C115.278 133.416 105.018 151.534 100.253 159.92L91.585 175.171L102.126 175.097L112.665 175.02L135.352 134.798L158.039 94.5731L147.614 94.6103L137.187 94.6476L123.054 119.659ZM151.587 121.992C143.145 137.091 132.87 155.206 128.752 162.254L121.266 175.065L131.942 175.027L142.617 174.989L157.967 147.538C166.409 132.442 176.685 114.324 180.803 107.276L188.289 94.465L177.613 94.5031L166.938 94.5413L151.587 121.992ZM176.293 134.079L153.863 173.731L161.464 174.483C165.646 174.899 170.433 174.716 172.106 174.082C174.799 173.06 218.035 99.3191 218.022 95.7687C218.019 94.9943 213.677 94.3743 208.37 94.3932L198.724 94.4277L176.293 134.079Z" fill="#E31E24"/>
</g>
<mask id="mask1_104_31" style="mask-type:alpha" maskUnits="userSpaceOnUse" x="43" y="95" width="187" height="82">
<path d="M85.8081 172.021L127.972 95.4739L43.0978 95.7772L85.8081 172.021Z" fill="#C4C4C4"/>
<path d="M89.8644 176.027L132.014 95.4588L229.014 95.1121L192.926 175.658L89.8644 176.027Z" fill="#C4C4C4"/>
</mask>
<g mask="url(#mask1_104_31)">
<path fill-rule="evenodd" clip-rule="evenodd" d="M192.843 143.393C202.901 125.609 213.236 107.494 215.81 103.13L220.931 95.141L208.806 95.1843L198.702 95.2204L176.305 135.637L153.732 175.798L164.145 175.761L174.559 175.724L192.843 143.393ZM162.827 143.758C172.759 126.116 183.084 107.998 185.775 103.496L190.619 95.2493L179.88 95.2877L168.39 95.3288L146.441 135.729L123.835 175.905L134.305 175.868L144.774 175.83L162.827 143.758ZM127.219 150.933C134.967 137.175 145.035 119.548 149.589 111.758C154.144 103.969 158.288 96.0394 158.285 95.3649C158.285 95.3649 154.244 95.3793 148.181 95.401L138.077 95.4371L116.413 133.316C104.926 153.447 94.6063 174.334 93.9064 176.012C93.9064 176.012 95.9792 176.005 103.061 175.979L113.127 175.943L127.219 150.933ZM93.8633 163.95L97.8762 155.894L80.174 124.835L61.2714 91.6907L51.1745 93.7372C45.1727 93.3276 40.566 92.4528 41.0704 93.7733C43.5117 100.162 86.5468 171.964 87.8295 172.013C88.6474 172.042 91.5474 169.028 93.8633 163.95ZM108.087 133.66L113.571 124.901L105.543 110.27C95.6327 93.5783 95.1649 88.3415 84.6383 88.3791L76.1377 95.715L86.9032 114.549C92.8238 124.909 102.537 141.326 103.896 143.81C106.125 147.895 103.132 141.58 108.087 133.66ZM123.242 105.896C125.116 102.208 127.477 96.4807 127.973 95.4732C127.973 95.4732 123.404 95.4895 117.869 95.5093L107.765 95.5454L113.482 104.105C116.32 108.782 118.914 112.608 119.242 112.607C119.573 112.606 121.371 109.585 123.242 105.896ZM219.428 82.4184C217.443 79.4131 207.569 62.3438 197.48 44.4911L179.14 12.0277L173.431 21.3699C168.533 29.3869 168.18 31.4142 170.954 35.6439C172.731 38.3552 180.212 51.2374 187.576 64.2684L200.964 87.9635L212 87.924C222.847 87.8853 222.974 87.7923 219.428 82.4184ZM187.661 87.2683C187.659 86.7058 181.829 76.0679 174.706 63.6301L161.754 41.0171L156.928 50.8652L152.103 60.7132L159.316 73.7911C166.131 86.1422 167.118 86.9082 177.098 87.5788C182.911 87.972 187.663 87.8308 187.661 87.2683ZM151.343 80.2265C149.065 75.8805 146.869 71.9532 146.46 71.4944C145.669 70.6157 137.938 84.5627 137.946 86.8493C137.949 87.5872 141.896 88.1745 146.716 88.1573L155.477 88.126L151.343 80.2265ZM140.947 63.2175C148.722 49.4602 158.983 31.3424 163.748 22.9557L172.415 7.7049L161.874 7.77909L151.335 7.85571L128.648 48.0781L105.961 88.303L116.386 88.2657L126.813 88.2284L140.947 63.2175ZM112.413 60.8842C120.855 45.7853 131.131 27.6698 135.249 20.6223L142.735 7.81097L132.059 7.84911L121.383 7.88726L106.033 35.3378C97.5911 50.4343 87.3155 68.5522 83.1971 75.5997L75.7114 88.411L86.3871 88.3729L97.0628 88.3347L112.413 60.8842ZM87.7072 48.7967L110.138 9.14502L102.536 8.39293C98.3541 7.97685 93.5674 8.15955 91.8943 8.79381C89.201 9.81646 45.9657 83.5569 45.9784 87.1073C45.9811 87.8817 50.3233 88.5018 55.6301 88.4828L65.2768 88.4483L87.7072 48.7967Z" fill="#E31E24"/>
</g>
<rect x="4.23037" y="55.8333" width="100.977" height="141.376" rx="4" transform="rotate(-29.9941 4.23037 55.8333)" fill="white" stroke="#353535" stroke-width="2"/>
<g filter="url(#filter0_f_104_31)">
<rect x="24.8505" y="72.9588" width="77.6289" height="7.12918" rx="2" transform="rotate(-29.9941 24.8505 72.9588)" fill="#959697"/>
</g>
<g filter="url(#filter1_f_104_31)">
<rect x="31.5823" y="84.6215" width="51.4886" height="7.12918" rx="2" transform="rotate(-29.9941 31.5823 84.6215)" fill="#959697"/>
</g>
<g filter="url(#filter2_f_104_31)">
<rect x="65.6382" y="143.622" width="30.8931" height="7.12918" rx="2" transform="rotate(-29.9941 65.6382 143.622)" fill="#959697"/>
</g>
<path fill-rule="evenodd" clip-rule="evenodd" d="M109.816 85.3832C110.671 85.6465 111.559 86.2226 111.819 86.6822C112.191 87.3397 112.061 87.3058 111.184 86.516C109.797 85.2683 108.451 85.2982 106.201 86.6279C102.829 88.6192 99.9526 93.105 99.6476 96.849L99.5195 98.4181L100.362 98.2257C101.13 98.0505 101.129 98.0823 100.352 98.587C99.1435 99.373 98.879 98.6045 99.4666 96.0138C100.558 91.1987 102.354 88.5225 105.971 86.3176C108.117 85.0093 108.388 84.9435 109.816 85.3832ZM104.666 92.3942C104.679 92.7126 104.569 94.6455 104.421 96.69C104.273 98.7344 104.337 101.206 104.563 102.183C105.276 105.249 104.899 109.665 104.048 108.233C103.79 107.799 103.586 104.002 103.687 101.51C103.752 99.9077 103.151 98.866 101.823 98.2757C101.322 98.0533 101.307 97.9645 101.756 97.8787C102.074 97.8177 102.583 98.0831 102.888 98.4683C103.192 98.854 103.547 99.1068 103.675 99.0306C103.802 98.9546 104.011 97.3367 104.137 95.4356C104.344 92.3341 104.602 90.848 104.666 92.3942ZM112.126 92.3342C111.438 95.2179 109.354 98.5516 107.664 99.4709C107.297 99.6705 107.689 99.0488 108.536 98.0897C110.737 95.5959 111.792 93.5441 112.054 91.2453C112.179 90.1424 112.404 89.2789 112.553 89.3267C112.701 89.3739 112.509 90.7274 112.126 92.3342ZM115.918 94.9267C116.636 95.7478 116.733 96.161 116.468 97.269C116.058 98.9835 115.41 100.116 114.546 100.63C113.423 101.298 113.509 100.102 114.672 98.8952C116.034 97.481 116.346 96.4221 115.713 95.3576C114.547 93.3963 113.097 95.3096 112.409 99.7177C112.163 101.298 112.124 103.093 112.324 103.705C112.745 104.998 113.222 110.794 113.049 112.51C112.96 113.389 112.779 113.639 112.328 113.504C111.616 113.293 111.454 112.191 111.476 107.748L111.49 104.831L108.899 103.738C107.473 103.137 106.133 102.353 105.921 101.996C105.547 101.367 105.881 100.533 106.669 100.126C106.88 100.017 106.817 100.261 106.528 100.669C105.765 101.746 106.301 102.309 109.013 103.28C111.17 104.052 111.445 104.057 111.603 103.327C111.7 102.877 111.613 101.755 111.41 100.833C111.195 99.8534 111.222 99.4382 111.475 99.8343C111.877 100.463 111.91 100.431 111.94 99.3893C111.985 97.8443 113.534 94.5285 114.365 94.1995C114.819 94.02 115.338 94.2625 115.918 94.9267ZM119.245 92.633C119.363 92.831 119.591 94.211 119.752 95.6993C119.913 97.1877 120.181 98.4473 120.348 98.4988C120.515 98.5504 121.283 97.8422 122.054 96.9249C122.826 96.0077 123.556 95.2881 123.677 95.3253C123.798 95.3625 123.206 96.1936 122.362 97.1726C120.3 99.5632 119.872 99.3708 119.404 95.8452C119.201 94.315 118.883 92.9749 118.697 92.8673C118.511 92.7599 118.51 92.5819 118.695 92.4722C118.88 92.3624 119.127 92.4347 119.245 92.633ZM111.03 98.5412C111.095 98.8807 110.97 98.8423 110.712 98.4431C110.479 98.0819 110.431 97.8306 110.605 97.8844C110.78 97.9381 110.971 98.2337 111.03 98.5412ZM103.968 103.713C104.026 106.713 104.152 107.901 104.364 107.444C104.694 106.737 104.599 103.249 104.242 102.922C104.08 102.774 103.957 103.13 103.968 103.713ZM114.294 99.8312L113.839 100.509L114.484 100.151C114.84 99.9549 115.254 99.5135 115.404 99.1712C115.648 98.6177 115.627 98.5823 115.214 98.8509C114.958 99.017 114.544 99.458 114.294 99.8312ZM126.369 94.245C126.686 94.8835 128.419 94.1427 131.378 92.1039C132.13 91.5853 132.711 91.333 132.669 91.5438C132.626 91.754 131.108 92.8356 129.296 93.9473C126.124 95.8928 126.006 95.9326 126.144 95.017C126.269 94.1912 126.199 94.0551 125.613 93.9853C125.028 93.9155 125.013 93.8876 125.505 93.7738C125.816 93.702 126.205 93.9137 126.369 94.245ZM134.041 90.2747C134.005 90.4536 133.739 90.629 133.45 90.6637C133.13 90.7024 133.156 90.5746 133.516 90.3381C133.841 90.1243 134.078 90.0957 134.041 90.2747ZM111.84 107.867C111.866 111.921 111.964 113.093 112.284 113.192C112.689 113.316 112.761 110.238 112.424 107.227C112.254 105.698 112.047 104.487 111.966 104.535C111.885 104.584 111.828 106.083 111.84 107.867Z" fill="#353535"/>
<g filter="url(#filter3_f_104_31)">
<mask id="mask2_104_31" style="mask-type:alpha" maskUnits="userSpaceOnUse" x="84" y="14" width="8" height="7">
<path d="M88.4976 14.409L88.5453 18.4176L91.917 16.5016L88.4976 14.409Z" fill="#C4C4C4"/>
<path d="M88.2457 14.3397L88.3846 18.5089L84.5313 20.6986L84.1515 16.6663L88.2457 14.3397Z" fill="#C4C4C4"/>
</mask>
<g mask="url(#mask2_104_31)">
<path fill-rule="evenodd" clip-rule="evenodd" d="M84.8824 17.9556C84.8831 18.8928 84.8802 19.8494 84.8761 20.0818L84.8524 20.5163L85.3341 20.2426L85.7355 20.0145L85.7156 17.8949L85.7085 15.7817L85.2949 16.0167L84.8811 16.2518L84.8824 17.9556ZM86.069 17.2677C86.0715 18.1963 86.069 19.1529 86.0634 19.3934L86.0566 19.832L86.4832 19.5896L86.9396 19.3302L86.9023 17.2213L86.8962 15.1067L86.4803 15.3431L86.0644 15.5794L86.069 17.2677ZM87.3246 16.1818C87.3264 16.9061 87.3231 17.8372 87.3175 18.251C87.3118 18.6649 87.3257 19.0751 87.341 19.1021C87.341 19.1021 87.5016 19.0108 87.7424 18.874L88.1438 18.6459L88.152 16.6443C88.1553 15.5811 88.0951 14.5139 88.0851 14.4311C88.0851 14.4311 88.0028 14.4779 87.7214 14.6377L87.3215 14.865L87.3246 16.1818ZM88.3588 14.9128L88.3808 15.3251L89.7858 16.1707L91.2856 17.0728L91.6414 16.7644C91.8895 16.6462 92.0926 16.5779 92.0428 16.5363C91.8015 16.3355 88.4693 14.428 88.4172 14.4548C88.384 14.472 88.3365 14.6576 88.3588 14.9128ZM88.4757 16.4437L88.4549 16.9173L89.1044 17.3226C89.8753 17.7681 90.012 17.9671 90.4301 17.7295L90.6031 17.2453L89.7499 16.7332C89.2806 16.4515 88.5237 16.0125 88.4136 15.9436C88.2328 15.8302 88.4943 16.0157 88.4757 16.4437ZM88.4985 17.8946C88.5071 18.0842 88.5422 18.3663 88.5452 18.4177C88.5452 18.4177 88.7267 18.3146 88.9466 18.1896L89.348 17.9615L88.9274 17.7473C88.7089 17.6238 88.5194 17.5289 88.5064 17.5363C88.4932 17.5438 88.4898 17.705 88.4985 17.8946ZM85.1992 20.9916C85.3459 21.0673 86.1239 21.5288 86.928 22.0168L88.3902 22.9043L88.4067 22.4025C88.4209 21.9718 88.3893 21.8828 88.1834 21.7758C88.0516 21.7071 87.4633 21.3595 86.8763 21.0033L85.8091 20.3556L85.3707 20.6047C84.9398 20.8496 84.9368 20.8561 85.1992 20.9916ZM86.3543 20.085C86.3671 20.1074 86.839 20.4023 87.403 20.7402L88.4285 21.3544L88.3986 20.8521L88.3685 20.3498L87.7865 19.9884C87.2367 19.6471 87.1801 19.6386 86.7678 19.8356C86.5275 19.9503 86.3415 20.0625 86.3543 20.085ZM87.9588 19.552C88.1474 19.6748 88.3234 19.7827 88.35 19.7919C88.4014 19.8093 88.3946 19.0778 88.3427 18.9865C88.3259 18.9571 88.1556 19.0221 87.9641 19.1309L87.616 19.3287L87.9588 19.552ZM88.7561 19.9994C88.7568 20.7242 88.757 21.6793 88.7564 22.1218L88.7553 22.9264L89.1732 22.687L89.591 22.4475L89.5871 20.3292L89.5831 18.2109L89.169 18.4462L88.7547 18.6816L88.7561 19.9994ZM89.9446 19.4527C89.949 20.2462 89.9485 21.2015 89.9435 21.5758L89.9344 22.2564L90.3585 22.0154L90.7826 21.7744L90.7746 20.3317C90.7702 19.5383 90.7707 18.5829 90.7757 18.2085L90.7848 17.528L90.3607 17.769L89.9366 18.01L89.9446 19.4527ZM91.2006 19.3821L91.2018 21.4718L91.5214 21.3314C91.6972 21.2542 91.8837 21.1395 91.936 21.0766C92.0201 20.9753 92.0783 17.0549 91.9977 16.9132C91.9801 16.8822 91.7933 16.9548 91.5825 17.0746L91.1993 17.2924L91.2006 19.3821Z" fill="#E31E24"/>
</g>
<mask id="mask3_104_31" style="mask-type:alpha" maskUnits="userSpaceOnUse" x="85" y="16" width="8" height="7">
<path d="M88.4541 22.93L88.4064 18.9214L85.0347 20.8374L88.4541 22.93Z" fill="#C4C4C4"/>
<path d="M88.7061 22.9993L88.5671 18.8302L92.4204 16.6404L92.8002 20.6727L88.7061 22.9993Z" fill="#C4C4C4"/>
</mask>
<g mask="url(#mask3_104_31)">
<path fill-rule="evenodd" clip-rule="evenodd" d="M92.069 19.3834C92.0684 18.4462 92.0713 17.4896 92.0754 17.2572L92.0991 16.8227L91.6174 17.0964L91.216 17.3245L91.2359 19.4441L91.243 21.5573L91.6566 21.3223L92.0703 21.0872L92.069 19.3834ZM90.8825 20.0713C90.88 19.1427 90.8825 18.1861 90.888 17.9456L90.8949 17.507L90.4683 17.7494L90.0118 18.0088L90.0492 20.1177L90.0553 22.2323L90.4712 21.9959L90.8871 21.7596L90.8825 20.0713ZM89.6269 21.1572C89.6251 20.4329 89.6283 19.5018 89.6339 19.088C89.6396 18.6741 89.6258 18.2639 89.6104 18.2369C89.6104 18.2369 89.4499 18.3282 89.2091 18.4651L88.8077 18.6932L88.7995 20.6947C88.7962 21.7579 88.8564 22.8251 88.8664 22.9079C88.8664 22.9079 88.9487 22.8611 89.23 22.7013L89.6299 22.474L89.6269 21.1572ZM88.5927 22.4263L88.5707 22.0139L87.1657 21.1683L85.6659 20.2662L85.3101 20.5746C85.062 20.6928 84.8589 20.7611 84.9087 20.8027C85.1499 21.0035 88.4821 22.911 88.5343 22.8842C88.5675 22.867 88.615 22.6814 88.5927 22.4263ZM88.4758 20.8953L88.4966 20.4218L87.8471 20.0164C87.0762 19.5709 86.9395 19.3719 86.5213 19.6095L86.3484 20.0937L87.2016 20.6058C87.6709 20.8875 88.4277 21.3265 88.5378 21.3954C88.7187 21.5088 88.4571 21.3233 88.4758 20.8953ZM88.453 19.4444C88.4444 19.2548 88.4093 18.9727 88.4063 18.9213C88.4063 18.9213 88.2248 19.0244 88.0049 19.1494L87.6035 19.3775L88.0241 19.5917C88.2425 19.7152 88.4321 19.8101 88.4451 19.8027C88.4582 19.7952 88.4617 19.634 88.453 19.4444ZM91.7523 16.3474C91.6056 16.2717 90.8276 15.8102 90.0234 15.3222L88.5613 14.4347L88.5448 14.9366C88.5306 15.3672 88.5622 15.4562 88.768 15.5632C88.8999 15.6319 89.4882 15.9795 90.0752 16.3357L91.1424 16.9834L91.5808 16.7343C92.0117 16.4894 92.0147 16.4829 91.7523 16.3474ZM90.5972 17.254C90.5844 17.2316 90.1125 16.9367 89.5485 16.5989L88.523 15.9846L88.5529 16.4869L88.583 16.9892L89.165 17.3506C89.7148 17.6919 89.7713 17.7004 90.1837 17.5034C90.424 17.3887 90.6099 17.2765 90.5972 17.254ZM88.9927 17.787C88.8041 17.6642 88.6281 17.5563 88.6014 17.5471C88.5501 17.5297 88.5569 18.2612 88.6088 18.3525C88.6256 18.3819 88.7959 18.3169 88.9874 18.2081L89.3354 18.0103L88.9927 17.787ZM88.1953 17.3396C88.1946 16.6148 88.1945 15.6597 88.1951 15.2172L88.1962 14.4126L87.7782 14.652L87.3605 14.8915L87.3644 17.0098L87.3684 19.1281L87.7825 18.8928L88.1967 18.6574L88.1953 17.3396ZM87.0069 17.8863C87.0025 17.0928 87.003 16.1375 87.008 15.7632L87.0171 15.0826L86.593 15.3236L86.1689 15.5646L86.1769 17.0073C86.1813 17.8007 86.1808 18.7561 86.1758 19.1305L86.1667 19.811L86.5908 19.57L87.0149 19.329L87.0069 17.8863ZM85.7509 17.9569L85.7496 15.8672L85.4301 16.0077C85.2542 16.0848 85.0678 16.1995 85.0155 16.2624C84.9314 16.3638 84.8732 20.2841 84.9538 20.4258C84.9713 20.4568 85.1582 20.3842 85.369 20.2644L85.7522 20.0466L85.7509 17.9569Z" fill="#E31E24"/>
</g>
</g>
<g filter="url(#filter4_f_104_31)">
<path d="M74.4941 24.9483L74.7386 24.8094C74.7925 24.9338 74.8185 25.0577 74.8168 25.1811C74.815 25.3046 74.7799 25.4217 74.7115 25.5325C74.6425 25.6424 74.5338 25.7396 74.3852 25.824C74.2765 25.8858 74.166 25.9216 74.0537 25.9315C73.9422 25.941 73.8334 25.9264 73.7273 25.8879C73.6207 25.8485 73.5201 25.7861 73.4254 25.7006C73.3311 25.6137 73.2471 25.5054 73.1733 25.3755L73.0683 25.1908C72.9945 25.0609 72.9447 24.9336 72.9188 24.8091C72.8933 24.6832 72.8913 24.5641 72.9129 24.4518C72.9354 24.3391 72.9808 24.2363 73.0494 24.1435C73.1179 24.0506 73.2095 23.9716 73.3241 23.9065C73.4642 23.8269 73.5976 23.7859 73.7243 23.7835C73.851 23.7811 73.9676 23.8115 74.0742 23.8745C74.1811 23.9361 74.2757 24.0245 74.3579 24.1395L74.1134 24.2785C74.0523 24.1986 73.988 24.1369 73.9205 24.0932C73.8526 24.0487 73.7792 24.0264 73.7005 24.0262C73.6217 24.026 73.5344 24.0532 73.4385 24.1077C73.3561 24.1545 73.2924 24.2115 73.2475 24.2786C73.2033 24.3452 73.1764 24.4195 73.1668 24.5013C73.158 24.5827 73.1659 24.6697 73.1905 24.7625C73.2151 24.8552 73.2554 24.9508 73.3114 25.0493L73.4178 25.2365C73.4694 25.3273 73.5273 25.4074 73.5913 25.4766C73.6562 25.5453 73.7253 25.5987 73.7986 25.6368C73.8719 25.6748 73.9486 25.6942 74.0286 25.6947C74.1082 25.6944 74.1892 25.6709 74.2716 25.6241C74.376 25.5647 74.4498 25.5009 74.4929 25.4326C74.5361 25.3642 74.5558 25.2901 74.552 25.2103C74.549 25.13 74.5297 25.0427 74.4941 24.9483ZM74.9486 23.9336L75.6086 25.0951L75.373 25.229L74.5899 23.851L74.8192 23.7207L74.9486 23.9336ZM75.2516 23.4648L75.3749 23.6846C75.3529 23.6914 75.3328 23.6995 75.3145 23.7088C75.2965 23.7167 75.2765 23.727 75.2544 23.7395C75.2001 23.7704 75.157 23.8062 75.125 23.8468C75.093 23.8874 75.0713 23.9312 75.0598 23.9782C75.0483 24.0252 75.0462 24.0747 75.0533 24.1268C75.0608 24.1776 75.0762 24.2294 75.0996 24.2824L75.0551 24.3583C75.0078 24.2751 74.9715 24.1924 74.9461 24.1102C74.9216 24.0275 74.9108 23.9483 74.9138 23.8725C74.9163 23.7958 74.9354 23.7265 74.971 23.6647C75.007 23.6016 75.0624 23.5488 75.1371 23.5063C75.1541 23.4967 75.1748 23.4877 75.1993 23.4794C75.2233 23.4703 75.2407 23.4654 75.2516 23.4648ZM76.8177 24.4417C76.7217 24.4962 76.6256 24.5295 76.5291 24.5416C76.433 24.5524 76.3401 24.544 76.2503 24.5165C76.1613 24.4884 76.0788 24.442 76.0028 24.3774C75.9267 24.3128 75.8612 24.2321 75.8062 24.1353L75.7758 24.0818C75.7121 23.9697 75.672 23.8606 75.6554 23.7543C75.6383 23.6472 75.6409 23.5469 75.663 23.4534C75.6852 23.36 75.7234 23.277 75.7777 23.2046C75.832 23.1322 75.8978 23.074 75.9751 23.0301C76.0736 22.9741 76.1681 22.9429 76.2587 22.9363C76.3502 22.9293 76.4362 22.9433 76.5168 22.9783C76.5969 23.0126 76.6714 23.0646 76.7403 23.1344C76.8087 23.2034 76.8704 23.2862 76.9254 23.383L76.9855 23.4887L75.9564 24.0735L75.8471 23.8812L76.6406 23.4303L76.6304 23.4125C76.5923 23.3533 76.5458 23.3011 76.4909 23.2559C76.4369 23.2102 76.3759 23.182 76.308 23.1712C76.24 23.1603 76.1657 23.1779 76.0851 23.2237C76.0316 23.2541 75.9889 23.2935 75.9569 23.342C75.9244 23.3897 75.9046 23.4447 75.8975 23.5072C75.8903 23.5697 75.8959 23.6379 75.9142 23.7117C75.9326 23.7855 75.9654 23.864 76.0127 23.9472L76.0431 24.0007C76.0802 24.0661 76.1241 24.1226 76.1748 24.1702C76.2258 24.2164 76.281 24.2513 76.3404 24.2748C76.4007 24.2979 76.4629 24.3075 76.5269 24.3036C76.5919 24.2993 76.6566 24.2788 76.7211 24.2421C76.8043 24.1948 76.8652 24.1378 76.9036 24.071C76.942 24.0043 76.9667 23.9301 76.9777 23.8486L77.1848 23.8809C77.1806 23.9428 77.1672 24.0072 77.1445 24.074C77.1218 24.1408 77.0842 24.206 77.0316 24.2696C76.9798 24.3327 76.9085 24.39 76.8177 24.4417ZM78.3311 23.1941L77.3714 21.5054L77.6083 21.3708L78.7199 23.327L78.5034 23.45L78.3311 23.1941ZM77.173 23.3148L77.1578 23.288C77.098 23.1827 77.0565 23.08 77.0332 22.9797C77.0103 22.8782 77.005 22.7829 77.0173 22.6939C77.0305 22.6044 77.0608 22.5243 77.1082 22.4536C77.156 22.3815 77.221 22.322 77.3034 22.2752C77.39 22.226 77.4743 22.1984 77.5562 22.1923C77.6384 22.1848 77.7185 22.1972 77.7963 22.2294C77.8744 22.2602 77.9496 22.3085 78.0218 22.3742C78.0939 22.4399 78.164 22.5208 78.2321 22.6169L78.2987 22.734C78.3468 22.8404 78.3802 22.9416 78.3988 23.0377C78.4184 23.1333 78.4213 23.2226 78.4078 23.3055C78.3952 23.388 78.3648 23.4631 78.3168 23.5308C78.2683 23.5976 78.2004 23.6559 78.1129 23.7056C78.0322 23.7515 77.9485 23.776 77.8616 23.7793C77.7756 23.7822 77.6906 23.7659 77.6065 23.7306C77.5232 23.6948 77.4443 23.6419 77.3697 23.572C77.2955 23.5007 77.23 23.4149 77.173 23.3148ZM77.3947 23.1534L77.4099 23.1801C77.449 23.2489 77.4925 23.3096 77.5403 23.3621C77.589 23.4142 77.6412 23.4547 77.697 23.4837C77.7528 23.5127 77.811 23.5273 77.8719 23.5275C77.9322 23.527 77.9942 23.5086 78.0579 23.4724C78.136 23.428 78.1907 23.375 78.2219 23.3134C78.2541 23.2514 78.27 23.1845 78.2697 23.1128C78.2693 23.0411 78.2596 22.9686 78.2404 22.8952L78.066 22.5883C78.0292 22.5474 77.9888 22.5108 77.9447 22.4786C77.9009 22.4451 77.8541 22.42 77.8042 22.4034C77.7547 22.3855 77.7021 22.3789 77.6464 22.3836C77.5915 22.3879 77.5343 22.4069 77.4749 22.4406C77.4104 22.4773 77.3625 22.5225 77.3312 22.5762C77.3003 22.6286 77.2833 22.6865 77.2801 22.7501C77.2765 22.8129 77.2848 22.8789 77.3051 22.9482C77.3258 23.0162 77.3556 23.0846 77.3947 23.1534ZM78.5596 21.5951L79.3427 22.9731L79.1058 23.1077L78.3227 21.7297L78.5596 21.5951ZM78.0972 21.3743C78.0755 21.3361 78.0686 21.2973 78.0766 21.258C78.0854 21.2181 78.1127 21.1852 78.1586 21.1591C78.2036 21.1336 78.2454 21.1272 78.2842 21.14C78.3237 21.1523 78.3544 21.1776 78.3761 21.2158C78.3968 21.2523 78.4024 21.2907 78.3927 21.331C78.3834 21.37 78.3563 21.4023 78.3113 21.4279C78.2654 21.4539 78.2234 21.461 78.1851 21.449C78.1472 21.4357 78.1179 21.4108 78.0972 21.3743ZM79.5148 21.0523L79.6175 21.2331L78.8725 21.6565L78.7697 21.4756L79.5148 21.0523ZM78.8316 20.9974L79.0672 20.8635L79.8466 22.2351C79.8732 22.2818 79.9004 22.313 79.9284 22.3285C79.9563 22.3441 79.9839 22.3492 80.0112 22.3438C80.0384 22.3384 80.0652 22.3283 80.0916 22.3133C80.1111 22.3022 80.1305 22.2889 80.1498 22.2735C80.1695 22.2567 80.1841 22.2439 80.1937 22.2351L80.3042 22.4266C80.2889 22.4432 80.2674 22.4627 80.2398 22.4852C80.2134 22.508 80.179 22.5315 80.1366 22.5556C80.0789 22.5884 80.0193 22.6071 79.9579 22.6117C79.8964 22.6163 79.8361 22.6 79.7768 22.5629C79.7179 22.5245 79.6624 22.4595 79.6103 22.3678L78.8316 20.9974ZM76.7504 28.7824L76.8641 28.9824L75.8822 29.5404L75.7685 29.3404L76.7504 28.7824ZM74.8781 27.6579L75.9318 29.5122L75.686 29.6519L74.6323 27.7975L74.8781 27.6579ZM76.1335 27.9992L76.2471 28.1991L75.3951 28.6833L75.2814 28.4833L76.1335 27.9992ZM75.7976 27.1353L75.9119 27.3365L74.9427 27.8873L74.8284 27.6861L75.7976 27.1353ZM76.5089 27.3612L77.0959 27.6915L77.1164 27.016L77.3928 26.8589L77.3284 27.7952L78.1899 28.229L77.9173 28.3839L77.3051 28.0477L77.2805 28.7457L77.0067 28.9013L77.0737 27.94L76.2376 27.5154L76.5089 27.3612ZM78.0298 26.8474L78.9634 28.4903L78.7265 28.6249L77.6424 26.7171L77.8589 26.5941L78.0298 26.8474ZM79.1927 26.7324L79.2079 26.7591C79.2648 26.8593 79.3058 26.9591 79.3308 27.0583C79.3552 27.1567 79.3624 27.2504 79.3523 27.3393C79.343 27.4277 79.3151 27.5081 79.2686 27.5805C79.2222 27.653 79.1561 27.7136 79.0704 27.7623C78.9829 27.812 78.8974 27.8415 78.814 27.8507C78.7305 27.86 78.6497 27.8503 78.5716 27.8216C78.4936 27.793 78.4186 27.748 78.3467 27.6866C78.2756 27.6248 78.2075 27.5484 78.1423 27.4574L78.0612 27.3148C78.0135 27.2071 77.9807 27.105 77.9629 27.0084C77.9451 26.9118 77.9429 26.822 77.9565 26.7391C77.9704 26.6548 78.002 26.579 78.0513 26.5117C78.1002 26.4435 78.1679 26.3847 78.2545 26.3355C78.3411 26.2863 78.4276 26.2596 78.514 26.2555C78.5998 26.2505 78.6833 26.2659 78.7644 26.3019C78.8455 26.3378 78.9221 26.3925 78.9942 26.4661C79.0667 26.5384 79.1329 26.6271 79.1927 26.7324ZM78.971 26.8938L78.9558 26.867C78.9167 26.7982 78.8729 26.7378 78.8242 26.6857C78.775 26.6328 78.7221 26.5921 78.6655 26.5636C78.6092 26.5338 78.5503 26.519 78.4886 26.5192C78.4265 26.5186 78.3631 26.5366 78.2986 26.5733C78.2392 26.6071 78.1932 26.6467 78.1606 26.6922C78.1289 26.7371 78.1076 26.7857 78.0969 26.8379C78.0856 26.8892 78.0827 26.9425 78.0883 26.9978C78.0942 27.0517 78.1058 27.1046 78.123 27.1567L78.3104 27.4865C78.3612 27.5363 78.4168 27.5788 78.4773 27.6141C78.5373 27.6485 78.6019 27.6674 78.6712 27.6707C78.74 27.6732 78.813 27.6524 78.8903 27.6085C78.954 27.5723 79.0013 27.5281 79.0321 27.4757C79.0634 27.422 79.0806 27.3633 79.0838 27.2997C79.0878 27.2357 79.0799 27.1694 79.0601 27.1009C79.0398 27.0316 79.0101 26.9625 78.971 26.8938ZM79.4669 25.9667L80.1269 27.1282L79.8913 27.2621L79.1082 25.8841L79.3375 25.7538L79.4669 25.9667ZM79.77 25.4979L79.8932 25.7177C79.8712 25.7245 79.8511 25.7326 79.8328 25.7419C79.8149 25.7498 79.7948 25.7601 79.7728 25.7726C79.7184 25.8035 79.6753 25.8393 79.6433 25.8799C79.6114 25.9205 79.5897 25.9643 79.5782 26.0113C79.5667 26.0582 79.5645 26.1078 79.5716 26.1599C79.5791 26.2106 79.5946 26.2625 79.618 26.3155L79.5734 26.3914C79.5262 26.3082 79.4898 26.2255 79.4645 26.1433C79.44 26.0606 79.4292 25.9814 79.4321 25.9055C79.4346 25.8289 79.4537 25.7596 79.4893 25.6978C79.5253 25.6347 79.5807 25.5819 79.6554 25.5394C79.6724 25.5298 79.6931 25.5208 79.7176 25.5125C79.7416 25.5033 79.7591 25.4985 79.77 25.4979ZM81.336 26.4748C81.2401 26.5293 81.1439 26.5626 81.0474 26.5747C80.9514 26.5855 80.8584 26.5771 80.7686 26.5495C80.6796 26.5215 80.5971 26.4751 80.5211 26.4105C80.4451 26.3459 80.3795 26.2652 80.3245 26.1684L80.2941 26.1149C80.2305 26.0028 80.1903 25.8937 80.1737 25.7874C80.1567 25.6803 80.1592 25.58 80.1814 25.4865C80.2035 25.3931 80.2417 25.3101 80.296 25.2377C80.3504 25.1653 80.4162 25.1071 80.4934 25.0632C80.5919 25.0072 80.6865 24.976 80.7771 24.9694C80.8685 24.9623 80.9546 24.9763 81.0352 25.0114C81.1153 25.0457 81.1898 25.0977 81.2586 25.1675C81.327 25.2364 81.3887 25.3193 81.4437 25.4161L81.5038 25.5218L80.4748 26.1066L80.3655 25.9143L81.1589 25.4634L81.1488 25.4456C81.1106 25.3864 81.0641 25.3342 81.0092 25.289C80.9552 25.2433 80.8942 25.2151 80.8263 25.2042C80.7584 25.1934 80.6841 25.2109 80.6034 25.2568C80.5499 25.2872 80.5072 25.3266 80.4752 25.3751C80.4428 25.4228 80.423 25.4778 80.4158 25.5403C80.4086 25.6028 80.4142 25.6709 80.4326 25.7448C80.4509 25.8186 80.4837 25.8971 80.531 25.9803L80.5614 26.0338C80.5986 26.0991 80.6425 26.1556 80.6931 26.2032C80.7441 26.2495 80.7993 26.2844 80.8587 26.3079C80.919 26.331 80.9812 26.3406 81.0453 26.3367C81.1102 26.3324 81.1749 26.3119 81.2395 26.2752C81.3227 26.2279 81.3835 26.1709 81.4219 26.1041C81.4604 26.0374 81.4851 25.9632 81.496 25.8817L81.7031 25.914C81.699 25.9759 81.6855 26.0403 81.6628 26.1071C81.6402 26.1739 81.6025 26.2391 81.5499 26.3027C81.4982 26.3658 81.4269 26.4231 81.336 26.4748ZM82.7274 25.1668C82.7081 25.1328 82.6826 25.1058 82.651 25.0856C82.6196 25.0641 82.5743 25.0544 82.5149 25.0567C82.4559 25.0577 82.376 25.0751 82.275 25.1089C82.1894 25.1361 82.1093 25.1564 82.0348 25.1695C81.9611 25.1822 81.8937 25.1851 81.8326 25.1783C81.7723 25.171 81.7186 25.1526 81.6715 25.1232C81.6245 25.0938 81.5848 25.0506 81.5525 24.9938C81.5216 24.9394 81.5043 24.8813 81.5006 24.8194C81.4977 24.757 81.5077 24.6946 81.5306 24.6321C81.5544 24.5692 81.5917 24.5093 81.6424 24.4523C81.6932 24.3954 81.7572 24.345 81.8345 24.3011C81.9449 24.2384 82.0502 24.2043 82.1505 24.199C82.2508 24.1937 82.3403 24.2119 82.4191 24.2536C82.4974 24.2945 82.5589 24.3544 82.6038 24.4334L82.3682 24.5673C82.3465 24.5291 82.314 24.4986 82.2708 24.476C82.228 24.452 82.1782 24.4405 82.1214 24.4413C82.0654 24.4417 82.0065 24.4595 81.9445 24.4947C81.8791 24.5318 81.8318 24.5722 81.8027 24.6157C81.7739 24.6579 81.7588 24.6996 81.7575 24.7408C81.757 24.7815 81.7664 24.8188 81.7857 24.8528C81.8002 24.8782 81.8175 24.8988 81.8376 24.9143C81.858 24.9285 81.8845 24.9376 81.9171 24.9416C81.9492 24.9447 81.9901 24.9416 82.0399 24.9324C82.0897 24.9232 82.151 24.9075 82.2237 24.8852C82.3511 24.8465 82.4615 24.8243 82.5547 24.8184C82.648 24.8126 82.7272 24.8255 82.7923 24.857C82.8574 24.8885 82.9109 24.9412 82.9529 25.0151C82.9872 25.0754 83.0058 25.1378 83.0088 25.2023C83.0126 25.2664 83.0012 25.3302 82.9744 25.3938C82.9479 25.456 82.9078 25.5158 82.854 25.5734C82.8006 25.6296 82.7335 25.6806 82.6529 25.7264C82.5315 25.7954 82.4164 25.8321 82.3078 25.8366C82.1991 25.8411 82.1036 25.8212 82.0212 25.7771C81.9388 25.7329 81.8759 25.6726 81.8325 25.5962L82.0694 25.4616C82.1094 25.5242 82.1573 25.5649 82.213 25.5838C82.2682 25.6019 82.325 25.605 82.3834 25.5931C82.4413 25.5804 82.4945 25.5603 82.5429 25.5328C82.6074 25.4962 82.6565 25.457 82.6901 25.4154C82.7246 25.3734 82.7449 25.331 82.7509 25.2882C82.757 25.2455 82.7491 25.205 82.7274 25.1668ZM84.0749 24.4011C84.0556 24.3671 84.0301 24.34 83.9984 24.3199C83.9671 24.2983 83.9217 24.2887 83.8624 24.291C83.8034 24.292 83.7234 24.3093 83.6224 24.3431C83.5368 24.3704 83.4568 24.3906 83.3822 24.4038C83.3086 24.4165 83.2412 24.4194 83.18 24.4126C83.1197 24.4053 83.066 24.3869 83.019 24.3575C82.9719 24.3281 82.9322 24.2849 82.8999 24.228C82.869 24.1737 82.8517 24.1156 82.848 24.0537C82.8451 23.9913 82.8551 23.9289 82.8781 23.8664C82.9018 23.8035 82.9391 23.7436 82.9899 23.6866C83.0406 23.6297 83.1046 23.5793 83.1819 23.5354C83.2923 23.4726 83.3976 23.4386 83.4979 23.4333C83.5982 23.428 83.6878 23.4462 83.7665 23.4879C83.8448 23.5288 83.9064 23.5887 83.9512 23.6677L83.7156 23.8015C83.6939 23.7633 83.6615 23.7329 83.6183 23.7103C83.5755 23.6863 83.5256 23.6748 83.4688 23.6756C83.4129 23.6759 83.3539 23.6937 83.2919 23.729C83.2265 23.7661 83.1793 23.8064 83.1501 23.85C83.1213 23.8922 83.1062 23.9339 83.1049 23.9751C83.1045 24.0158 83.1139 24.0531 83.1332 24.0871C83.1476 24.1125 83.1649 24.133 83.185 24.1486C83.2054 24.1628 83.2319 24.1719 83.2645 24.1758C83.2966 24.179 83.3375 24.1759 83.3874 24.1667C83.4372 24.1575 83.4984 24.1418 83.5712 24.1195C83.6986 24.0808 83.8089 24.0586 83.9022 24.0527C83.9955 24.0469 84.0746 24.0597 84.1397 24.0913C84.2048 24.1228 84.2584 24.1755 84.3003 24.2494C84.3346 24.3096 84.3532 24.3721 84.3562 24.4366C84.3601 24.5007 84.3486 24.5645 84.3218 24.628C84.2954 24.6902 84.2552 24.7501 84.2014 24.8076C84.148 24.8638 84.081 24.9149 84.0003 24.9607C83.8789 25.0297 83.7639 25.0664 83.6552 25.0709C83.5465 25.0754 83.451 25.0555 83.3686 25.0113C83.2862 24.9672 83.2233 24.9069 83.1799 24.8305L83.4168 24.6959C83.4569 24.7584 83.5047 24.7992 83.5604 24.8181C83.6156 24.8362 83.6724 24.8393 83.7308 24.8274C83.7887 24.8147 83.8419 24.7946 83.8903 24.7671C83.9548 24.7304 84.0039 24.6913 84.0376 24.6497C84.0721 24.6077 84.0923 24.5652 84.0984 24.5225C84.1044 24.4798 84.0966 24.4393 84.0749 24.4011Z" fill="black"/>
</g>
<defs>
<filter id="filter0_f_104_31" x="24.5821" y="33.883" width="71.3333" height="45.5186" filterUnits="userSpaceOnUse" color-interpolation-filters="sRGB">
<feFlood flood-opacity="0" result="BackgroundImageFix"/>
<feBlend mode="normal" in="SourceGraphic" in2="BackgroundImageFix" result="shape"/>
<feGaussianBlur stdDeviation="0.5" result="effect1_foregroundBlur_104_31"/>
</filter>
<filter id="filter1_f_104_31" x="31.314" y="58.6135" width="48.6937" height="32.4508" filterUnits="userSpaceOnUse" color-interpolation-filters="sRGB">
<feFlood flood-opacity="0" result="BackgroundImageFix"/>
<feBlend mode="normal" in="SourceGraphic" in2="BackgroundImageFix" result="shape"/>
<feGaussianBlur stdDeviation="0.5" result="effect1_foregroundBlur_104_31"/>
</filter>
<filter id="filter2_f_104_31" x="65.3699" y="127.909" width="30.8565" height="22.1549" filterUnits="userSpaceOnUse" color-interpolation-filters="sRGB">
<feFlood flood-opacity="0" result="BackgroundImageFix"/>
<feBlend mode="normal" in="SourceGraphic" in2="BackgroundImageFix" result="shape"/>
<feGaussianBlur stdDeviation="0.5" result="effect1_foregroundBlur_104_31"/>
</filter>
<filter id="filter3_f_104_31" x="83.8524" y="13.4311" width="9.24664" height="10.4769" filterUnits="userSpaceOnUse" color-interpolation-filters="sRGB">
<feFlood flood-opacity="0" result="BackgroundImageFix"/>
<feBlend mode="normal" in="SourceGraphic" in2="BackgroundImageFix" result="shape"/>
<feGaussianBlur stdDeviation="0.5" result="effect1_foregroundBlur_104_31"/>
</filter>
<filter id="filter4_f_104_31" x="71.5356" y="18.1988" width="14.2836" height="13.0183" filterUnits="userSpaceOnUse" color-interpolation-filters="sRGB">
<feFlood flood-opacity="0" result="BackgroundImageFix"/>
<feBlend mode="normal" in="SourceGraphic" in2="BackgroundImageFix" result="shape"/>
<feGaussianBlur stdDeviation="0.5" result="effect1_foregroundBlur_104_31"/>
</filter>
</defs>
</svg>
