<svg width="117" height="85" viewBox="0 0 117 85" fill="none" xmlns="http://www.w3.org/2000/svg">
<rect x="6" y="21" width="90" height="61" fill="white"/>
<path d="M50.5 54L6.76571 20.25L94.2343 20.25L50.5 54Z" fill="#A6A4A4"/>
<path fill-rule="evenodd" clip-rule="evenodd" d="M6.8106 19.1809C5.17093 19.7618 3.60464 21.437 3.16119 23.084C3.02587 23.5864 2.97596 33.1607 3.01068 51.9157L3.06256 79.9951L3.59241 80.9992C4.21183 82.1733 5.2453 83.1397 6.50464 83.7222L7.4024 84.1376H50.7022H94.002L94.8998 83.7222C96.1591 83.1397 97.1926 82.1733 97.812 80.9992L98.3418 79.9951V51.4902V22.9853L97.8968 22.1525C97.2346 20.913 96.4209 20.0741 95.3519 19.528L94.3965 19.04L50.8995 19.0055C20.6003 18.9816 7.22289 19.0349 6.8106 19.1809ZM92.7083 21.6538C92.6904 21.8844 53.2098 51.533 52.2555 52.0327C51.2897 52.5383 50.3828 52.5961 49.463 52.2104C49.1138 52.064 40.1623 45.4203 29.5705 37.4463C18.9787 29.4724 9.94831 22.6902 9.50288 22.375C9.05746 22.0597 8.69114 21.735 8.68877 21.6538C8.6866 21.5725 27.5925 21.5058 50.7022 21.5058C73.8119 21.5058 92.7146 21.5725 92.7083 21.6538ZM23.2823 36.1248C32.6672 43.1865 40.4168 49.0309 40.5038 49.1128C40.5906 49.1944 32.8232 55.9026 23.243 64.0197L5.82428 78.7779L5.77022 51.4734C5.74044 36.456 5.76431 23.9691 5.82329 23.7251C5.88227 23.481 5.9953 23.2822 6.0746 23.2834C6.15391 23.2846 13.8974 29.0633 23.2823 36.1248ZM95.5811 23.7251C95.6401 23.9691 95.664 36.4526 95.6342 51.4661L95.5801 78.7635L78.1683 64.012C68.5918 55.8989 60.7892 49.2282 60.8292 49.1881C61.1549 48.8622 95.2193 23.2854 95.3298 23.2836C95.4091 23.2822 95.5221 23.481 95.5811 23.7251ZM45.3391 52.7578C47.9476 54.7161 48.8254 55.1112 50.6036 55.1272C52.5001 55.1443 53.3828 54.7551 56.145 52.6848L58.48 50.9349L59.5768 51.8536C67.8371 58.7734 93.9034 80.9648 93.9034 81.0775C93.9034 81.1603 93.626 81.2834 93.2869 81.3513C92.4762 81.5134 8.92056 81.5118 8.10979 81.3497C7.76655 81.281 7.51386 81.1402 7.54838 81.0364C7.68469 80.6277 42.922 50.9463 43.1075 51.084C43.216 51.1647 44.2203 51.9179 45.3391 52.7578Z" fill="#353535"/>
<circle cx="95.5" cy="21.5" r="20" fill="white" stroke="#353535" stroke-width="3"/>
<path d="M86.5039 24.2095C86.5039 24.019 86.4746 23.8481 86.416 23.6968C86.3623 23.5405 86.2598 23.3989 86.1084 23.272C85.957 23.1401 85.7446 23.0107 85.4712 22.8838C85.1978 22.7568 84.8438 22.625 84.4092 22.4883C83.9258 22.332 83.4668 22.1562 83.0322 21.9609C82.6025 21.7656 82.2217 21.5386 81.8896 21.2798C81.5625 21.0161 81.3037 20.7109 81.1133 20.3643C80.9277 20.0176 80.835 19.6147 80.835 19.1558C80.835 18.7114 80.9326 18.3086 81.1279 17.9473C81.3232 17.5811 81.5967 17.2686 81.9482 17.0098C82.2998 16.7461 82.7148 16.5435 83.1934 16.4019C83.6768 16.2603 84.2065 16.1895 84.7827 16.1895C85.5688 16.1895 86.2549 16.3311 86.8408 16.6143C87.4268 16.8975 87.8809 17.2856 88.2031 17.7788C88.5303 18.272 88.6938 18.8359 88.6938 19.4707H86.5112C86.5112 19.1582 86.4453 18.8848 86.3135 18.6504C86.1865 18.4111 85.9912 18.2231 85.7275 18.0864C85.4688 17.9497 85.1416 17.8813 84.7461 17.8813C84.3652 17.8813 84.0479 17.9399 83.7939 18.0571C83.54 18.1694 83.3496 18.3232 83.2227 18.5186C83.0957 18.709 83.0322 18.9238 83.0322 19.1631C83.0322 19.3438 83.0762 19.5073 83.1641 19.6538C83.2568 19.8003 83.3936 19.937 83.5742 20.064C83.7549 20.1909 83.9771 20.3105 84.2407 20.4229C84.5044 20.5352 84.8096 20.645 85.1562 20.7524C85.7373 20.9282 86.2476 21.126 86.687 21.3457C87.1313 21.5654 87.5024 21.812 87.8003 22.0854C88.0981 22.3589 88.3228 22.6689 88.4741 23.0156C88.6255 23.3623 88.7012 23.7554 88.7012 24.1948C88.7012 24.6587 88.6108 25.0737 88.4302 25.4399C88.2495 25.8062 87.9883 26.1162 87.6465 26.3701C87.3047 26.624 86.897 26.8169 86.4233 26.9487C85.9497 27.0806 85.4199 27.1465 84.834 27.1465C84.3066 27.1465 83.7866 27.0781 83.2739 26.9414C82.7612 26.7998 82.2949 26.5874 81.875 26.3042C81.46 26.021 81.1279 25.6597 80.8789 25.2202C80.6299 24.7808 80.5054 24.2607 80.5054 23.6602H82.71C82.71 23.9922 82.7612 24.2729 82.8638 24.5024C82.9663 24.7319 83.1104 24.9175 83.2959 25.0591C83.4863 25.2007 83.7109 25.3032 83.9697 25.3667C84.2334 25.4302 84.5215 25.4619 84.834 25.4619C85.2148 25.4619 85.5273 25.4082 85.7715 25.3008C86.0205 25.1934 86.2036 25.0444 86.3208 24.854C86.4429 24.6636 86.5039 24.4487 86.5039 24.2095ZM91.1987 16.3359H93.0591L95.7983 24.1655L98.5376 16.3359H100.398L96.5454 27H95.0513L91.1987 16.3359ZM90.1953 16.3359H92.0483L92.3853 23.9678V27H90.1953V16.3359ZM99.5483 16.3359H101.409V27H99.2114V23.9678L99.5483 16.3359ZM108.887 24.2095C108.887 24.019 108.857 23.8481 108.799 23.6968C108.745 23.5405 108.643 23.3989 108.491 23.272C108.34 23.1401 108.127 23.0107 107.854 22.8838C107.581 22.7568 107.227 22.625 106.792 22.4883C106.309 22.332 105.85 22.1562 105.415 21.9609C104.985 21.7656 104.604 21.5386 104.272 21.2798C103.945 21.0161 103.687 20.7109 103.496 20.3643C103.311 20.0176 103.218 19.6147 103.218 19.1558C103.218 18.7114 103.315 18.3086 103.511 17.9473C103.706 17.5811 103.979 17.2686 104.331 17.0098C104.683 16.7461 105.098 16.5435 105.576 16.4019C106.06 16.2603 106.589 16.1895 107.166 16.1895C107.952 16.1895 108.638 16.3311 109.224 16.6143C109.81 16.8975 110.264 17.2856 110.586 17.7788C110.913 18.272 111.077 18.8359 111.077 19.4707H108.894C108.894 19.1582 108.828 18.8848 108.696 18.6504C108.569 18.4111 108.374 18.2231 108.11 18.0864C107.852 17.9497 107.524 17.8813 107.129 17.8813C106.748 17.8813 106.431 17.9399 106.177 18.0571C105.923 18.1694 105.732 18.3232 105.605 18.5186C105.479 18.709 105.415 18.9238 105.415 19.1631C105.415 19.3438 105.459 19.5073 105.547 19.6538C105.64 19.8003 105.776 19.937 105.957 20.064C106.138 20.1909 106.36 20.3105 106.624 20.4229C106.887 20.5352 107.192 20.645 107.539 20.7524C108.12 20.9282 108.63 21.126 109.07 21.3457C109.514 21.5654 109.885 21.812 110.183 22.0854C110.481 22.3589 110.706 22.6689 110.857 23.0156C111.008 23.3623 111.084 23.7554 111.084 24.1948C111.084 24.6587 110.994 25.0737 110.813 25.4399C110.632 25.8062 110.371 26.1162 110.029 26.3701C109.688 26.624 109.28 26.8169 108.806 26.9487C108.333 27.0806 107.803 27.1465 107.217 27.1465C106.689 27.1465 106.169 27.0781 105.657 26.9414C105.144 26.7998 104.678 26.5874 104.258 26.3042C103.843 26.021 103.511 25.6597 103.262 25.2202C103.013 24.7808 102.888 24.2607 102.888 23.6602H105.093C105.093 23.9922 105.144 24.2729 105.247 24.5024C105.349 24.7319 105.493 24.9175 105.679 25.0591C105.869 25.2007 106.094 25.3032 106.353 25.3667C106.616 25.4302 106.904 25.4619 107.217 25.4619C107.598 25.4619 107.91 25.4082 108.154 25.3008C108.403 25.1934 108.586 25.0444 108.704 24.854C108.826 24.6636 108.887 24.4487 108.887 24.2095Z" fill="#353535"/>
</svg>
